<svg width="1363" height="167" viewBox="0 0 1363 167" fill="none" xmlns="http://www.w3.org/2000/svg">
<rect width="1363" height="167" rx="15" fill="#F0F0F0"/>
<path d="M0 15C0 6.71573 6.71573 0 15 0H37V167H15C6.71573 167 0 160.284 0 152V15Z" fill="#424241"/>
<path d="M100.906 50.9219L93.3945 48.2383V45.0859L103.602 49.375V51.6367L100.906 50.9219ZM93.3945 53.1719L100.918 50.4297L103.602 49.7852V52.0352L93.3945 56.3242V53.1719ZM121.789 52.3398H125.293C125.223 53.4883 124.906 54.5078 124.344 55.3984C123.789 56.2891 123.012 56.9844 122.012 57.4844C121.02 57.9844 119.824 58.2344 118.426 58.2344C117.332 58.2344 116.352 58.0469 115.484 57.6719C114.617 57.2891 113.875 56.7422 113.258 56.0312C112.648 55.3203 112.184 54.4609 111.863 53.4531C111.543 52.4453 111.383 51.3164 111.383 50.0664V48.8828C111.383 47.6328 111.547 46.5039 111.875 45.4961C112.211 44.4805 112.688 43.6172 113.305 42.9062C113.93 42.1953 114.676 41.6484 115.543 41.2656C116.41 40.8828 117.379 40.6914 118.449 40.6914C119.871 40.6914 121.07 40.9492 122.047 41.4648C123.031 41.9805 123.793 42.6914 124.332 43.5977C124.879 44.5039 125.207 45.5352 125.316 46.6914H121.801C121.762 46.0039 121.625 45.4219 121.391 44.9453C121.156 44.4609 120.801 44.0977 120.324 43.8555C119.855 43.6055 119.23 43.4805 118.449 43.4805C117.863 43.4805 117.352 43.5898 116.914 43.8086C116.477 44.0273 116.109 44.3594 115.812 44.8047C115.516 45.25 115.293 45.8125 115.145 46.4922C115.004 47.1641 114.934 47.9531 114.934 48.8594V50.0664C114.934 50.9492 115 51.7266 115.133 52.3984C115.266 53.0625 115.469 53.625 115.742 54.0859C116.023 54.5391 116.383 54.8828 116.82 55.1172C117.266 55.3438 117.801 55.457 118.426 55.457C119.16 55.457 119.766 55.3398 120.242 55.1055C120.719 54.8711 121.082 54.5234 121.332 54.0625C121.59 53.6016 121.742 53.0273 121.789 52.3398ZM127.602 40.9375H133.965C135.27 40.9375 136.391 41.1328 137.328 41.5234C138.273 41.9141 139 42.4922 139.508 43.2578C140.016 44.0234 140.27 44.9648 140.27 46.082C140.27 46.9961 140.113 47.7812 139.801 48.4375C139.496 49.0859 139.062 49.6289 138.5 50.0664C137.945 50.4961 137.293 50.8398 136.543 51.0977L135.43 51.6836H129.898L129.875 48.9414H133.988C134.605 48.9414 135.117 48.832 135.523 48.6133C135.93 48.3945 136.234 48.0898 136.438 47.6992C136.648 47.3086 136.754 46.8555 136.754 46.3398C136.754 45.793 136.652 45.3203 136.449 44.9219C136.246 44.5234 135.938 44.2188 135.523 44.0078C135.109 43.7969 134.59 43.6914 133.965 43.6914H131.117V58H127.602V40.9375ZM137.141 58L133.25 50.3945L136.965 50.3711L140.902 57.8359V58H137.141ZM152.398 40.9375H155.902V52.2109C155.902 53.5234 155.621 54.6289 155.059 55.5273C154.504 56.4258 153.734 57.1016 152.75 57.5547C151.773 58.0078 150.648 58.2344 149.375 58.2344C148.102 58.2344 146.969 58.0078 145.977 57.5547C144.992 57.1016 144.219 56.4258 143.656 55.5273C143.102 54.6289 142.824 53.5234 142.824 52.2109V40.9375H146.34V52.2109C146.34 52.9766 146.461 53.6016 146.703 54.0859C146.945 54.5703 147.293 54.9258 147.746 55.1523C148.207 55.3789 148.75 55.4922 149.375 55.4922C150.016 55.4922 150.559 55.3789 151.004 55.1523C151.457 54.9258 151.801 54.5703 152.035 54.0859C152.277 53.6016 152.398 52.9766 152.398 52.2109V40.9375ZM164.035 58H160.32L160.344 55.2578H164.035C164.957 55.2578 165.734 55.0508 166.367 54.6367C167 54.2148 167.477 53.6016 167.797 52.7969C168.125 51.9922 168.289 51.0195 168.289 49.8789V49.0469C168.289 48.1719 168.195 47.4023 168.008 46.7383C167.828 46.0742 167.559 45.5156 167.199 45.0625C166.84 44.6094 166.398 44.2695 165.875 44.043C165.352 43.8086 164.75 43.6914 164.07 43.6914H160.25V40.9375H164.07C165.211 40.9375 166.254 41.1328 167.199 41.5234C168.152 41.9062 168.977 42.457 169.672 43.1758C170.367 43.8945 170.902 44.7539 171.277 45.7539C171.66 46.7461 171.852 47.8516 171.852 49.0703V49.8789C171.852 51.0898 171.66 52.1953 171.277 53.1953C170.902 54.1953 170.367 55.0547 169.672 55.7734C168.984 56.4844 168.16 57.0352 167.199 57.4258C166.246 57.8086 165.191 58 164.035 58ZM162.312 40.9375V58H158.797V40.9375H162.312ZM183.535 58V60.5664H172.895V58H183.535ZM194.984 52.3398H198.488C198.418 53.4883 198.102 54.5078 197.539 55.3984C196.984 56.2891 196.207 56.9844 195.207 57.4844C194.215 57.9844 193.02 58.2344 191.621 58.2344C190.527 58.2344 189.547 58.0469 188.68 57.6719C187.812 57.2891 187.07 56.7422 186.453 56.0312C185.844 55.3203 185.379 54.4609 185.059 53.4531C184.738 52.4453 184.578 51.3164 184.578 50.0664V48.8828C184.578 47.6328 184.742 46.5039 185.07 45.4961C185.406 44.4805 185.883 43.6172 186.5 42.9062C187.125 42.1953 187.871 41.6484 188.738 41.2656C189.605 40.8828 190.574 40.6914 191.645 40.6914C193.066 40.6914 194.266 40.9492 195.242 41.4648C196.227 41.9805 196.988 42.6914 197.527 43.5977C198.074 44.5039 198.402 45.5352 198.512 46.6914H194.996C194.957 46.0039 194.82 45.4219 194.586 44.9453C194.352 44.4609 193.996 44.0977 193.52 43.8555C193.051 43.6055 192.426 43.4805 191.645 43.4805C191.059 43.4805 190.547 43.5898 190.109 43.8086C189.672 44.0273 189.305 44.3594 189.008 44.8047C188.711 45.25 188.488 45.8125 188.34 46.4922C188.199 47.1641 188.129 47.9531 188.129 48.8594V50.0664C188.129 50.9492 188.195 51.7266 188.328 52.3984C188.461 53.0625 188.664 53.625 188.938 54.0859C189.219 54.5391 189.578 54.8828 190.016 55.1172C190.461 55.3438 190.996 55.457 191.621 55.457C192.355 55.457 192.961 55.3398 193.438 55.1055C193.914 54.8711 194.277 54.5234 194.527 54.0625C194.785 53.6016 194.938 53.0273 194.984 52.3398ZM203.879 40V58H200.504V40H203.879ZM203.398 51.2148H202.473C202.48 50.332 202.598 49.5195 202.824 48.7773C203.051 48.0273 203.375 47.3789 203.797 46.832C204.219 46.2773 204.723 45.8477 205.309 45.543C205.902 45.2383 206.559 45.0859 207.277 45.0859C207.902 45.0859 208.469 45.1758 208.977 45.3555C209.492 45.5273 209.934 45.8086 210.301 46.1992C210.676 46.582 210.965 47.0859 211.168 47.7109C211.371 48.3359 211.473 49.0938 211.473 49.9844V58H208.074V49.9609C208.074 49.3984 207.992 48.957 207.828 48.6367C207.672 48.3086 207.441 48.0781 207.137 47.9453C206.84 47.8047 206.473 47.7344 206.035 47.7344C205.551 47.7344 205.137 47.8242 204.793 48.0039C204.457 48.1836 204.188 48.4336 203.984 48.7539C203.781 49.0664 203.633 49.4336 203.539 49.8555C203.445 50.2773 203.398 50.7305 203.398 51.2148ZM220.883 55.1406V49.4922C220.883 49.0859 220.816 48.7383 220.684 48.4492C220.551 48.1523 220.344 47.9219 220.062 47.7578C219.789 47.5938 219.434 47.5117 218.996 47.5117C218.621 47.5117 218.297 47.5781 218.023 47.7109C217.75 47.8359 217.539 48.0195 217.391 48.2617C217.242 48.4961 217.168 48.7734 217.168 49.0938H213.793C213.793 48.5547 213.918 48.043 214.168 47.5586C214.418 47.0742 214.781 46.6484 215.258 46.2812C215.734 45.9062 216.301 45.6133 216.957 45.4023C217.621 45.1914 218.363 45.0859 219.184 45.0859C220.168 45.0859 221.043 45.25 221.809 45.5781C222.574 45.9062 223.176 46.3984 223.613 47.0547C224.059 47.7109 224.281 48.5312 224.281 49.5156V54.9414C224.281 55.6367 224.324 56.207 224.41 56.6523C224.496 57.0898 224.621 57.4727 224.785 57.8008V58H221.375C221.211 57.6562 221.086 57.2266 221 56.7109C220.922 56.1875 220.883 55.6641 220.883 55.1406ZM221.328 50.2773L221.352 52.1875H219.465C219.02 52.1875 218.633 52.2383 218.305 52.3398C217.977 52.4414 217.707 52.5859 217.496 52.7734C217.285 52.9531 217.129 53.1641 217.027 53.4062C216.934 53.6484 216.887 53.9141 216.887 54.2031C216.887 54.4922 216.953 54.7539 217.086 54.9883C217.219 55.2148 217.41 55.3945 217.66 55.5273C217.91 55.6523 218.203 55.7148 218.539 55.7148C219.047 55.7148 219.488 55.6133 219.863 55.4102C220.238 55.207 220.527 54.957 220.73 54.6602C220.941 54.3633 221.051 54.082 221.059 53.8164L221.949 55.2461C221.824 55.5664 221.652 55.8984 221.434 56.2422C221.223 56.5859 220.953 56.9102 220.625 57.2148C220.297 57.5117 219.902 57.7578 219.441 57.9531C218.98 58.1406 218.434 58.2344 217.801 58.2344C216.996 58.2344 216.266 58.0742 215.609 57.7539C214.961 57.4258 214.445 56.9766 214.062 56.4062C213.688 55.8281 213.5 55.1719 213.5 54.4375C213.5 53.7734 213.625 53.1836 213.875 52.668C214.125 52.1523 214.492 51.7188 214.977 51.3672C215.469 51.0078 216.082 50.7383 216.816 50.5586C217.551 50.3711 218.402 50.2773 219.371 50.2773H221.328ZM230.445 40V58H227.059V40H230.445ZM236.797 40V58H233.41V40H236.797ZM245.422 58.2344C244.438 58.2344 243.555 58.0781 242.773 57.7656C241.992 57.4453 241.328 57.0039 240.781 56.4414C240.242 55.8789 239.828 55.2266 239.539 54.4844C239.25 53.7344 239.105 52.9375 239.105 52.0938V51.625C239.105 50.6641 239.242 49.7852 239.516 48.9883C239.789 48.1914 240.18 47.5 240.688 46.9141C241.203 46.3281 241.828 45.8789 242.562 45.5664C243.297 45.2461 244.125 45.0859 245.047 45.0859C245.945 45.0859 246.742 45.2344 247.438 45.5312C248.133 45.8281 248.715 46.25 249.184 46.7969C249.66 47.3438 250.02 48 250.262 48.7656C250.504 49.5234 250.625 50.3672 250.625 51.2969V52.7031H240.547V50.4531H247.309V50.1953C247.309 49.7266 247.223 49.3086 247.051 48.9414C246.887 48.5664 246.637 48.2695 246.301 48.0508C245.965 47.832 245.535 47.7227 245.012 47.7227C244.566 47.7227 244.184 47.8203 243.863 48.0156C243.543 48.2109 243.281 48.4844 243.078 48.8359C242.883 49.1875 242.734 49.6016 242.633 50.0781C242.539 50.5469 242.492 51.0625 242.492 51.625V52.0938C242.492 52.6016 242.562 53.0703 242.703 53.5C242.852 53.9297 243.059 54.3008 243.324 54.6133C243.598 54.9258 243.926 55.168 244.309 55.3398C244.699 55.5117 245.141 55.5977 245.633 55.5977C246.242 55.5977 246.809 55.4805 247.332 55.2461C247.863 55.0039 248.32 54.6406 248.703 54.1562L250.344 55.9375C250.078 56.3203 249.715 56.6875 249.254 57.0391C248.801 57.3906 248.254 57.6797 247.613 57.9062C246.973 58.125 246.242 58.2344 245.422 58.2344ZM255.852 48.0273V58H252.477V45.3203H255.641L255.852 48.0273ZM255.359 51.2148H254.445C254.445 50.2773 254.566 49.4336 254.809 48.6836C255.051 47.9258 255.391 47.2812 255.828 46.75C256.266 46.2109 256.785 45.8008 257.387 45.5195C257.996 45.2305 258.676 45.0859 259.426 45.0859C260.02 45.0859 260.562 45.1719 261.055 45.3438C261.547 45.5156 261.969 45.7891 262.32 46.1641C262.68 46.5391 262.953 47.0352 263.141 47.6523C263.336 48.2695 263.434 49.0234 263.434 49.9141V58H260.035V49.9023C260.035 49.3398 259.957 48.9023 259.801 48.5898C259.645 48.2773 259.414 48.0586 259.109 47.9336C258.812 47.8008 258.445 47.7344 258.008 47.7344C257.555 47.7344 257.16 47.8242 256.824 48.0039C256.496 48.1836 256.223 48.4336 256.004 48.7539C255.793 49.0664 255.633 49.4336 255.523 49.8555C255.414 50.2773 255.359 50.7305 255.359 51.2148ZM274.027 45.3203H277.086V57.5781C277.086 58.7344 276.828 59.7148 276.312 60.5195C275.805 61.332 275.094 61.9453 274.18 62.3594C273.266 62.7812 272.203 62.9922 270.992 62.9922C270.461 62.9922 269.898 62.9219 269.305 62.7812C268.719 62.6406 268.156 62.4219 267.617 62.125C267.086 61.8281 266.641 61.4531 266.281 61L267.77 59.0078C268.16 59.4609 268.613 59.8125 269.129 60.0625C269.645 60.3203 270.215 60.4492 270.84 60.4492C271.449 60.4492 271.965 60.3359 272.387 60.1094C272.809 59.8906 273.133 59.5664 273.359 59.1367C273.586 58.7148 273.699 58.2031 273.699 57.6016V48.25L274.027 45.3203ZM265.496 51.8125V51.5664C265.496 50.5977 265.613 49.7188 265.848 48.9297C266.09 48.1328 266.43 47.4492 266.867 46.8789C267.312 46.3086 267.852 45.8672 268.484 45.5547C269.117 45.2422 269.832 45.0859 270.629 45.0859C271.473 45.0859 272.18 45.2422 272.75 45.5547C273.32 45.8672 273.789 46.3125 274.156 46.8906C274.523 47.4609 274.809 48.1367 275.012 48.918C275.223 49.6914 275.387 50.5391 275.504 51.4609V52C275.387 52.8828 275.211 53.7031 274.977 54.4609C274.742 55.2188 274.434 55.8828 274.051 56.4531C273.668 57.0156 273.191 57.4531 272.621 57.7656C272.059 58.0781 271.387 58.2344 270.605 58.2344C269.824 58.2344 269.117 58.0742 268.484 57.7539C267.859 57.4336 267.324 56.9844 266.879 56.4062C266.434 55.8281 266.09 55.1484 265.848 54.3672C265.613 53.5859 265.496 52.7344 265.496 51.8125ZM268.871 51.5664V51.8125C268.871 52.3359 268.922 52.8242 269.023 53.2773C269.125 53.7305 269.281 54.1328 269.492 54.4844C269.711 54.8281 269.98 55.0977 270.301 55.293C270.629 55.4805 271.016 55.5742 271.461 55.5742C272.078 55.5742 272.582 55.4453 272.973 55.1875C273.363 54.9219 273.656 54.5586 273.852 54.0977C274.047 53.6367 274.16 53.1055 274.191 52.5039V50.9688C274.176 50.4766 274.109 50.0352 273.992 49.6445C273.875 49.2461 273.711 48.9062 273.5 48.625C273.289 48.3438 273.016 48.125 272.68 47.9688C272.344 47.8125 271.945 47.7344 271.484 47.7344C271.039 47.7344 270.652 47.8359 270.324 48.0391C270.004 48.2344 269.734 48.5039 269.516 48.8477C269.305 49.1914 269.145 49.5977 269.035 50.0664C268.926 50.5273 268.871 51.0273 268.871 51.5664ZM285.547 58.2344C284.562 58.2344 283.68 58.0781 282.898 57.7656C282.117 57.4453 281.453 57.0039 280.906 56.4414C280.367 55.8789 279.953 55.2266 279.664 54.4844C279.375 53.7344 279.23 52.9375 279.23 52.0938V51.625C279.23 50.6641 279.367 49.7852 279.641 48.9883C279.914 48.1914 280.305 47.5 280.812 46.9141C281.328 46.3281 281.953 45.8789 282.688 45.5664C283.422 45.2461 284.25 45.0859 285.172 45.0859C286.07 45.0859 286.867 45.2344 287.562 45.5312C288.258 45.8281 288.84 46.25 289.309 46.7969C289.785 47.3438 290.145 48 290.387 48.7656C290.629 49.5234 290.75 50.3672 290.75 51.2969V52.7031H280.672V50.4531H287.434V50.1953C287.434 49.7266 287.348 49.3086 287.176 48.9414C287.012 48.5664 286.762 48.2695 286.426 48.0508C286.09 47.832 285.66 47.7227 285.137 47.7227C284.691 47.7227 284.309 47.8203 283.988 48.0156C283.668 48.2109 283.406 48.4844 283.203 48.8359C283.008 49.1875 282.859 49.6016 282.758 50.0781C282.664 50.5469 282.617 51.0625 282.617 51.625V52.0938C282.617 52.6016 282.688 53.0703 282.828 53.5C282.977 53.9297 283.184 54.3008 283.449 54.6133C283.723 54.9258 284.051 55.168 284.434 55.3398C284.824 55.5117 285.266 55.5977 285.758 55.5977C286.367 55.5977 286.934 55.4805 287.457 55.2461C287.988 55.0039 288.445 54.6406 288.828 54.1562L290.469 55.9375C290.203 56.3203 289.84 56.6875 289.379 57.0391C288.926 57.3906 288.379 57.6797 287.738 57.9062C287.098 58.125 286.367 58.2344 285.547 58.2344Z" fill="#888888"/>
<path d="M109.93 86.0078V118H102.217V86.0078H109.93ZM119.554 86.0078V91.9624H92.813V86.0078H119.554ZM132.012 118.439C130.079 118.439 128.35 118.139 126.827 117.539C125.303 116.923 124.014 116.081 122.959 115.012C121.919 113.942 121.121 112.712 120.564 111.32C120.022 109.929 119.751 108.457 119.751 106.904V106.069C119.751 104.326 119.993 102.714 120.477 101.235C120.96 99.7407 121.678 98.437 122.63 97.3237C123.582 96.2104 124.776 95.3462 126.211 94.731C127.647 94.1011 129.317 93.7861 131.221 93.7861C132.906 93.7861 134.415 94.0571 135.748 94.5991C137.081 95.1411 138.208 95.9175 139.131 96.9282C140.069 97.939 140.779 99.1621 141.263 100.598C141.761 102.033 142.01 103.645 142.01 105.432V108.442H122.586V103.806H134.781V103.234C134.795 102.443 134.656 101.77 134.363 101.213C134.085 100.656 133.675 100.231 133.133 99.9385C132.591 99.6455 131.932 99.499 131.155 99.499C130.35 99.499 129.683 99.6748 129.156 100.026C128.643 100.378 128.24 100.861 127.947 101.477C127.669 102.077 127.471 102.773 127.354 103.564C127.237 104.355 127.178 105.19 127.178 106.069V106.904C127.178 107.783 127.295 108.581 127.53 109.299C127.779 110.017 128.13 110.632 128.584 111.145C129.053 111.643 129.61 112.031 130.254 112.309C130.914 112.587 131.661 112.727 132.496 112.727C133.506 112.727 134.502 112.536 135.484 112.155C136.465 111.774 137.308 111.145 138.011 110.266L141.373 114.265C140.889 114.953 140.201 115.62 139.307 116.264C138.428 116.909 137.374 117.436 136.143 117.846C134.913 118.242 133.536 118.439 132.012 118.439ZM155.062 112.727C155.75 112.727 156.336 112.602 156.819 112.353C157.317 112.089 157.691 111.723 157.94 111.254C158.204 110.771 158.328 110.192 158.313 109.519H165.279C165.293 111.306 164.854 112.873 163.96 114.221C163.082 115.554 161.88 116.594 160.357 117.341C158.848 118.073 157.142 118.439 155.237 118.439C153.377 118.439 151.751 118.139 150.359 117.539C148.968 116.923 147.803 116.074 146.866 114.99C145.943 113.891 145.247 112.609 144.778 111.145C144.324 109.68 144.097 108.09 144.097 106.376V105.871C144.097 104.157 144.324 102.568 144.778 101.103C145.247 99.6235 145.943 98.3418 146.866 97.2578C147.803 96.1592 148.96 95.3096 150.337 94.709C151.729 94.0938 153.348 93.7861 155.193 93.7861C157.171 93.7861 158.914 94.1597 160.423 94.9067C161.946 95.6538 163.14 96.7378 164.004 98.1587C164.869 99.5796 165.293 101.301 165.279 103.322H158.313C158.328 102.604 158.218 101.96 157.984 101.389C157.75 100.817 157.383 100.363 156.885 100.026C156.402 99.6748 155.779 99.499 155.018 99.499C154.256 99.499 153.641 99.6675 153.172 100.004C152.703 100.341 152.344 100.81 152.095 101.411C151.861 101.997 151.7 102.67 151.612 103.432C151.539 104.194 151.502 105.007 151.502 105.871V106.376C151.502 107.255 151.539 108.083 151.612 108.859C151.7 109.621 151.868 110.295 152.117 110.881C152.366 111.452 152.725 111.906 153.194 112.243C153.663 112.565 154.285 112.727 155.062 112.727ZM175.694 84.25V118H168.289V84.25H175.694ZM174.815 105.3L173.079 105.344C173.079 103.674 173.284 102.136 173.694 100.729C174.104 99.3232 174.69 98.1001 175.452 97.0601C176.214 96.02 177.129 95.2144 178.199 94.6431C179.268 94.0718 180.455 93.7861 181.758 93.7861C182.93 93.7861 184 93.9546 184.966 94.2915C185.948 94.6284 186.79 95.1704 187.493 95.9175C188.211 96.6646 188.76 97.6387 189.141 98.8398C189.537 100.041 189.734 101.506 189.734 103.234V118H182.286V103.19C182.286 102.224 182.146 101.477 181.868 100.949C181.604 100.407 181.224 100.034 180.726 99.8286C180.228 99.6089 179.62 99.499 178.902 99.499C178.038 99.499 177.334 99.6455 176.792 99.9385C176.25 100.231 175.833 100.642 175.54 101.169C175.262 101.682 175.071 102.29 174.969 102.993C174.866 103.696 174.815 104.465 174.815 105.3ZM221.88 109.497C221.88 108.999 221.807 108.552 221.661 108.156C221.514 107.746 221.243 107.365 220.848 107.014C220.452 106.662 219.881 106.311 219.134 105.959C218.401 105.593 217.435 105.212 216.233 104.816C214.827 104.348 213.472 103.82 212.168 103.234C210.865 102.634 209.7 101.938 208.675 101.147C207.649 100.341 206.836 99.4038 206.236 98.3345C205.635 97.2505 205.335 95.9907 205.335 94.5552C205.335 93.1782 205.643 91.9404 206.258 90.8418C206.873 89.7285 207.73 88.7837 208.829 88.0073C209.942 87.2163 211.246 86.6157 212.74 86.2056C214.234 85.7808 215.867 85.5684 217.64 85.5684C219.983 85.5684 222.049 85.9785 223.836 86.7988C225.638 87.6045 227.044 88.7544 228.055 90.2485C229.08 91.728 229.593 93.4785 229.593 95.5H221.924C221.924 94.6943 221.756 93.9839 221.419 93.3687C221.097 92.7534 220.606 92.27 219.947 91.9185C219.288 91.5669 218.46 91.3911 217.464 91.3911C216.497 91.3911 215.684 91.5376 215.025 91.8306C214.366 92.1235 213.868 92.519 213.531 93.0171C213.194 93.5005 213.025 94.0352 213.025 94.6211C213.025 95.1045 213.157 95.5439 213.421 95.9395C213.699 96.3203 214.087 96.6792 214.585 97.0161C215.098 97.353 215.713 97.6753 216.431 97.9829C217.164 98.2905 217.984 98.5908 218.892 98.8838C220.591 99.4258 222.1 100.034 223.418 100.708C224.751 101.367 225.872 102.121 226.78 102.971C227.703 103.806 228.399 104.758 228.868 105.827C229.351 106.896 229.593 108.105 229.593 109.453C229.593 110.888 229.314 112.163 228.758 113.276C228.201 114.389 227.403 115.334 226.363 116.11C225.323 116.872 224.078 117.451 222.627 117.846C221.177 118.242 219.559 118.439 217.771 118.439C216.131 118.439 214.512 118.234 212.916 117.824C211.333 117.399 209.898 116.755 208.609 115.891C207.32 115.012 206.287 113.891 205.511 112.529C204.749 111.152 204.368 109.519 204.368 107.629H212.103C212.103 108.566 212.227 109.357 212.476 110.002C212.725 110.646 213.091 111.167 213.575 111.562C214.058 111.943 214.651 112.221 215.354 112.397C216.058 112.558 216.863 112.639 217.771 112.639C218.753 112.639 219.544 112.5 220.145 112.221C220.745 111.928 221.185 111.547 221.463 111.079C221.741 110.595 221.88 110.068 221.88 109.497ZM245.743 94.2256V99.3672H231.417V94.2256H245.743ZM234.427 88.3149H241.832V110.244C241.832 110.874 241.905 111.364 242.051 111.716C242.198 112.053 242.447 112.294 242.798 112.441C243.165 112.573 243.648 112.639 244.249 112.639C244.673 112.639 245.025 112.631 245.303 112.617C245.582 112.587 245.845 112.551 246.094 112.507V117.802C245.464 118.007 244.805 118.161 244.117 118.264C243.428 118.381 242.696 118.439 241.919 118.439C240.337 118.439 238.982 118.19 237.854 117.692C236.741 117.194 235.892 116.411 235.306 115.341C234.72 114.272 234.427 112.88 234.427 111.167V88.3149ZM261.036 112.023V102.224C261.036 101.55 260.94 100.971 260.75 100.488C260.56 100.004 260.259 99.6309 259.849 99.3672C259.439 99.0889 258.89 98.9497 258.201 98.9497C257.645 98.9497 257.168 99.0449 256.773 99.2354C256.377 99.4258 256.077 99.7114 255.872 100.092C255.667 100.473 255.564 100.957 255.564 101.542H248.16C248.16 100.444 248.401 99.4258 248.885 98.4883C249.383 97.5361 250.086 96.7085 250.994 96.0054C251.917 95.3022 253.016 94.7603 254.29 94.3794C255.579 93.9839 257.015 93.7861 258.597 93.7861C260.486 93.7861 262.171 94.1011 263.65 94.731C265.145 95.3608 266.324 96.3057 267.188 97.5654C268.052 98.8105 268.484 100.378 268.484 102.268V112.001C268.484 113.554 268.572 114.733 268.748 115.539C268.924 116.33 269.173 117.026 269.495 117.626V118H262.068C261.717 117.268 261.453 116.374 261.277 115.319C261.116 114.25 261.036 113.151 261.036 112.023ZM261.937 103.476L261.98 107.431H258.707C258.018 107.431 257.432 107.526 256.949 107.717C256.48 107.907 256.099 108.171 255.806 108.508C255.528 108.83 255.323 109.196 255.191 109.606C255.074 110.017 255.015 110.449 255.015 110.903C255.015 111.342 255.118 111.738 255.323 112.089C255.542 112.426 255.835 112.69 256.202 112.88C256.568 113.071 256.978 113.166 257.432 113.166C258.252 113.166 258.948 113.012 259.52 112.705C260.105 112.382 260.552 111.994 260.86 111.54C261.167 111.086 261.321 110.661 261.321 110.266L262.947 113.298C262.654 113.884 262.317 114.477 261.937 115.078C261.57 115.678 261.109 116.235 260.552 116.748C260.01 117.246 259.344 117.656 258.553 117.978C257.762 118.286 256.802 118.439 255.674 118.439C254.209 118.439 252.862 118.139 251.631 117.539C250.416 116.938 249.441 116.103 248.709 115.034C247.977 113.95 247.61 112.705 247.61 111.298C247.61 110.068 247.83 108.969 248.27 108.002C248.724 107.036 249.405 106.215 250.313 105.542C251.221 104.868 252.378 104.355 253.785 104.003C255.191 103.652 256.846 103.476 258.75 103.476H261.937ZM282.635 112.727C283.323 112.727 283.909 112.602 284.393 112.353C284.891 112.089 285.264 111.723 285.513 111.254C285.777 110.771 285.901 110.192 285.887 109.519H292.852C292.867 111.306 292.427 112.873 291.534 114.221C290.655 115.554 289.454 116.594 287.93 117.341C286.421 118.073 284.715 118.439 282.811 118.439C280.95 118.439 279.324 118.139 277.933 117.539C276.541 116.923 275.376 116.074 274.439 114.99C273.516 113.891 272.82 112.609 272.352 111.145C271.897 109.68 271.67 108.09 271.67 106.376V105.871C271.67 104.157 271.897 102.568 272.352 101.103C272.82 99.6235 273.516 98.3418 274.439 97.2578C275.376 96.1592 276.534 95.3096 277.911 94.709C279.302 94.0938 280.921 93.7861 282.767 93.7861C284.744 93.7861 286.487 94.1597 287.996 94.9067C289.52 95.6538 290.713 96.7378 291.578 98.1587C292.442 99.5796 292.867 101.301 292.852 103.322H285.887C285.901 102.604 285.792 101.96 285.557 101.389C285.323 100.817 284.957 100.363 284.458 100.026C283.975 99.6748 283.353 99.499 282.591 99.499C281.829 99.499 281.214 99.6675 280.745 100.004C280.276 100.341 279.917 100.81 279.668 101.411C279.434 101.997 279.273 102.67 279.185 103.432C279.112 104.194 279.075 105.007 279.075 105.871V106.376C279.075 107.255 279.112 108.083 279.185 108.859C279.273 109.621 279.441 110.295 279.69 110.881C279.939 111.452 280.298 111.906 280.767 112.243C281.236 112.565 281.858 112.727 282.635 112.727ZM303.487 84.228V118H296.082V84.228H303.487ZM318.692 94.2256L308.365 106.333L302.959 111.738L299.729 107.036L304.234 101.169L309.815 94.2256H318.692ZM310.76 118L304.41 107.167L309.881 103.278L319.241 118H310.76Z" fill="#424241"/>
<path d="M1363 15C1363 6.71573 1356.28 0 1348 0H1134V167H1348C1356.28 167 1363 160.284 1363 152V15Z" fill="#5F96EC"/>
<path fill-rule="evenodd" clip-rule="evenodd" d="M1218.5 55C1218.37 55 1218.24 55.0527 1218.15 55.1464C1218.05 55.2402 1218 55.3674 1218 55.5V111.5C1218 111.633 1218.05 111.76 1218.15 111.854C1218.24 111.947 1218.37 112 1218.5 112H1278C1278.13 112 1278.26 111.947 1278.35 111.854C1278.45 111.76 1278.5 111.633 1278.5 111.5V66C1278.5 65.8674 1278.45 65.7402 1278.35 65.6464C1278.26 65.5527 1278.13 65.5 1278 65.5H1248.25C1247.36 65.5 1246.52 65.1045 1245.95 64.4206L1238.09 55H1218.5ZM1213.9 50.9038C1215.12 49.6848 1216.78 49 1218.5 49H1239.5C1240.39 49 1241.23 49.3955 1241.8 50.0794L1249.66 59.5H1278C1279.72 59.5 1281.38 60.1848 1282.6 61.4038C1283.82 62.6228 1284.5 64.2761 1284.5 66V111.5C1284.5 113.224 1283.82 114.877 1282.6 116.096C1281.38 117.315 1279.72 118 1278 118H1218.5C1216.78 118 1215.12 117.315 1213.9 116.096C1212.68 114.877 1212 113.224 1212 111.5V55.5C1212 53.7761 1212.68 52.1228 1213.9 50.9038Z" fill="white"/>
<path fill-rule="evenodd" clip-rule="evenodd" d="M1243.72 77.5251C1245.09 78.892 1245.09 81.108 1243.72 82.4749L1237.45 88.75L1243.72 95.0251C1245.09 96.392 1245.09 98.608 1243.72 99.9749C1242.36 101.342 1240.14 101.342 1238.78 99.9749L1230.03 91.2249C1228.66 89.858 1228.66 87.642 1230.03 86.2751L1238.78 77.5251C1240.14 76.1583 1242.36 76.1583 1243.72 77.5251Z" fill="white"/>
<path fill-rule="evenodd" clip-rule="evenodd" d="M1252.03 99.9749C1250.66 98.608 1250.66 96.392 1252.03 95.0251L1258.3 88.75L1252.03 82.4749C1250.66 81.108 1250.66 78.892 1252.03 77.5251C1253.39 76.1583 1255.61 76.1583 1256.97 77.5251L1265.72 86.2751C1267.09 87.642 1267.09 89.858 1265.72 91.2249L1256.97 99.9749C1255.61 101.342 1253.39 101.342 1252.03 99.9749Z" fill="white"/>
</svg>
