<svg width="1363" height="301" viewBox="0 0 1363 301" fill="none" xmlns="http://www.w3.org/2000/svg">
<rect width="1363" height="301" rx="15" fill="#F0F0F0"/>
<path d="M0 15C0 6.71573 6.71573 0 15 0H37V301H15C6.71573 301 0 294.284 0 286V15Z" fill="#5F96EC"/>
<path d="M117.217 130.76H126.617C126.491 133.482 125.757 135.881 124.415 137.958C123.072 140.034 121.21 141.655 118.829 142.818C116.465 143.964 113.672 144.537 110.45 144.537C107.836 144.537 105.499 144.098 103.44 143.221C101.399 142.344 99.6628 141.082 98.2305 139.435C96.8161 137.787 95.7329 135.791 94.981 133.446C94.2469 131.1 93.8799 128.46 93.8799 125.523V123.402C93.8799 120.466 94.2648 117.825 95.0347 115.479C95.8224 113.116 96.9325 111.111 98.3647 109.464C99.8149 107.799 101.552 106.528 103.575 105.65C105.598 104.773 107.845 104.334 110.315 104.334C113.717 104.334 116.591 104.943 118.936 106.161C121.281 107.378 123.099 109.052 124.388 111.183C125.677 113.295 126.438 115.703 126.67 118.407H117.271C117.235 116.939 116.985 115.712 116.519 114.728C116.054 113.725 115.319 112.973 114.317 112.472C113.314 111.97 111.98 111.72 110.315 111.72C109.152 111.72 108.14 111.935 107.281 112.364C106.421 112.794 105.705 113.474 105.132 114.405C104.559 115.336 104.13 116.545 103.843 118.031C103.575 119.499 103.44 121.271 103.44 123.348V125.523C103.44 127.6 103.566 129.373 103.816 130.841C104.067 132.309 104.47 133.508 105.025 134.439C105.58 135.37 106.296 136.06 107.173 136.507C108.069 136.937 109.161 137.152 110.45 137.152C111.882 137.152 113.09 136.928 114.075 136.48C115.06 136.015 115.821 135.317 116.358 134.386C116.895 133.437 117.181 132.228 117.217 130.76ZM131.075 104.898H146.463C149.471 104.898 152.085 105.346 154.305 106.241C156.525 107.136 158.235 108.461 159.434 110.216C160.652 111.97 161.26 114.137 161.26 116.715C161.26 118.953 160.911 120.824 160.213 122.328C159.515 123.832 158.539 125.076 157.286 126.061C156.05 127.027 154.609 127.824 152.962 128.451L149.874 130.196H136.956L136.902 122.918H146.463C147.662 122.918 148.656 122.704 149.444 122.274C150.232 121.844 150.822 121.236 151.216 120.448C151.628 119.642 151.834 118.684 151.834 117.574C151.834 116.446 151.628 115.479 151.216 114.674C150.805 113.868 150.196 113.25 149.39 112.821C148.602 112.391 147.627 112.176 146.463 112.176H140.501V144H131.075V104.898ZM152.479 144L143.831 126.705L153.821 126.651L162.576 143.597V144H152.479ZM188.169 104.898H197.596V130.438C197.596 133.482 196.96 136.06 195.689 138.172C194.418 140.267 192.636 141.852 190.345 142.926C188.053 144 185.359 144.537 182.261 144.537C179.2 144.537 176.505 144 174.178 142.926C171.868 141.852 170.06 140.267 168.753 138.172C167.464 136.06 166.819 133.482 166.819 130.438V104.898H176.272V130.438C176.272 132.049 176.505 133.365 176.971 134.386C177.436 135.388 178.117 136.122 179.012 136.588C179.907 137.053 180.99 137.286 182.261 137.286C183.55 137.286 184.633 137.053 185.511 136.588C186.388 136.122 187.05 135.388 187.498 134.386C187.946 133.365 188.169 132.049 188.169 130.438V104.898ZM216.233 144H207.559L207.613 136.749H216.233C218.024 136.749 219.537 136.319 220.772 135.46C222.025 134.601 222.974 133.32 223.619 131.62C224.281 129.901 224.612 127.788 224.612 125.282V123.59C224.612 121.71 224.424 120.063 224.048 118.648C223.69 117.216 223.153 116.026 222.437 115.077C221.721 114.11 220.826 113.385 219.751 112.901C218.695 112.418 217.478 112.176 216.099 112.176H207.398V104.898H216.099C218.749 104.898 221.175 105.355 223.377 106.268C225.597 107.163 227.513 108.452 229.124 110.135C230.753 111.8 232.007 113.779 232.884 116.07C233.779 118.344 234.227 120.868 234.227 123.644V125.282C234.227 128.039 233.779 130.563 232.884 132.855C232.007 135.147 230.762 137.125 229.151 138.79C227.54 140.455 225.633 141.744 223.431 142.657C221.246 143.552 218.847 144 216.233 144ZM212.957 104.898V144H203.531V104.898H212.957ZM260.411 144V150.741H236.133V144H260.411ZM285.708 130.76H295.108C294.983 133.482 294.249 135.881 292.906 137.958C291.563 140.034 289.701 141.655 287.32 142.818C284.957 143.964 282.164 144.537 278.941 144.537C276.327 144.537 273.991 144.098 271.932 143.221C269.891 142.344 268.154 141.082 266.722 139.435C265.307 137.787 264.224 135.791 263.472 133.446C262.738 131.1 262.371 128.46 262.371 125.523V123.402C262.371 120.466 262.756 117.825 263.526 115.479C264.314 113.116 265.424 111.111 266.856 109.464C268.306 107.799 270.043 106.528 272.066 105.65C274.089 104.773 276.336 104.334 278.807 104.334C282.208 104.334 285.082 104.943 287.427 106.161C289.773 107.378 291.59 109.052 292.879 111.183C294.168 113.295 294.929 115.703 295.162 118.407H285.762C285.726 116.939 285.476 115.712 285.01 114.728C284.545 113.725 283.811 112.973 282.808 112.472C281.806 111.97 280.472 111.72 278.807 111.72C277.643 111.72 276.631 111.935 275.772 112.364C274.913 112.794 274.196 113.474 273.624 114.405C273.051 115.336 272.621 116.545 272.334 118.031C272.066 119.499 271.932 121.271 271.932 123.348V125.523C271.932 127.6 272.057 129.373 272.308 130.841C272.558 132.309 272.961 133.508 273.516 134.439C274.071 135.37 274.787 136.06 275.665 136.507C276.56 136.937 277.652 137.152 278.941 137.152C280.373 137.152 281.582 136.928 282.566 136.48C283.551 136.015 284.312 135.317 284.849 134.386C285.386 133.437 285.673 132.228 285.708 130.76ZM307.999 102.75V144H298.948V102.75H307.999ZM306.924 128.478L304.803 128.531C304.803 126.49 305.053 124.61 305.555 122.892C306.056 121.173 306.772 119.678 307.703 118.407C308.634 117.136 309.753 116.151 311.06 115.453C312.367 114.754 313.817 114.405 315.411 114.405C316.843 114.405 318.15 114.611 319.332 115.023C320.531 115.435 321.561 116.097 322.42 117.01C323.297 117.923 323.969 119.114 324.434 120.582C324.917 122.05 325.159 123.84 325.159 125.953V144H316.055V125.899C316.055 124.718 315.885 123.805 315.545 123.16C315.223 122.498 314.757 122.041 314.148 121.791C313.54 121.522 312.797 121.388 311.919 121.388C310.863 121.388 310.004 121.567 309.341 121.925C308.679 122.283 308.169 122.784 307.811 123.429C307.47 124.055 307.238 124.798 307.112 125.658C306.987 126.517 306.924 127.457 306.924 128.478ZM345.274 136.695V124.718C345.274 123.894 345.158 123.187 344.925 122.596C344.692 122.005 344.325 121.549 343.824 121.227C343.322 120.886 342.651 120.716 341.81 120.716C341.129 120.716 340.547 120.833 340.064 121.065C339.581 121.298 339.214 121.647 338.963 122.113C338.712 122.578 338.587 123.169 338.587 123.885H329.537C329.537 122.542 329.832 121.298 330.423 120.152C331.032 118.989 331.891 117.977 333.001 117.118C334.129 116.258 335.472 115.596 337.029 115.13C338.605 114.647 340.359 114.405 342.293 114.405C344.603 114.405 346.661 114.79 348.47 115.56C350.296 116.33 351.737 117.485 352.793 119.024C353.85 120.546 354.378 122.462 354.378 124.771V136.668C354.378 138.566 354.485 140.007 354.7 140.992C354.915 141.959 355.219 142.809 355.613 143.543V144H346.536C346.106 143.105 345.784 142.013 345.569 140.724C345.372 139.417 345.274 138.074 345.274 136.695ZM346.375 126.249L346.429 131.083H342.427C341.586 131.083 340.87 131.199 340.279 131.432C339.706 131.664 339.24 131.987 338.882 132.398C338.542 132.792 338.292 133.24 338.13 133.741C337.987 134.243 337.916 134.771 337.916 135.326C337.916 135.863 338.041 136.346 338.292 136.776C338.56 137.188 338.918 137.51 339.366 137.743C339.813 137.975 340.315 138.092 340.87 138.092C341.872 138.092 342.723 137.904 343.421 137.528C344.137 137.134 344.683 136.66 345.059 136.104C345.435 135.549 345.623 135.03 345.623 134.547L347.61 138.253C347.252 138.969 346.84 139.694 346.375 140.428C345.927 141.162 345.363 141.843 344.683 142.469C344.021 143.078 343.206 143.579 342.239 143.973C341.272 144.349 340.1 144.537 338.721 144.537C336.931 144.537 335.284 144.17 333.78 143.436C332.294 142.702 331.103 141.681 330.208 140.375C329.313 139.05 328.865 137.528 328.865 135.809C328.865 134.305 329.134 132.962 329.671 131.781C330.226 130.599 331.058 129.597 332.168 128.773C333.278 127.949 334.693 127.323 336.412 126.893C338.13 126.463 340.153 126.249 342.481 126.249H346.375ZM368.96 102.75V144H359.883V102.75H368.96ZM384.107 102.75V144H375.03V102.75H384.107ZM403.765 144.537C401.402 144.537 399.289 144.17 397.427 143.436C395.565 142.684 393.99 141.655 392.701 140.348C391.43 139.041 390.454 137.537 389.773 135.836C389.111 134.135 388.78 132.336 388.78 130.438V129.417C388.78 127.287 389.075 125.318 389.666 123.509C390.257 121.683 391.134 120.09 392.298 118.729C393.462 117.368 394.921 116.312 396.675 115.56C398.43 114.79 400.471 114.405 402.798 114.405C404.857 114.405 406.701 114.736 408.331 115.399C409.96 116.061 411.338 117.01 412.466 118.246C413.612 119.481 414.48 120.976 415.071 122.73C415.68 124.485 415.984 126.454 415.984 128.639V132.318H392.244V126.651H407.149V125.953C407.167 124.986 406.997 124.163 406.639 123.482C406.299 122.802 405.797 122.283 405.135 121.925C404.472 121.567 403.667 121.388 402.718 121.388C401.733 121.388 400.918 121.603 400.274 122.032C399.647 122.462 399.155 123.053 398.797 123.805C398.457 124.539 398.215 125.389 398.072 126.356C397.929 127.323 397.857 128.343 397.857 129.417V130.438C397.857 131.512 398 132.488 398.287 133.365C398.591 134.243 399.021 134.994 399.576 135.621C400.149 136.23 400.829 136.704 401.617 137.044C402.422 137.385 403.335 137.555 404.356 137.555C405.591 137.555 406.809 137.322 408.008 136.856C409.208 136.391 410.237 135.621 411.097 134.547L415.206 139.435C414.615 140.276 413.773 141.091 412.681 141.878C411.607 142.666 410.318 143.311 408.814 143.812C407.31 144.295 405.627 144.537 403.765 144.537ZM428.553 121.146V144H419.502V114.942H427.989L428.553 121.146ZM427.479 128.478L425.357 128.531C425.357 126.311 425.625 124.333 426.163 122.596C426.7 120.842 427.461 119.356 428.445 118.138C429.43 116.921 430.603 115.999 431.963 115.372C433.342 114.728 434.873 114.405 436.556 114.405C437.898 114.405 439.125 114.602 440.235 114.996C441.363 115.39 442.33 116.026 443.135 116.903C443.959 117.78 444.585 118.944 445.015 120.394C445.463 121.826 445.687 123.599 445.687 125.711V144H436.583V125.685C436.583 124.521 436.421 123.635 436.099 123.026C435.777 122.399 435.311 121.97 434.703 121.737C434.094 121.504 433.351 121.388 432.474 121.388C431.543 121.388 430.755 121.567 430.11 121.925C429.466 122.283 428.947 122.784 428.553 123.429C428.177 124.055 427.899 124.798 427.72 125.658C427.559 126.517 427.479 127.457 427.479 128.478ZM468.97 114.942H477.188V142.872C477.188 145.558 476.57 147.831 475.335 149.693C474.1 151.573 472.372 152.997 470.152 153.963C467.95 154.948 465.372 155.44 462.417 155.44C461.111 155.44 459.777 155.27 458.416 154.93C457.055 154.608 455.784 154.125 454.603 153.48C453.421 152.835 452.427 152.039 451.622 151.09L455.408 145.772C456.142 146.596 457.064 147.294 458.174 147.867C459.284 148.458 460.591 148.753 462.095 148.753C463.402 148.753 464.494 148.521 465.372 148.055C466.267 147.59 466.947 146.909 467.413 146.014C467.878 145.137 468.111 144.072 468.111 142.818V121.817L468.97 114.942ZM449.661 129.82V129.256C449.661 127.054 449.93 125.049 450.467 123.241C451.022 121.415 451.81 119.848 452.83 118.541C453.868 117.216 455.122 116.196 456.59 115.479C458.058 114.763 459.714 114.405 461.558 114.405C463.545 114.405 465.175 114.79 466.446 115.56C467.735 116.312 468.764 117.368 469.534 118.729C470.322 120.09 470.931 121.683 471.36 123.509C471.808 125.318 472.184 127.269 472.488 129.364V130.035C472.184 132.005 471.763 133.867 471.226 135.621C470.707 137.358 470.027 138.897 469.185 140.24C468.344 141.583 467.287 142.639 466.016 143.409C464.763 144.161 463.259 144.537 461.504 144.537C459.678 144.537 458.031 144.17 456.563 143.436C455.113 142.702 453.868 141.673 452.83 140.348C451.81 139.023 451.022 137.465 450.467 135.675C449.93 133.884 449.661 131.933 449.661 129.82ZM458.711 129.256V129.82C458.711 130.912 458.81 131.924 459.007 132.855C459.222 133.786 459.544 134.61 459.974 135.326C460.403 136.024 460.931 136.57 461.558 136.964C462.203 137.358 462.955 137.555 463.814 137.555C465.121 137.555 466.177 137.277 466.983 136.722C467.789 136.167 468.37 135.379 468.729 134.359C469.087 133.338 469.239 132.139 469.185 130.76V128.639C469.221 127.457 469.14 126.419 468.943 125.523C468.746 124.61 468.433 123.849 468.003 123.241C467.592 122.632 467.037 122.175 466.338 121.871C465.658 121.549 464.834 121.388 463.868 121.388C463.026 121.388 462.283 121.585 461.639 121.979C460.994 122.372 460.457 122.927 460.027 123.644C459.598 124.342 459.266 125.174 459.034 126.141C458.819 127.09 458.711 128.128 458.711 129.256ZM496.47 144.537C494.107 144.537 491.994 144.17 490.132 143.436C488.27 142.684 486.695 141.655 485.406 140.348C484.135 139.041 483.159 137.537 482.479 135.836C481.816 134.135 481.485 132.336 481.485 130.438V129.417C481.485 127.287 481.78 125.318 482.371 123.509C482.962 121.683 483.839 120.09 485.003 118.729C486.167 117.368 487.626 116.312 489.38 115.56C491.135 114.79 493.176 114.405 495.503 114.405C497.562 114.405 499.406 114.736 501.036 115.399C502.665 116.061 504.043 117.01 505.171 118.246C506.317 119.481 507.186 120.976 507.776 122.73C508.385 124.485 508.689 126.454 508.689 128.639V132.318H484.949V126.651H499.854V125.953C499.872 124.986 499.702 124.163 499.344 123.482C499.004 122.802 498.502 122.283 497.84 121.925C497.177 121.567 496.372 121.388 495.423 121.388C494.438 121.388 493.624 121.603 492.979 122.032C492.352 122.462 491.86 123.053 491.502 123.805C491.162 124.539 490.92 125.389 490.777 126.356C490.634 127.323 490.562 128.343 490.562 129.417V130.438C490.562 131.512 490.705 132.488 490.992 133.365C491.296 134.243 491.726 134.994 492.281 135.621C492.854 136.23 493.534 136.704 494.322 137.044C495.127 137.385 496.041 137.555 497.061 137.555C498.296 137.555 499.514 137.322 500.713 136.856C501.913 136.391 502.942 135.621 503.802 134.547L507.911 139.435C507.32 140.276 506.478 141.091 505.386 141.878C504.312 142.666 503.023 143.311 501.519 143.812C500.015 144.295 498.332 144.537 496.47 144.537Z" fill="black"/>
<path d="M110.816 65.2515V69.2505H97.8276V65.2515H110.816ZM99.3486 55.1172V80H94.2217V55.1172H99.3486ZM114.473 55.1172V80H109.363V55.1172H114.473ZM128.606 75.8301V67.5928C128.606 67.0003 128.51 66.4933 128.316 66.0718C128.122 65.6388 127.82 65.3027 127.41 65.0635C127.011 64.8242 126.493 64.7046 125.855 64.7046C125.308 64.7046 124.835 64.8014 124.437 64.9951C124.038 65.1774 123.73 65.4451 123.514 65.7983C123.297 66.1401 123.189 66.5446 123.189 67.0117H118.267C118.267 66.2256 118.449 65.4793 118.814 64.7729C119.179 64.0666 119.708 63.4456 120.403 62.9102C121.098 62.3633 121.924 61.936 122.881 61.6284C123.85 61.3208 124.932 61.167 126.128 61.167C127.564 61.167 128.84 61.4062 129.957 61.8848C131.073 62.3633 131.95 63.0811 132.588 64.0381C133.238 64.9951 133.562 66.1914 133.562 67.627V75.5396C133.562 76.5535 133.625 77.3853 133.75 78.0347C133.876 78.6727 134.058 79.231 134.297 79.7095V80H129.324C129.085 79.4987 128.903 78.8721 128.777 78.1201C128.663 77.3568 128.606 76.5934 128.606 75.8301ZM129.256 68.7378L129.29 71.5234H126.539C125.889 71.5234 125.325 71.5975 124.847 71.7456C124.368 71.8937 123.975 72.1045 123.667 72.3779C123.36 72.64 123.132 72.9476 122.984 73.3008C122.847 73.654 122.779 74.0413 122.779 74.4629C122.779 74.8844 122.876 75.2661 123.069 75.6079C123.263 75.9383 123.542 76.2004 123.907 76.394C124.271 76.5763 124.699 76.6675 125.188 76.6675C125.929 76.6675 126.573 76.5194 127.12 76.2231C127.667 75.9269 128.088 75.5623 128.384 75.1294C128.692 74.6965 128.851 74.2863 128.863 73.8989L130.162 75.9839C129.979 76.451 129.729 76.9352 129.41 77.4365C129.102 77.9378 128.709 78.4106 128.23 78.855C127.752 79.2879 127.177 79.6468 126.504 79.9316C125.832 80.2051 125.035 80.3418 124.112 80.3418C122.938 80.3418 121.873 80.1082 120.916 79.6411C119.97 79.1626 119.218 78.5075 118.66 77.6758C118.113 76.8327 117.84 75.8757 117.84 74.8047C117.84 73.8363 118.022 72.9761 118.387 72.2241C118.751 71.4722 119.287 70.8398 119.993 70.3271C120.711 69.8031 121.605 69.41 122.676 69.1479C123.747 68.8745 124.989 68.7378 126.402 68.7378H129.256ZM148.277 75.9668V53.75H153.233V80H148.772L148.277 75.9668ZM136.587 70.9766V70.6177C136.587 69.2049 136.747 67.9232 137.066 66.7725C137.385 65.6104 137.852 64.6134 138.467 63.7817C139.083 62.95 139.84 62.3063 140.74 61.8506C141.64 61.3949 142.666 61.167 143.816 61.167C144.899 61.167 145.844 61.3949 146.653 61.8506C147.474 62.3063 148.169 62.9557 148.738 63.7988C149.319 64.6305 149.786 65.616 150.14 66.7554C150.493 67.8833 150.749 69.1195 150.909 70.4639V71.25C150.749 72.5374 150.493 73.7337 150.14 74.8389C149.786 75.944 149.319 76.9124 148.738 77.7441C148.169 78.5645 147.474 79.2025 146.653 79.6582C145.833 80.1139 144.876 80.3418 143.782 80.3418C142.632 80.3418 141.606 80.1082 140.706 79.6411C139.817 79.174 139.065 78.5189 138.45 77.6758C137.846 76.8327 137.385 75.8415 137.066 74.7021C136.747 73.5628 136.587 72.321 136.587 70.9766ZM141.509 70.6177V70.9766C141.509 71.7399 141.566 72.452 141.68 73.1128C141.806 73.7736 142.005 74.3604 142.278 74.873C142.563 75.3743 142.928 75.7674 143.372 76.0522C143.828 76.3257 144.38 76.4624 145.03 76.4624C145.873 76.4624 146.568 76.2744 147.115 75.8984C147.662 75.5111 148.077 74.9813 148.362 74.3091C148.659 73.6369 148.829 72.8621 148.875 71.9849V69.7461C148.841 69.0283 148.738 68.3846 148.567 67.8149C148.408 67.2339 148.169 66.7383 147.85 66.3281C147.542 65.918 147.155 65.599 146.688 65.3711C146.232 65.1432 145.691 65.0293 145.064 65.0293C144.426 65.0293 143.879 65.1774 143.423 65.4736C142.968 65.7585 142.597 66.1515 142.312 66.6528C142.039 67.1541 141.834 67.7466 141.697 68.4302C141.572 69.1024 141.509 69.8315 141.509 70.6177ZM162.273 61.5088V80H157.334V61.5088H162.273ZM157.027 56.6895C157.027 55.9717 157.278 55.3792 157.779 54.9121C158.28 54.445 158.952 54.2114 159.795 54.2114C160.627 54.2114 161.294 54.445 161.795 54.9121C162.308 55.3792 162.564 55.9717 162.564 56.6895C162.564 57.4072 162.308 57.9997 161.795 58.4668C161.294 58.9339 160.627 59.1675 159.795 59.1675C158.952 59.1675 158.28 58.9339 157.779 58.4668C157.278 57.9997 157.027 57.4072 157.027 56.6895ZM185.481 59.3726L178.714 80H173.262L182.508 55.1172H185.977L185.481 59.3726ZM191.104 80L184.319 59.3726L183.772 55.1172H187.276L196.573 80H191.104ZM190.796 70.7373V74.7534H177.654V70.7373H190.796ZM203.768 53.75V80H198.829V53.75H203.768ZM213.27 55.1172V80H208.143V55.1172H213.27ZM228.172 55.1172L218.311 67.4048L212.62 73.5229L211.697 68.6694L215.542 63.4058L221.883 55.1172H228.172ZM222.344 80L215.013 68.4985L218.807 65.3198L228.411 80H222.344ZM240.066 75.8301V67.5928C240.066 67.0003 239.97 66.4933 239.776 66.0718C239.582 65.6388 239.28 65.3027 238.87 65.0635C238.471 64.8242 237.953 64.7046 237.315 64.7046C236.768 64.7046 236.295 64.8014 235.896 64.9951C235.498 65.1774 235.19 65.4451 234.974 65.7983C234.757 66.1401 234.649 66.5446 234.649 67.0117H229.727C229.727 66.2256 229.909 65.4793 230.274 64.7729C230.639 64.0666 231.168 63.4456 231.863 62.9102C232.558 62.3633 233.384 61.936 234.341 61.6284C235.31 61.3208 236.392 61.167 237.588 61.167C239.024 61.167 240.3 61.4062 241.417 61.8848C242.533 62.3633 243.41 63.0811 244.048 64.0381C244.698 64.9951 245.022 66.1914 245.022 67.627V75.5396C245.022 76.5535 245.085 77.3853 245.21 78.0347C245.336 78.6727 245.518 79.231 245.757 79.7095V80H240.784C240.545 79.4987 240.363 78.8721 240.237 78.1201C240.123 77.3568 240.066 76.5934 240.066 75.8301ZM240.716 68.7378L240.75 71.5234H237.999C237.349 71.5234 236.785 71.5975 236.307 71.7456C235.828 71.8937 235.435 72.1045 235.127 72.3779C234.82 72.64 234.592 72.9476 234.444 73.3008C234.307 73.654 234.239 74.0413 234.239 74.4629C234.239 74.8844 234.336 75.2661 234.529 75.6079C234.723 75.9383 235.002 76.2004 235.367 76.394C235.731 76.5763 236.159 76.6675 236.648 76.6675C237.389 76.6675 238.033 76.5194 238.58 76.2231C239.126 75.9269 239.548 75.5623 239.844 75.1294C240.152 74.6965 240.311 74.2863 240.323 73.8989L241.622 75.9839C241.439 76.451 241.189 76.9352 240.87 77.4365C240.562 77.9378 240.169 78.4106 239.69 78.855C239.212 79.2879 238.637 79.6468 237.964 79.9316C237.292 80.2051 236.495 80.3418 235.572 80.3418C234.398 80.3418 233.333 80.1082 232.376 79.6411C231.43 79.1626 230.678 78.5075 230.12 77.6758C229.573 76.8327 229.3 75.8757 229.3 74.8047C229.3 73.8363 229.482 72.9761 229.847 72.2241C230.211 71.4722 230.747 70.8398 231.453 70.3271C232.171 69.8031 233.065 69.41 234.136 69.1479C235.207 68.8745 236.449 68.7378 237.862 68.7378H240.716ZM253.738 65.3369V80H248.799V61.5088H253.431L253.738 65.3369ZM253.055 70.105H251.688C251.688 68.8175 251.841 67.6326 252.149 66.5503C252.468 65.4565 252.929 64.5109 253.533 63.7134C254.148 62.9045 254.906 62.2778 255.806 61.8335C256.706 61.3892 257.749 61.167 258.934 61.167C259.754 61.167 260.506 61.2923 261.189 61.543C261.873 61.7822 262.46 62.1639 262.95 62.688C263.451 63.2007 263.838 63.8729 264.112 64.7046C264.385 65.5249 264.522 66.5104 264.522 67.6611V80H259.6V68.208C259.6 67.3649 259.486 66.7155 259.258 66.2598C259.03 65.804 258.706 65.485 258.284 65.3027C257.874 65.1204 257.378 65.0293 256.797 65.0293C256.159 65.0293 255.601 65.1603 255.123 65.4224C254.655 65.6844 254.268 66.049 253.96 66.5161C253.653 66.9718 253.425 67.5073 253.277 68.1226C253.129 68.7378 253.055 69.3986 253.055 70.105ZM264.061 69.541L262.3 69.7632C262.3 68.5555 262.448 67.4333 262.745 66.3965C263.052 65.3597 263.502 64.4482 264.095 63.6621C264.699 62.876 265.445 62.2664 266.333 61.8335C267.222 61.3892 268.248 61.167 269.41 61.167C270.298 61.167 271.107 61.298 271.836 61.5601C272.566 61.8107 273.187 62.2152 273.699 62.7734C274.223 63.3203 274.622 64.0381 274.896 64.9268C275.18 65.8154 275.323 66.9035 275.323 68.1909V80H270.384V68.1909C270.384 67.3364 270.27 66.687 270.042 66.2427C269.826 65.7869 269.507 65.4736 269.085 65.3027C268.675 65.1204 268.185 65.0293 267.615 65.0293C267.023 65.0293 266.504 65.1489 266.06 65.3882C265.616 65.616 265.245 65.9351 264.949 66.3452C264.653 66.7554 264.431 67.2339 264.283 67.7808C264.135 68.3162 264.061 68.903 264.061 69.541ZM284.056 65.3369V80H279.117V61.5088H283.748L284.056 65.3369ZM283.372 70.105H282.005C282.005 68.8175 282.159 67.6326 282.466 66.5503C282.785 65.4565 283.247 64.5109 283.851 63.7134C284.466 62.9045 285.223 62.2778 286.124 61.8335C287.024 61.3892 288.066 61.167 289.251 61.167C290.071 61.167 290.823 61.2923 291.507 61.543C292.19 61.7822 292.777 62.1639 293.267 62.688C293.768 63.2007 294.156 63.8729 294.429 64.7046C294.703 65.5249 294.839 66.5104 294.839 67.6611V80H289.917V68.208C289.917 67.3649 289.804 66.7155 289.576 66.2598C289.348 65.804 289.023 65.485 288.602 65.3027C288.191 65.1204 287.696 65.0293 287.115 65.0293C286.477 65.0293 285.918 65.1603 285.44 65.4224C284.973 65.6844 284.585 66.049 284.278 66.5161C283.97 66.9718 283.742 67.5073 283.594 68.1226C283.446 68.7378 283.372 69.3986 283.372 70.105ZM294.378 69.541L292.618 69.7632C292.618 68.5555 292.766 67.4333 293.062 66.3965C293.37 65.3597 293.82 64.4482 294.412 63.6621C295.016 62.876 295.762 62.2664 296.651 61.8335C297.54 61.3892 298.565 61.167 299.727 61.167C300.616 61.167 301.425 61.298 302.154 61.5601C302.883 61.8107 303.504 62.2152 304.017 62.7734C304.541 63.3203 304.939 64.0381 305.213 64.9268C305.498 65.8154 305.64 66.9035 305.64 68.1909V80H300.701V68.1909C300.701 67.3364 300.587 66.687 300.359 66.2427C300.143 65.7869 299.824 65.4736 299.402 65.3027C298.992 65.1204 298.502 65.0293 297.933 65.0293C297.34 65.0293 296.822 65.1489 296.377 65.3882C295.933 65.616 295.563 65.9351 295.267 66.3452C294.97 66.7554 294.748 67.2339 294.6 67.7808C294.452 68.3162 294.378 68.903 294.378 69.541ZM308.665 70.9424V70.5835C308.665 69.2277 308.859 67.9801 309.246 66.8408C309.633 65.6901 310.197 64.6932 310.938 63.8501C311.679 63.007 312.59 62.3519 313.672 61.8848C314.755 61.4062 315.997 61.167 317.398 61.167C318.799 61.167 320.047 61.4062 321.141 61.8848C322.234 62.3519 323.152 63.007 323.892 63.8501C324.644 64.6932 325.214 65.6901 325.601 66.8408C325.988 67.9801 326.182 69.2277 326.182 70.5835V70.9424C326.182 72.2868 325.988 73.5343 325.601 74.6851C325.214 75.8244 324.644 76.8213 323.892 77.6758C323.152 78.5189 322.24 79.174 321.158 79.6411C320.075 80.1082 318.833 80.3418 317.432 80.3418C316.031 80.3418 314.783 80.1082 313.689 79.6411C312.607 79.174 311.69 78.5189 310.938 77.6758C310.197 76.8213 309.633 75.8244 309.246 74.6851C308.859 73.5343 308.665 72.2868 308.665 70.9424ZM313.587 70.5835V70.9424C313.587 71.7171 313.655 72.4406 313.792 73.1128C313.929 73.785 314.145 74.3774 314.441 74.8901C314.749 75.3914 315.148 75.7845 315.638 76.0693C316.128 76.3542 316.726 76.4966 317.432 76.4966C318.116 76.4966 318.702 76.3542 319.192 76.0693C319.682 75.7845 320.075 75.3914 320.372 74.8901C320.668 74.3774 320.884 73.785 321.021 73.1128C321.169 72.4406 321.243 71.7171 321.243 70.9424V70.5835C321.243 69.8315 321.169 69.1252 321.021 68.4644C320.884 67.7922 320.662 67.1997 320.354 66.687C320.058 66.1629 319.665 65.7528 319.175 65.4565C318.685 65.1603 318.093 65.0122 317.398 65.0122C316.703 65.0122 316.111 65.1603 315.621 65.4565C315.142 65.7528 314.749 66.1629 314.441 66.687C314.145 67.1997 313.929 67.7922 313.792 68.4644C313.655 69.1252 313.587 69.8315 313.587 70.5835ZM340.145 75.5737V61.5088H345.066V80H340.435L340.145 75.5737ZM340.691 71.7798L342.144 71.7456C342.144 72.9761 342.002 74.1211 341.717 75.1807C341.432 76.2288 341.005 77.1403 340.435 77.915C339.865 78.6784 339.148 79.2765 338.282 79.7095C337.416 80.131 336.396 80.3418 335.223 80.3418C334.323 80.3418 333.491 80.2165 332.728 79.9658C331.976 79.7038 331.326 79.2993 330.779 78.7524C330.244 78.1942 329.822 77.4821 329.515 76.6162C329.218 75.7389 329.07 74.6851 329.07 73.4546V61.5088H333.992V73.4888C333.992 74.0356 334.055 74.4971 334.18 74.873C334.317 75.249 334.505 75.5566 334.744 75.7959C334.983 76.0352 335.263 76.2061 335.582 76.3086C335.912 76.4111 336.277 76.4624 336.675 76.4624C337.689 76.4624 338.487 76.2573 339.068 75.8472C339.66 75.437 340.076 74.8787 340.315 74.1724C340.566 73.4546 340.691 72.6571 340.691 71.7798ZM353.646 65.4565V80H348.724V61.5088H353.338L353.646 65.4565ZM352.928 70.105H351.595C351.595 68.7378 351.771 67.5073 352.125 66.4136C352.478 65.3084 352.973 64.3685 353.611 63.5938C354.249 62.8076 355.007 62.2095 355.884 61.7993C356.773 61.3778 357.764 61.167 358.858 61.167C359.724 61.167 360.516 61.2923 361.233 61.543C361.951 61.7936 362.566 62.1924 363.079 62.7393C363.603 63.2861 364.002 64.0096 364.275 64.9097C364.56 65.8097 364.703 66.9092 364.703 68.208V80H359.747V68.1909C359.747 67.3706 359.633 66.7326 359.405 66.2769C359.177 65.8211 358.841 65.5021 358.396 65.3198C357.964 65.1261 357.428 65.0293 356.79 65.0293C356.129 65.0293 355.554 65.1603 355.064 65.4224C354.585 65.6844 354.187 66.049 353.868 66.5161C353.56 66.9718 353.326 67.5073 353.167 68.1226C353.007 68.7378 352.928 69.3986 352.928 70.105ZM373.641 61.5088V80H368.702V61.5088H373.641ZM368.394 56.6895C368.394 55.9717 368.645 55.3792 369.146 54.9121C369.647 54.445 370.319 54.2114 371.163 54.2114C371.994 54.2114 372.661 54.445 373.162 54.9121C373.675 55.3792 373.931 55.9717 373.931 56.6895C373.931 57.4072 373.675 57.9997 373.162 58.4668C372.661 58.9339 371.994 59.1675 371.163 59.1675C370.319 59.1675 369.647 58.9339 369.146 58.4668C368.645 57.9997 368.394 57.4072 368.394 56.6895Z" fill="#888888"/>
<rect x="92" y="181" width="1179" height="80" rx="13.3333" fill="#CCCCCC"/>
<rect x="107" y="196.333" width="208" height="49.3333" rx="4.66667" fill="#888888" stroke="#888888" stroke-width="4"/>
<path d="M189.708 213.167V228.333H186.063L180.698 218.896V228.333H177.042V213.167H180.698L186.063 222.604V213.167H189.708ZM197.313 228.542C196.396 228.542 195.576 228.399 194.854 228.115C194.132 227.823 193.521 227.424 193.021 226.917C192.528 226.41 192.149 225.826 191.885 225.167C191.628 224.507 191.5 223.809 191.5 223.073V222.677C191.5 221.851 191.615 221.087 191.844 220.385C192.073 219.677 192.413 219.059 192.865 218.531C193.316 218.003 193.882 217.594 194.563 217.302C195.243 217.003 196.035 216.854 196.938 216.854C197.736 216.854 198.451 216.983 199.083 217.24C199.715 217.497 200.25 217.865 200.688 218.344C201.132 218.823 201.469 219.403 201.698 220.083C201.934 220.764 202.052 221.528 202.052 222.375V223.802H192.844V221.604H198.625V221.333C198.632 220.958 198.566 220.639 198.427 220.375C198.295 220.111 198.101 219.91 197.844 219.771C197.587 219.632 197.274 219.562 196.906 219.562C196.524 219.562 196.208 219.646 195.958 219.812C195.715 219.979 195.524 220.208 195.385 220.5C195.253 220.785 195.16 221.115 195.104 221.49C195.049 221.865 195.021 222.26 195.021 222.677V223.073C195.021 223.49 195.076 223.868 195.188 224.208C195.306 224.549 195.472 224.84 195.688 225.083C195.91 225.319 196.174 225.503 196.479 225.635C196.792 225.767 197.146 225.833 197.542 225.833C198.021 225.833 198.493 225.743 198.958 225.562C199.424 225.382 199.823 225.083 200.156 224.667L201.75 226.562C201.521 226.889 201.194 227.205 200.771 227.51C200.354 227.816 199.854 228.066 199.271 228.26C198.688 228.448 198.035 228.542 197.313 228.542ZM209.385 225.167C209.385 224.972 209.319 224.806 209.188 224.667C209.063 224.521 208.84 224.389 208.521 224.271C208.201 224.146 207.753 224.021 207.177 223.896C206.628 223.778 206.111 223.622 205.625 223.427C205.146 223.233 204.726 222.997 204.365 222.719C204.003 222.441 203.719 222.111 203.51 221.729C203.309 221.347 203.208 220.91 203.208 220.417C203.208 219.937 203.309 219.486 203.51 219.062C203.719 218.632 204.021 218.253 204.417 217.927C204.819 217.594 205.309 217.333 205.885 217.146C206.462 216.951 207.118 216.854 207.854 216.854C208.868 216.854 209.743 217.01 210.479 217.323C211.215 217.628 211.781 218.059 212.177 218.615C212.58 219.163 212.781 219.799 212.781 220.521H209.271C209.271 220.236 209.222 219.993 209.125 219.792C209.035 219.59 208.885 219.437 208.677 219.333C208.469 219.222 208.191 219.167 207.844 219.167C207.601 219.167 207.378 219.212 207.177 219.302C206.983 219.392 206.826 219.517 206.708 219.677C206.59 219.837 206.531 220.024 206.531 220.24C206.531 220.392 206.566 220.531 206.635 220.656C206.712 220.774 206.826 220.885 206.979 220.99C207.132 221.087 207.326 221.177 207.563 221.26C207.799 221.337 208.083 221.406 208.417 221.469C209.174 221.608 209.882 221.806 210.542 222.062C211.201 222.319 211.736 222.684 212.146 223.156C212.563 223.628 212.771 224.264 212.771 225.062C212.771 225.562 212.656 226.024 212.427 226.448C212.198 226.865 211.868 227.233 211.438 227.552C211.007 227.865 210.49 228.108 209.885 228.281C209.281 228.455 208.601 228.542 207.844 228.542C206.767 228.542 205.858 228.351 205.115 227.969C204.372 227.58 203.809 227.094 203.427 226.51C203.052 225.92 202.865 225.323 202.865 224.719H206.135C206.149 225.066 206.233 225.351 206.385 225.573C206.545 225.795 206.757 225.958 207.021 226.062C207.285 226.167 207.59 226.219 207.938 226.219C208.257 226.219 208.521 226.174 208.729 226.083C208.944 225.993 209.108 225.872 209.219 225.719C209.33 225.559 209.385 225.375 209.385 225.167ZM220.354 217.062V219.5H213.563V217.062H220.354ZM214.99 214.26H218.5V224.656C218.5 224.955 218.535 225.187 218.604 225.354C218.674 225.514 218.792 225.628 218.958 225.698C219.132 225.76 219.361 225.792 219.646 225.792C219.847 225.792 220.014 225.788 220.146 225.781C220.278 225.767 220.403 225.75 220.521 225.729V228.24C220.222 228.337 219.91 228.41 219.583 228.458C219.257 228.514 218.91 228.542 218.542 228.542C217.792 228.542 217.149 228.424 216.615 228.187C216.087 227.951 215.684 227.58 215.406 227.073C215.128 226.566 214.99 225.906 214.99 225.094V214.26ZM227.948 223.573V213.167H231.594V223.573C231.594 224.587 231.361 225.465 230.896 226.208C230.438 226.951 229.813 227.528 229.021 227.937C228.236 228.34 227.354 228.542 226.375 228.542C225.361 228.542 224.458 228.372 223.667 228.031C222.882 227.691 222.264 227.167 221.813 226.458C221.368 225.75 221.146 224.847 221.146 223.75H224.813C224.813 224.264 224.872 224.667 224.99 224.958C225.108 225.243 225.281 225.444 225.51 225.562C225.747 225.674 226.035 225.729 226.375 225.729C226.708 225.729 226.99 225.646 227.219 225.479C227.455 225.306 227.635 225.059 227.76 224.74C227.885 224.413 227.948 224.024 227.948 223.573ZM241.729 224.302C241.729 224.066 241.694 223.854 241.625 223.667C241.556 223.472 241.427 223.292 241.24 223.125C241.052 222.958 240.781 222.792 240.427 222.625C240.08 222.451 239.622 222.271 239.052 222.083C238.385 221.861 237.743 221.611 237.125 221.333C236.507 221.049 235.955 220.719 235.469 220.344C234.983 219.962 234.597 219.517 234.313 219.01C234.028 218.497 233.885 217.899 233.885 217.219C233.885 216.566 234.031 215.979 234.323 215.458C234.615 214.931 235.021 214.483 235.542 214.115C236.069 213.74 236.688 213.455 237.396 213.26C238.104 213.059 238.878 212.958 239.719 212.958C240.83 212.958 241.809 213.153 242.656 213.542C243.51 213.924 244.177 214.469 244.656 215.177C245.142 215.878 245.385 216.708 245.385 217.667H241.75C241.75 217.285 241.67 216.948 241.51 216.656C241.358 216.365 241.125 216.135 240.813 215.969C240.5 215.802 240.108 215.719 239.635 215.719C239.177 215.719 238.792 215.788 238.479 215.927C238.167 216.066 237.931 216.253 237.771 216.49C237.611 216.719 237.531 216.972 237.531 217.25C237.531 217.479 237.594 217.687 237.719 217.875C237.851 218.056 238.035 218.226 238.271 218.385C238.514 218.545 238.806 218.698 239.146 218.844C239.493 218.99 239.882 219.132 240.313 219.271C241.118 219.528 241.833 219.816 242.458 220.135C243.09 220.448 243.622 220.806 244.052 221.208C244.49 221.604 244.819 222.056 245.042 222.562C245.271 223.069 245.385 223.642 245.385 224.281C245.385 224.962 245.253 225.566 244.99 226.094C244.726 226.622 244.347 227.069 243.854 227.437C243.361 227.799 242.771 228.073 242.083 228.26C241.396 228.448 240.628 228.542 239.781 228.542C239.003 228.542 238.236 228.444 237.479 228.25C236.729 228.049 236.049 227.743 235.438 227.333C234.826 226.917 234.337 226.385 233.969 225.74C233.608 225.087 233.427 224.312 233.427 223.417H237.094C237.094 223.861 237.153 224.236 237.271 224.542C237.389 224.847 237.563 225.094 237.792 225.281C238.021 225.462 238.302 225.594 238.635 225.677C238.969 225.753 239.351 225.792 239.781 225.792C240.247 225.792 240.622 225.726 240.906 225.594C241.191 225.455 241.399 225.274 241.531 225.052C241.663 224.823 241.729 224.573 241.729 224.302Z" fill="white"/>
<rect x="339" y="196.333" width="208" height="49.3333" rx="4.66667" fill="#888888" stroke="#888888" stroke-width="4"/>
<path d="M382.833 213.167H388.802C389.969 213.167 390.983 213.34 391.844 213.687C392.705 214.035 393.368 214.549 393.833 215.229C394.306 215.91 394.542 216.75 394.542 217.75C394.542 218.618 394.406 219.344 394.135 219.927C393.865 220.51 393.486 220.993 393 221.375C392.521 221.75 391.962 222.059 391.323 222.302L390.125 222.979H385.115L385.094 220.156H388.802C389.267 220.156 389.653 220.073 389.958 219.906C390.264 219.74 390.493 219.503 390.646 219.198C390.806 218.885 390.885 218.514 390.885 218.083C390.885 217.646 390.806 217.271 390.646 216.958C390.486 216.646 390.25 216.406 389.937 216.24C389.632 216.073 389.253 215.99 388.802 215.99H386.49V228.333H382.833V213.167ZM391.135 228.333L387.781 221.625L391.656 221.604L395.052 228.177V228.333H391.135ZM402.042 228.542C401.125 228.542 400.306 228.399 399.583 228.115C398.861 227.823 398.25 227.424 397.75 226.917C397.257 226.41 396.878 225.826 396.615 225.167C396.358 224.507 396.229 223.809 396.229 223.073V222.677C396.229 221.851 396.344 221.087 396.573 220.385C396.802 219.677 397.142 219.059 397.594 218.531C398.045 218.003 398.611 217.594 399.292 217.302C399.972 217.003 400.764 216.854 401.667 216.854C402.465 216.854 403.181 216.983 403.813 217.24C404.444 217.497 404.979 217.865 405.417 218.344C405.861 218.823 406.198 219.403 406.427 220.083C406.663 220.764 406.781 221.528 406.781 222.375V223.802H397.573V221.604H403.354V221.333C403.361 220.958 403.295 220.639 403.156 220.375C403.024 220.111 402.83 219.91 402.573 219.771C402.316 219.632 402.003 219.562 401.635 219.562C401.253 219.562 400.938 219.646 400.688 219.812C400.444 219.979 400.253 220.208 400.115 220.5C399.983 220.785 399.889 221.115 399.833 221.49C399.778 221.865 399.75 222.26 399.75 222.677V223.073C399.75 223.49 399.806 223.868 399.917 224.208C400.035 224.549 400.201 224.84 400.417 225.083C400.639 225.319 400.903 225.503 401.208 225.635C401.521 225.767 401.875 225.833 402.271 225.833C402.75 225.833 403.222 225.743 403.688 225.562C404.153 225.382 404.552 225.083 404.885 224.667L406.479 226.562C406.25 226.889 405.924 227.205 405.5 227.51C405.083 227.816 404.583 228.066 404 228.26C403.417 228.448 402.764 228.542 402.042 228.542ZM414.063 225.5V220.854C414.063 220.535 414.017 220.26 413.927 220.031C413.837 219.802 413.694 219.625 413.5 219.5C413.306 219.368 413.045 219.302 412.719 219.302C412.455 219.302 412.229 219.347 412.042 219.437C411.854 219.528 411.712 219.663 411.615 219.844C411.517 220.024 411.469 220.253 411.469 220.531H407.958C407.958 220.01 408.073 219.528 408.302 219.083C408.538 218.632 408.872 218.24 409.302 217.906C409.74 217.573 410.26 217.316 410.865 217.135C411.476 216.948 412.156 216.854 412.906 216.854C413.802 216.854 414.601 217.003 415.302 217.302C416.01 217.601 416.569 218.049 416.979 218.646C417.389 219.236 417.594 219.979 417.594 220.875V225.49C417.594 226.226 417.635 226.785 417.719 227.167C417.802 227.542 417.92 227.872 418.073 228.156V228.333H414.552C414.385 227.986 414.26 227.562 414.177 227.062C414.101 226.556 414.063 226.035 414.063 225.5ZM414.49 221.448L414.51 223.323H412.958C412.632 223.323 412.354 223.368 412.125 223.458C411.903 223.549 411.722 223.674 411.583 223.833C411.451 223.986 411.354 224.16 411.292 224.354C411.236 224.549 411.208 224.753 411.208 224.969C411.208 225.177 411.257 225.365 411.354 225.531C411.458 225.691 411.597 225.816 411.771 225.906C411.944 225.997 412.139 226.042 412.354 226.042C412.743 226.042 413.073 225.969 413.344 225.823C413.622 225.67 413.833 225.486 413.979 225.271C414.125 225.056 414.198 224.854 414.198 224.667L414.969 226.104C414.83 226.382 414.67 226.663 414.49 226.948C414.316 227.233 414.097 227.497 413.833 227.74C413.576 227.976 413.26 228.17 412.885 228.323C412.51 228.469 412.056 228.542 411.521 228.542C410.826 228.542 410.188 228.399 409.604 228.115C409.028 227.83 408.566 227.434 408.219 226.927C407.872 226.413 407.698 225.823 407.698 225.156C407.698 224.573 407.802 224.052 408.01 223.594C408.226 223.135 408.549 222.747 408.979 222.427C409.41 222.108 409.958 221.865 410.625 221.698C411.292 221.531 412.076 221.448 412.979 221.448H414.49ZM424.302 225.833C424.628 225.833 424.906 225.774 425.135 225.656C425.372 225.531 425.549 225.358 425.667 225.135C425.792 224.906 425.851 224.632 425.844 224.312H429.146C429.153 225.16 428.944 225.903 428.521 226.542C428.104 227.174 427.535 227.667 426.812 228.021C426.097 228.368 425.288 228.542 424.385 228.542C423.503 228.542 422.733 228.399 422.073 228.115C421.413 227.823 420.861 227.42 420.417 226.906C419.979 226.385 419.649 225.778 419.427 225.083C419.212 224.389 419.104 223.635 419.104 222.823V222.583C419.104 221.771 419.212 221.017 419.427 220.323C419.649 219.622 419.979 219.014 420.417 218.5C420.861 217.979 421.41 217.576 422.062 217.292C422.722 217 423.49 216.854 424.365 216.854C425.302 216.854 426.128 217.031 426.844 217.385C427.566 217.74 428.132 218.253 428.542 218.927C428.951 219.601 429.153 220.417 429.146 221.375H425.844C425.851 221.035 425.799 220.729 425.687 220.458C425.576 220.187 425.403 219.972 425.167 219.812C424.937 219.646 424.642 219.562 424.281 219.562C423.92 219.562 423.628 219.642 423.406 219.802C423.184 219.962 423.014 220.184 422.896 220.469C422.785 220.747 422.708 221.066 422.667 221.427C422.632 221.788 422.615 222.174 422.615 222.583V222.823C422.615 223.24 422.632 223.632 422.667 224C422.708 224.361 422.788 224.681 422.906 224.958C423.024 225.229 423.194 225.444 423.417 225.604C423.639 225.757 423.934 225.833 424.302 225.833ZM436.583 217.062V219.5H429.792V217.062H436.583ZM431.219 214.26H434.729V224.656C434.729 224.955 434.764 225.187 434.833 225.354C434.903 225.514 435.021 225.628 435.188 225.698C435.361 225.76 435.59 225.792 435.875 225.792C436.076 225.792 436.243 225.788 436.375 225.781C436.507 225.767 436.632 225.75 436.75 225.729V228.24C436.451 228.337 436.139 228.41 435.813 228.458C435.486 228.514 435.139 228.542 434.771 228.542C434.021 228.542 433.378 228.424 432.844 228.187C432.316 227.951 431.913 227.58 431.635 227.073C431.358 226.566 431.219 225.906 431.219 225.094V214.26ZM456.125 213.167V228.333H452.479L447.115 218.896V228.333H443.458V213.167H447.115L452.479 222.604V213.167H456.125ZM464.125 225.5V220.854C464.125 220.535 464.08 220.26 463.99 220.031C463.899 219.802 463.757 219.625 463.563 219.5C463.368 219.368 463.108 219.302 462.781 219.302C462.517 219.302 462.292 219.347 462.104 219.437C461.917 219.528 461.774 219.663 461.677 219.844C461.58 220.024 461.531 220.253 461.531 220.531H458.021C458.021 220.01 458.135 219.528 458.365 219.083C458.601 218.632 458.934 218.24 459.365 217.906C459.802 217.573 460.323 217.316 460.927 217.135C461.538 216.948 462.219 216.854 462.969 216.854C463.865 216.854 464.663 217.003 465.365 217.302C466.073 217.601 466.632 218.049 467.042 218.646C467.451 219.236 467.656 219.979 467.656 220.875V225.49C467.656 226.226 467.698 226.785 467.781 227.167C467.865 227.542 467.983 227.872 468.135 228.156V228.333H464.615C464.448 227.986 464.323 227.562 464.24 227.062C464.163 226.556 464.125 226.035 464.125 225.5ZM464.552 221.448L464.573 223.323H463.021C462.694 223.323 462.417 223.368 462.188 223.458C461.965 223.549 461.785 223.674 461.646 223.833C461.514 223.986 461.417 224.16 461.354 224.354C461.299 224.549 461.271 224.753 461.271 224.969C461.271 225.177 461.319 225.365 461.417 225.531C461.521 225.691 461.66 225.816 461.833 225.906C462.007 225.997 462.201 226.042 462.417 226.042C462.806 226.042 463.135 225.969 463.406 225.823C463.684 225.67 463.896 225.486 464.042 225.271C464.188 225.056 464.26 224.854 464.26 224.667L465.031 226.104C464.892 226.382 464.733 226.663 464.552 226.948C464.378 227.233 464.16 227.497 463.896 227.74C463.639 227.976 463.323 228.17 462.948 228.323C462.573 228.469 462.118 228.542 461.583 228.542C460.889 228.542 460.25 228.399 459.667 228.115C459.09 227.83 458.628 227.434 458.281 226.927C457.934 226.413 457.76 225.823 457.76 225.156C457.76 224.573 457.865 224.052 458.073 223.594C458.288 223.135 458.611 222.747 459.042 222.427C459.472 222.108 460.021 221.865 460.688 221.698C461.354 221.531 462.139 221.448 463.042 221.448H464.552ZM475.542 217.062V219.5H468.75V217.062H475.542ZM470.177 214.26H473.687V224.656C473.687 224.955 473.722 225.187 473.792 225.354C473.861 225.514 473.979 225.628 474.146 225.698C474.319 225.76 474.549 225.792 474.833 225.792C475.035 225.792 475.201 225.788 475.333 225.781C475.465 225.767 475.59 225.75 475.708 225.729V228.24C475.41 228.337 475.097 228.41 474.771 228.458C474.444 228.514 474.097 228.542 473.729 228.542C472.979 228.542 472.337 228.424 471.802 228.187C471.274 227.951 470.872 227.58 470.594 227.073C470.316 226.566 470.177 225.906 470.177 225.094V214.26ZM480.646 217.062V228.333H477.125V217.062H480.646ZM476.917 214.156C476.917 213.656 477.097 213.247 477.458 212.927C477.819 212.608 478.288 212.448 478.865 212.448C479.441 212.448 479.91 212.608 480.271 212.927C480.632 213.247 480.813 213.656 480.813 214.156C480.813 214.656 480.632 215.066 480.271 215.385C479.91 215.705 479.441 215.865 478.865 215.865C478.288 215.865 477.819 215.705 477.458 215.385C477.097 215.066 476.917 214.656 476.917 214.156ZM486.875 225.927L489.094 217.062H492.792L489.104 228.333H486.917L486.875 225.927ZM485.563 217.062L487.75 225.927L487.729 228.333H485.531L481.854 217.062H485.563ZM499.146 228.542C498.229 228.542 497.41 228.399 496.688 228.115C495.965 227.823 495.354 227.424 494.854 226.917C494.361 226.41 493.983 225.826 493.719 225.167C493.462 224.507 493.333 223.809 493.333 223.073V222.677C493.333 221.851 493.448 221.087 493.677 220.385C493.906 219.677 494.247 219.059 494.698 218.531C495.149 218.003 495.715 217.594 496.396 217.302C497.076 217.003 497.868 216.854 498.771 216.854C499.569 216.854 500.285 216.983 500.917 217.24C501.549 217.497 502.083 217.865 502.521 218.344C502.965 218.823 503.302 219.403 503.531 220.083C503.767 220.764 503.885 221.528 503.885 222.375V223.802H494.677V221.604H500.458V221.333C500.465 220.958 500.399 220.639 500.26 220.375C500.128 220.111 499.934 219.91 499.677 219.771C499.42 219.632 499.108 219.562 498.74 219.562C498.358 219.562 498.042 219.646 497.792 219.812C497.549 219.979 497.358 220.208 497.219 220.5C497.087 220.785 496.993 221.115 496.938 221.49C496.882 221.865 496.854 222.26 496.854 222.677V223.073C496.854 223.49 496.91 223.868 497.021 224.208C497.139 224.549 497.306 224.84 497.521 225.083C497.743 225.319 498.007 225.503 498.313 225.635C498.625 225.767 498.979 225.833 499.375 225.833C499.854 225.833 500.326 225.743 500.792 225.562C501.257 225.382 501.656 225.083 501.99 224.667L503.583 226.562C503.354 226.889 503.028 227.205 502.604 227.51C502.188 227.816 501.688 228.066 501.104 228.26C500.521 228.448 499.868 228.542 499.146 228.542Z" fill="white"/>
<rect x="571" y="196.333" width="208" height="49.3333" rx="4.66667" fill="#888888" stroke="#888888" stroke-width="4"/>
<path d="M624.479 223.187H620.708V220.365H624.479C624.993 220.365 625.41 220.278 625.729 220.104C626.049 219.931 626.281 219.691 626.427 219.385C626.58 219.073 626.656 218.722 626.656 218.333C626.656 217.917 626.58 217.531 626.427 217.177C626.281 216.823 626.049 216.538 625.729 216.323C625.41 216.101 624.993 215.99 624.479 215.99H622.083V228.333H618.427V213.167H624.479C625.694 213.167 626.74 213.389 627.615 213.833C628.497 214.278 629.174 214.889 629.646 215.667C630.118 216.437 630.354 217.319 630.354 218.312C630.354 219.292 630.118 220.146 629.646 220.875C629.174 221.604 628.497 222.174 627.615 222.583C626.74 222.986 625.694 223.187 624.479 223.187ZM631.573 222.812V222.594C631.573 221.767 631.691 221.007 631.927 220.312C632.163 219.611 632.51 219.003 632.969 218.49C633.427 217.976 633.993 217.576 634.667 217.292C635.34 217 636.118 216.854 637 216.854C637.889 216.854 638.67 217 639.344 217.292C640.024 217.576 640.594 217.976 641.052 218.49C641.51 219.003 641.858 219.611 642.094 220.312C642.33 221.007 642.448 221.767 642.448 222.594V222.812C642.448 223.632 642.33 224.392 642.094 225.094C641.858 225.788 641.51 226.396 641.052 226.917C640.594 227.431 640.028 227.83 639.354 228.115C638.681 228.399 637.903 228.542 637.021 228.542C636.139 228.542 635.358 228.399 634.677 228.115C633.997 227.83 633.427 227.431 632.969 226.917C632.51 226.396 632.163 225.788 631.927 225.094C631.691 224.392 631.573 223.632 631.573 222.812ZM635.083 222.594V222.812C635.083 223.236 635.115 223.632 635.177 224C635.24 224.368 635.344 224.691 635.49 224.969C635.635 225.24 635.833 225.451 636.083 225.604C636.333 225.757 636.646 225.833 637.021 225.833C637.389 225.833 637.694 225.757 637.937 225.604C638.187 225.451 638.385 225.24 638.531 224.969C638.677 224.691 638.781 224.368 638.844 224C638.906 223.632 638.937 223.236 638.937 222.812V222.594C638.937 222.184 638.906 221.799 638.844 221.437C638.781 221.069 638.677 220.747 638.531 220.469C638.385 220.184 638.187 219.962 637.937 219.802C637.687 219.642 637.375 219.562 637 219.562C636.632 219.562 636.323 219.642 636.073 219.802C635.83 219.962 635.635 220.184 635.49 220.469C635.344 220.747 635.24 221.069 635.177 221.437C635.115 221.799 635.083 222.184 635.083 222.594ZM649.917 225.167C649.917 224.972 649.851 224.806 649.719 224.667C649.594 224.521 649.372 224.389 649.052 224.271C648.733 224.146 648.285 224.021 647.708 223.896C647.16 223.778 646.642 223.622 646.156 223.427C645.677 223.233 645.257 222.997 644.896 222.719C644.535 222.441 644.25 222.111 644.042 221.729C643.84 221.347 643.74 220.91 643.74 220.417C643.74 219.937 643.84 219.486 644.042 219.062C644.25 218.632 644.552 218.253 644.948 217.927C645.351 217.594 645.84 217.333 646.417 217.146C646.993 216.951 647.649 216.854 648.385 216.854C649.399 216.854 650.274 217.01 651.01 217.323C651.747 217.628 652.312 218.059 652.708 218.615C653.111 219.163 653.312 219.799 653.312 220.521H649.802C649.802 220.236 649.753 219.993 649.656 219.792C649.566 219.59 649.417 219.437 649.208 219.333C649 219.222 648.722 219.167 648.375 219.167C648.132 219.167 647.91 219.212 647.708 219.302C647.514 219.392 647.358 219.517 647.24 219.677C647.122 219.837 647.062 220.024 647.062 220.24C647.062 220.392 647.097 220.531 647.167 220.656C647.243 220.774 647.358 220.885 647.51 220.99C647.663 221.087 647.858 221.177 648.094 221.26C648.33 221.337 648.615 221.406 648.948 221.469C649.705 221.608 650.413 221.806 651.073 222.062C651.733 222.319 652.267 222.684 652.677 223.156C653.094 223.628 653.302 224.264 653.302 225.062C653.302 225.562 653.187 226.024 652.958 226.448C652.729 226.865 652.399 227.233 651.969 227.552C651.538 227.865 651.021 228.108 650.417 228.281C649.812 228.455 649.132 228.542 648.375 228.542C647.299 228.542 646.389 228.351 645.646 227.969C644.903 227.58 644.34 227.094 643.958 226.51C643.583 225.92 643.396 225.323 643.396 224.719H646.667C646.681 225.066 646.764 225.351 646.917 225.573C647.076 225.795 647.288 225.958 647.552 226.062C647.816 226.167 648.122 226.219 648.469 226.219C648.788 226.219 649.052 226.174 649.26 226.083C649.476 225.993 649.639 225.872 649.75 225.719C649.861 225.559 649.917 225.375 649.917 225.167ZM660.885 217.062V219.5H654.094V217.062H660.885ZM655.521 214.26H659.031V224.656C659.031 224.955 659.066 225.187 659.135 225.354C659.205 225.514 659.323 225.628 659.49 225.698C659.663 225.76 659.892 225.792 660.177 225.792C660.378 225.792 660.545 225.788 660.677 225.781C660.809 225.767 660.934 225.75 661.052 225.729V228.24C660.753 228.337 660.441 228.41 660.115 228.458C659.788 228.514 659.441 228.542 659.073 228.542C658.323 228.542 657.681 228.424 657.146 228.187C656.618 227.951 656.215 227.58 655.937 227.073C655.66 226.566 655.521 225.906 655.521 225.094V214.26ZM669.365 217.062H672.552V227.896C672.552 228.937 672.312 229.819 671.833 230.542C671.354 231.271 670.684 231.823 669.823 232.198C668.969 232.58 667.969 232.771 666.823 232.771C666.316 232.771 665.799 232.705 665.271 232.573C664.743 232.448 664.25 232.26 663.792 232.01C663.333 231.76 662.948 231.451 662.635 231.083L664.104 229.021C664.389 229.34 664.747 229.611 665.177 229.833C665.608 230.062 666.115 230.177 666.698 230.177C667.205 230.177 667.628 230.087 667.969 229.906C668.316 229.726 668.58 229.462 668.76 229.115C668.941 228.774 669.031 228.361 669.031 227.875V219.729L669.365 217.062ZM661.875 222.833V222.615C661.875 221.76 661.979 220.983 662.187 220.281C662.403 219.573 662.708 218.965 663.104 218.458C663.507 217.944 663.993 217.549 664.562 217.271C665.132 216.993 665.774 216.854 666.49 216.854C667.26 216.854 667.892 217.003 668.385 217.302C668.885 217.594 669.285 218.003 669.583 218.531C669.889 219.059 670.125 219.677 670.292 220.385C670.465 221.087 670.611 221.844 670.729 222.656V222.917C670.611 223.681 670.448 224.403 670.24 225.083C670.038 225.757 669.774 226.354 669.448 226.875C669.122 227.396 668.712 227.806 668.219 228.104C667.733 228.396 667.149 228.542 666.469 228.542C665.76 228.542 665.122 228.399 664.552 228.115C663.99 227.83 663.507 227.431 663.104 226.917C662.708 226.403 662.403 225.799 662.187 225.104C661.979 224.41 661.875 223.653 661.875 222.833ZM665.385 222.615V222.833C665.385 223.257 665.424 223.649 665.5 224.01C665.583 224.372 665.708 224.691 665.875 224.969C666.042 225.24 666.247 225.451 666.49 225.604C666.74 225.757 667.031 225.833 667.365 225.833C667.872 225.833 668.281 225.726 668.594 225.51C668.906 225.295 669.132 224.99 669.271 224.594C669.41 224.198 669.469 223.733 669.448 223.198V222.375C669.462 221.917 669.431 221.514 669.354 221.167C669.278 220.812 669.156 220.517 668.99 220.281C668.83 220.045 668.615 219.868 668.344 219.75C668.08 219.625 667.76 219.562 667.385 219.562C667.059 219.562 666.771 219.639 666.521 219.792C666.271 219.944 666.062 220.16 665.896 220.437C665.729 220.708 665.601 221.031 665.51 221.406C665.427 221.774 665.385 222.177 665.385 222.615ZM678.115 219.854V228.333H674.604V217.062H677.885L678.115 219.854ZM681.448 216.979L681.385 220.24C681.247 220.226 681.059 220.208 680.823 220.187C680.587 220.167 680.389 220.156 680.229 220.156C679.819 220.156 679.465 220.205 679.167 220.302C678.875 220.392 678.632 220.531 678.437 220.719C678.25 220.899 678.111 221.128 678.021 221.406C677.937 221.684 677.899 222.007 677.906 222.375L677.271 221.958C677.271 221.201 677.344 220.514 677.49 219.896C677.642 219.271 677.858 218.733 678.135 218.281C678.413 217.823 678.75 217.472 679.146 217.229C679.542 216.979 679.986 216.854 680.479 216.854C680.653 216.854 680.823 216.865 680.99 216.885C681.163 216.906 681.316 216.937 681.448 216.979ZM687.906 228.542C686.99 228.542 686.17 228.399 685.448 228.115C684.726 227.823 684.115 227.424 683.615 226.917C683.122 226.41 682.743 225.826 682.479 225.167C682.222 224.507 682.094 223.809 682.094 223.073V222.677C682.094 221.851 682.208 221.087 682.437 220.385C682.667 219.677 683.007 219.059 683.458 218.531C683.91 218.003 684.476 217.594 685.156 217.302C685.837 217.003 686.628 216.854 687.531 216.854C688.33 216.854 689.045 216.983 689.677 217.24C690.309 217.497 690.844 217.865 691.281 218.344C691.726 218.823 692.062 219.403 692.292 220.083C692.528 220.764 692.646 221.528 692.646 222.375V223.802H683.437V221.604H689.219V221.333C689.226 220.958 689.16 220.639 689.021 220.375C688.889 220.111 688.694 219.91 688.437 219.771C688.181 219.632 687.868 219.562 687.5 219.562C687.118 219.562 686.802 219.646 686.552 219.812C686.309 219.979 686.118 220.208 685.979 220.5C685.847 220.785 685.753 221.115 685.698 221.49C685.642 221.865 685.615 222.26 685.615 222.677V223.073C685.615 223.49 685.67 223.868 685.781 224.208C685.899 224.549 686.066 224.84 686.281 225.083C686.503 225.319 686.767 225.503 687.073 225.635C687.385 225.767 687.74 225.833 688.135 225.833C688.615 225.833 689.087 225.743 689.552 225.562C690.017 225.382 690.417 225.083 690.75 224.667L692.344 226.562C692.115 226.889 691.788 227.205 691.365 227.51C690.948 227.816 690.448 228.066 689.865 228.26C689.281 228.448 688.628 228.542 687.906 228.542ZM702.052 224.302C702.052 224.066 702.017 223.854 701.948 223.667C701.878 223.472 701.75 223.292 701.562 223.125C701.375 222.958 701.104 222.792 700.75 222.625C700.403 222.451 699.944 222.271 699.375 222.083C698.708 221.861 698.066 221.611 697.448 221.333C696.83 221.049 696.278 220.719 695.792 220.344C695.306 219.962 694.92 219.517 694.635 219.01C694.351 218.497 694.208 217.899 694.208 217.219C694.208 216.566 694.354 215.979 694.646 215.458C694.937 214.931 695.344 214.483 695.865 214.115C696.392 213.74 697.01 213.455 697.719 213.26C698.427 213.059 699.201 212.958 700.042 212.958C701.153 212.958 702.132 213.153 702.979 213.542C703.833 213.924 704.5 214.469 704.979 215.177C705.465 215.878 705.708 216.708 705.708 217.667H702.073C702.073 217.285 701.993 216.948 701.833 216.656C701.681 216.365 701.448 216.135 701.135 215.969C700.823 215.802 700.431 215.719 699.958 215.719C699.5 215.719 699.115 215.788 698.802 215.927C698.49 216.066 698.253 216.253 698.094 216.49C697.934 216.719 697.854 216.972 697.854 217.25C697.854 217.479 697.917 217.687 698.042 217.875C698.174 218.056 698.358 218.226 698.594 218.385C698.837 218.545 699.128 218.698 699.469 218.844C699.816 218.99 700.205 219.132 700.635 219.271C701.441 219.528 702.156 219.816 702.781 220.135C703.413 220.448 703.944 220.806 704.375 221.208C704.812 221.604 705.142 222.056 705.365 222.562C705.594 223.069 705.708 223.642 705.708 224.281C705.708 224.962 705.576 225.566 705.312 226.094C705.049 226.622 704.67 227.069 704.177 227.437C703.684 227.799 703.094 228.073 702.406 228.26C701.719 228.448 700.951 228.542 700.104 228.542C699.326 228.542 698.559 228.444 697.802 228.25C697.052 228.049 696.372 227.743 695.76 227.333C695.149 226.917 694.66 226.385 694.292 225.74C693.931 225.087 693.75 224.312 693.75 223.417H697.417C697.417 223.861 697.476 224.236 697.594 224.542C697.712 224.847 697.885 225.094 698.115 225.281C698.344 225.462 698.625 225.594 698.958 225.677C699.292 225.753 699.674 225.792 700.104 225.792C700.569 225.792 700.944 225.726 701.229 225.594C701.514 225.455 701.722 225.274 701.854 225.052C701.986 224.823 702.052 224.573 702.052 224.302ZM716.052 225.833L720.281 229.187L718.01 231.104L713.854 227.75L716.052 225.833ZM720.458 220.448V221.062C720.458 222.222 720.295 223.264 719.969 224.187C719.649 225.104 719.191 225.889 718.594 226.542C718.003 227.187 717.306 227.684 716.5 228.031C715.694 228.372 714.806 228.542 713.833 228.542C712.854 228.542 711.958 228.372 711.146 228.031C710.34 227.684 709.639 227.187 709.042 226.542C708.451 225.889 707.993 225.104 707.667 224.187C707.347 223.264 707.188 222.222 707.188 221.062V220.448C707.188 219.288 707.347 218.247 707.667 217.323C707.993 216.399 708.448 215.615 709.031 214.969C709.622 214.316 710.319 213.819 711.125 213.479C711.938 213.132 712.833 212.958 713.813 212.958C714.785 212.958 715.674 213.132 716.479 213.479C717.292 213.819 717.993 214.316 718.583 214.969C719.181 215.615 719.642 216.399 719.969 217.323C720.295 218.247 720.458 219.288 720.458 220.448ZM716.74 221.062V220.427C716.74 219.677 716.674 219.017 716.542 218.448C716.417 217.872 716.229 217.389 715.979 217C715.729 216.611 715.42 216.319 715.052 216.125C714.691 215.924 714.278 215.823 713.813 215.823C713.326 215.823 712.903 215.924 712.542 216.125C712.181 216.319 711.878 216.611 711.635 217C711.392 217.389 711.208 217.872 711.083 218.448C710.965 219.017 710.906 219.677 710.906 220.427V221.062C710.906 221.806 710.965 222.465 711.083 223.042C711.208 223.611 711.392 224.094 711.635 224.49C711.885 224.885 712.191 225.184 712.552 225.385C712.92 225.587 713.347 225.687 713.833 225.687C714.299 225.687 714.712 225.587 715.073 225.385C715.434 225.184 715.736 224.885 715.979 224.49C716.229 224.094 716.417 223.611 716.542 223.042C716.674 222.465 716.74 221.806 716.74 221.062ZM732.344 225.521V228.333H724.677V225.521H732.344ZM725.979 213.167V228.333H722.323V213.167H725.979Z" fill="white"/>
</svg>
