<svg width="1363" height="167" viewBox="0 0 1363 167" fill="none" xmlns="http://www.w3.org/2000/svg">
<rect width="1363" height="167" rx="15" fill="#F0F0F0"/>
<path d="M0 15C0 6.71573 6.71573 0 15 0H37V167H15C6.71573 167 0 160.284 0 152V15Z" fill="#424241"/>
<path d="M100.906 50.9219L93.3945 48.2383V45.0859L103.602 49.375V51.6367L100.906 50.9219ZM93.3945 53.1719L100.918 50.4297L103.602 49.7852V52.0352L93.3945 56.3242V53.1719ZM121.789 52.3398H125.293C125.223 53.4883 124.906 54.5078 124.344 55.3984C123.789 56.2891 123.012 56.9844 122.012 57.4844C121.02 57.9844 119.824 58.2344 118.426 58.2344C117.332 58.2344 116.352 58.0469 115.484 57.6719C114.617 57.2891 113.875 56.7422 113.258 56.0312C112.648 55.3203 112.184 54.4609 111.863 53.4531C111.543 52.4453 111.383 51.3164 111.383 50.0664V48.8828C111.383 47.6328 111.547 46.5039 111.875 45.4961C112.211 44.4805 112.688 43.6172 113.305 42.9062C113.93 42.1953 114.676 41.6484 115.543 41.2656C116.41 40.8828 117.379 40.6914 118.449 40.6914C119.871 40.6914 121.07 40.9492 122.047 41.4648C123.031 41.9805 123.793 42.6914 124.332 43.5977C124.879 44.5039 125.207 45.5352 125.316 46.6914H121.801C121.762 46.0039 121.625 45.4219 121.391 44.9453C121.156 44.4609 120.801 44.0977 120.324 43.8555C119.855 43.6055 119.23 43.4805 118.449 43.4805C117.863 43.4805 117.352 43.5898 116.914 43.8086C116.477 44.0273 116.109 44.3594 115.812 44.8047C115.516 45.25 115.293 45.8125 115.145 46.4922C115.004 47.1641 114.934 47.9531 114.934 48.8594V50.0664C114.934 50.9492 115 51.7266 115.133 52.3984C115.266 53.0625 115.469 53.625 115.742 54.0859C116.023 54.5391 116.383 54.8828 116.82 55.1172C117.266 55.3438 117.801 55.457 118.426 55.457C119.16 55.457 119.766 55.3398 120.242 55.1055C120.719 54.8711 121.082 54.5234 121.332 54.0625C121.59 53.6016 121.742 53.0273 121.789 52.3398ZM127.602 40.9375H133.965C135.27 40.9375 136.391 41.1328 137.328 41.5234C138.273 41.9141 139 42.4922 139.508 43.2578C140.016 44.0234 140.27 44.9648 140.27 46.082C140.27 46.9961 140.113 47.7812 139.801 48.4375C139.496 49.0859 139.062 49.6289 138.5 50.0664C137.945 50.4961 137.293 50.8398 136.543 51.0977L135.43 51.6836H129.898L129.875 48.9414H133.988C134.605 48.9414 135.117 48.832 135.523 48.6133C135.93 48.3945 136.234 48.0898 136.438 47.6992C136.648 47.3086 136.754 46.8555 136.754 46.3398C136.754 45.793 136.652 45.3203 136.449 44.9219C136.246 44.5234 135.938 44.2188 135.523 44.0078C135.109 43.7969 134.59 43.6914 133.965 43.6914H131.117V58H127.602V40.9375ZM137.141 58L133.25 50.3945L136.965 50.3711L140.902 57.8359V58H137.141ZM152.398 40.9375H155.902V52.2109C155.902 53.5234 155.621 54.6289 155.059 55.5273C154.504 56.4258 153.734 57.1016 152.75 57.5547C151.773 58.0078 150.648 58.2344 149.375 58.2344C148.102 58.2344 146.969 58.0078 145.977 57.5547C144.992 57.1016 144.219 56.4258 143.656 55.5273C143.102 54.6289 142.824 53.5234 142.824 52.2109V40.9375H146.34V52.2109C146.34 52.9766 146.461 53.6016 146.703 54.0859C146.945 54.5703 147.293 54.9258 147.746 55.1523C148.207 55.3789 148.75 55.4922 149.375 55.4922C150.016 55.4922 150.559 55.3789 151.004 55.1523C151.457 54.9258 151.801 54.5703 152.035 54.0859C152.277 53.6016 152.398 52.9766 152.398 52.2109V40.9375ZM164.035 58H160.32L160.344 55.2578H164.035C164.957 55.2578 165.734 55.0508 166.367 54.6367C167 54.2148 167.477 53.6016 167.797 52.7969C168.125 51.9922 168.289 51.0195 168.289 49.8789V49.0469C168.289 48.1719 168.195 47.4023 168.008 46.7383C167.828 46.0742 167.559 45.5156 167.199 45.0625C166.84 44.6094 166.398 44.2695 165.875 44.043C165.352 43.8086 164.75 43.6914 164.07 43.6914H160.25V40.9375H164.07C165.211 40.9375 166.254 41.1328 167.199 41.5234C168.152 41.9062 168.977 42.457 169.672 43.1758C170.367 43.8945 170.902 44.7539 171.277 45.7539C171.66 46.7461 171.852 47.8516 171.852 49.0703V49.8789C171.852 51.0898 171.66 52.1953 171.277 53.1953C170.902 54.1953 170.367 55.0547 169.672 55.7734C168.984 56.4844 168.16 57.0352 167.199 57.4258C166.246 57.8086 165.191 58 164.035 58ZM162.312 40.9375V58H158.797V40.9375H162.312ZM183.535 58V60.5664H172.895V58H183.535ZM194.984 52.3398H198.488C198.418 53.4883 198.102 54.5078 197.539 55.3984C196.984 56.2891 196.207 56.9844 195.207 57.4844C194.215 57.9844 193.02 58.2344 191.621 58.2344C190.527 58.2344 189.547 58.0469 188.68 57.6719C187.812 57.2891 187.07 56.7422 186.453 56.0312C185.844 55.3203 185.379 54.4609 185.059 53.4531C184.738 52.4453 184.578 51.3164 184.578 50.0664V48.8828C184.578 47.6328 184.742 46.5039 185.07 45.4961C185.406 44.4805 185.883 43.6172 186.5 42.9062C187.125 42.1953 187.871 41.6484 188.738 41.2656C189.605 40.8828 190.574 40.6914 191.645 40.6914C193.066 40.6914 194.266 40.9492 195.242 41.4648C196.227 41.9805 196.988 42.6914 197.527 43.5977C198.074 44.5039 198.402 45.5352 198.512 46.6914H194.996C194.957 46.0039 194.82 45.4219 194.586 44.9453C194.352 44.4609 193.996 44.0977 193.52 43.8555C193.051 43.6055 192.426 43.4805 191.645 43.4805C191.059 43.4805 190.547 43.5898 190.109 43.8086C189.672 44.0273 189.305 44.3594 189.008 44.8047C188.711 45.25 188.488 45.8125 188.34 46.4922C188.199 47.1641 188.129 47.9531 188.129 48.8594V50.0664C188.129 50.9492 188.195 51.7266 188.328 52.3984C188.461 53.0625 188.664 53.625 188.938 54.0859C189.219 54.5391 189.578 54.8828 190.016 55.1172C190.461 55.3438 190.996 55.457 191.621 55.457C192.355 55.457 192.961 55.3398 193.438 55.1055C193.914 54.8711 194.277 54.5234 194.527 54.0625C194.785 53.6016 194.938 53.0273 194.984 52.3398ZM203.879 40V58H200.504V40H203.879ZM203.398 51.2148H202.473C202.48 50.332 202.598 49.5195 202.824 48.7773C203.051 48.0273 203.375 47.3789 203.797 46.832C204.219 46.2773 204.723 45.8477 205.309 45.543C205.902 45.2383 206.559 45.0859 207.277 45.0859C207.902 45.0859 208.469 45.1758 208.977 45.3555C209.492 45.5273 209.934 45.8086 210.301 46.1992C210.676 46.582 210.965 47.0859 211.168 47.7109C211.371 48.3359 211.473 49.0938 211.473 49.9844V58H208.074V49.9609C208.074 49.3984 207.992 48.957 207.828 48.6367C207.672 48.3086 207.441 48.0781 207.137 47.9453C206.84 47.8047 206.473 47.7344 206.035 47.7344C205.551 47.7344 205.137 47.8242 204.793 48.0039C204.457 48.1836 204.188 48.4336 203.984 48.7539C203.781 49.0664 203.633 49.4336 203.539 49.8555C203.445 50.2773 203.398 50.7305 203.398 51.2148ZM220.883 55.1406V49.4922C220.883 49.0859 220.816 48.7383 220.684 48.4492C220.551 48.1523 220.344 47.9219 220.062 47.7578C219.789 47.5938 219.434 47.5117 218.996 47.5117C218.621 47.5117 218.297 47.5781 218.023 47.7109C217.75 47.8359 217.539 48.0195 217.391 48.2617C217.242 48.4961 217.168 48.7734 217.168 49.0938H213.793C213.793 48.5547 213.918 48.043 214.168 47.5586C214.418 47.0742 214.781 46.6484 215.258 46.2812C215.734 45.9062 216.301 45.6133 216.957 45.4023C217.621 45.1914 218.363 45.0859 219.184 45.0859C220.168 45.0859 221.043 45.25 221.809 45.5781C222.574 45.9062 223.176 46.3984 223.613 47.0547C224.059 47.7109 224.281 48.5312 224.281 49.5156V54.9414C224.281 55.6367 224.324 56.207 224.41 56.6523C224.496 57.0898 224.621 57.4727 224.785 57.8008V58H221.375C221.211 57.6562 221.086 57.2266 221 56.7109C220.922 56.1875 220.883 55.6641 220.883 55.1406ZM221.328 50.2773L221.352 52.1875H219.465C219.02 52.1875 218.633 52.2383 218.305 52.3398C217.977 52.4414 217.707 52.5859 217.496 52.7734C217.285 52.9531 217.129 53.1641 217.027 53.4062C216.934 53.6484 216.887 53.9141 216.887 54.2031C216.887 54.4922 216.953 54.7539 217.086 54.9883C217.219 55.2148 217.41 55.3945 217.66 55.5273C217.91 55.6523 218.203 55.7148 218.539 55.7148C219.047 55.7148 219.488 55.6133 219.863 55.4102C220.238 55.207 220.527 54.957 220.73 54.6602C220.941 54.3633 221.051 54.082 221.059 53.8164L221.949 55.2461C221.824 55.5664 221.652 55.8984 221.434 56.2422C221.223 56.5859 220.953 56.9102 220.625 57.2148C220.297 57.5117 219.902 57.7578 219.441 57.9531C218.98 58.1406 218.434 58.2344 217.801 58.2344C216.996 58.2344 216.266 58.0742 215.609 57.7539C214.961 57.4258 214.445 56.9766 214.062 56.4062C213.688 55.8281 213.5 55.1719 213.5 54.4375C213.5 53.7734 213.625 53.1836 213.875 52.668C214.125 52.1523 214.492 51.7188 214.977 51.3672C215.469 51.0078 216.082 50.7383 216.816 50.5586C217.551 50.3711 218.402 50.2773 219.371 50.2773H221.328ZM230.445 40V58H227.059V40H230.445ZM236.797 40V58H233.41V40H236.797ZM245.422 58.2344C244.438 58.2344 243.555 58.0781 242.773 57.7656C241.992 57.4453 241.328 57.0039 240.781 56.4414C240.242 55.8789 239.828 55.2266 239.539 54.4844C239.25 53.7344 239.105 52.9375 239.105 52.0938V51.625C239.105 50.6641 239.242 49.7852 239.516 48.9883C239.789 48.1914 240.18 47.5 240.688 46.9141C241.203 46.3281 241.828 45.8789 242.562 45.5664C243.297 45.2461 244.125 45.0859 245.047 45.0859C245.945 45.0859 246.742 45.2344 247.438 45.5312C248.133 45.8281 248.715 46.25 249.184 46.7969C249.66 47.3438 250.02 48 250.262 48.7656C250.504 49.5234 250.625 50.3672 250.625 51.2969V52.7031H240.547V50.4531H247.309V50.1953C247.309 49.7266 247.223 49.3086 247.051 48.9414C246.887 48.5664 246.637 48.2695 246.301 48.0508C245.965 47.832 245.535 47.7227 245.012 47.7227C244.566 47.7227 244.184 47.8203 243.863 48.0156C243.543 48.2109 243.281 48.4844 243.078 48.8359C242.883 49.1875 242.734 49.6016 242.633 50.0781C242.539 50.5469 242.492 51.0625 242.492 51.625V52.0938C242.492 52.6016 242.562 53.0703 242.703 53.5C242.852 53.9297 243.059 54.3008 243.324 54.6133C243.598 54.9258 243.926 55.168 244.309 55.3398C244.699 55.5117 245.141 55.5977 245.633 55.5977C246.242 55.5977 246.809 55.4805 247.332 55.2461C247.863 55.0039 248.32 54.6406 248.703 54.1562L250.344 55.9375C250.078 56.3203 249.715 56.6875 249.254 57.0391C248.801 57.3906 248.254 57.6797 247.613 57.9062C246.973 58.125 246.242 58.2344 245.422 58.2344ZM255.852 48.0273V58H252.477V45.3203H255.641L255.852 48.0273ZM255.359 51.2148H254.445C254.445 50.2773 254.566 49.4336 254.809 48.6836C255.051 47.9258 255.391 47.2812 255.828 46.75C256.266 46.2109 256.785 45.8008 257.387 45.5195C257.996 45.2305 258.676 45.0859 259.426 45.0859C260.02 45.0859 260.562 45.1719 261.055 45.3438C261.547 45.5156 261.969 45.7891 262.32 46.1641C262.68 46.5391 262.953 47.0352 263.141 47.6523C263.336 48.2695 263.434 49.0234 263.434 49.9141V58H260.035V49.9023C260.035 49.3398 259.957 48.9023 259.801 48.5898C259.645 48.2773 259.414 48.0586 259.109 47.9336C258.812 47.8008 258.445 47.7344 258.008 47.7344C257.555 47.7344 257.16 47.8242 256.824 48.0039C256.496 48.1836 256.223 48.4336 256.004 48.7539C255.793 49.0664 255.633 49.4336 255.523 49.8555C255.414 50.2773 255.359 50.7305 255.359 51.2148ZM274.027 45.3203H277.086V57.5781C277.086 58.7344 276.828 59.7148 276.312 60.5195C275.805 61.332 275.094 61.9453 274.18 62.3594C273.266 62.7812 272.203 62.9922 270.992 62.9922C270.461 62.9922 269.898 62.9219 269.305 62.7812C268.719 62.6406 268.156 62.4219 267.617 62.125C267.086 61.8281 266.641 61.4531 266.281 61L267.77 59.0078C268.16 59.4609 268.613 59.8125 269.129 60.0625C269.645 60.3203 270.215 60.4492 270.84 60.4492C271.449 60.4492 271.965 60.3359 272.387 60.1094C272.809 59.8906 273.133 59.5664 273.359 59.1367C273.586 58.7148 273.699 58.2031 273.699 57.6016V48.25L274.027 45.3203ZM265.496 51.8125V51.5664C265.496 50.5977 265.613 49.7188 265.848 48.9297C266.09 48.1328 266.43 47.4492 266.867 46.8789C267.312 46.3086 267.852 45.8672 268.484 45.5547C269.117 45.2422 269.832 45.0859 270.629 45.0859C271.473 45.0859 272.18 45.2422 272.75 45.5547C273.32 45.8672 273.789 46.3125 274.156 46.8906C274.523 47.4609 274.809 48.1367 275.012 48.918C275.223 49.6914 275.387 50.5391 275.504 51.4609V52C275.387 52.8828 275.211 53.7031 274.977 54.4609C274.742 55.2188 274.434 55.8828 274.051 56.4531C273.668 57.0156 273.191 57.4531 272.621 57.7656C272.059 58.0781 271.387 58.2344 270.605 58.2344C269.824 58.2344 269.117 58.0742 268.484 57.7539C267.859 57.4336 267.324 56.9844 266.879 56.4062C266.434 55.8281 266.09 55.1484 265.848 54.3672C265.613 53.5859 265.496 52.7344 265.496 51.8125ZM268.871 51.5664V51.8125C268.871 52.3359 268.922 52.8242 269.023 53.2773C269.125 53.7305 269.281 54.1328 269.492 54.4844C269.711 54.8281 269.98 55.0977 270.301 55.293C270.629 55.4805 271.016 55.5742 271.461 55.5742C272.078 55.5742 272.582 55.4453 272.973 55.1875C273.363 54.9219 273.656 54.5586 273.852 54.0977C274.047 53.6367 274.16 53.1055 274.191 52.5039V50.9688C274.176 50.4766 274.109 50.0352 273.992 49.6445C273.875 49.2461 273.711 48.9062 273.5 48.625C273.289 48.3438 273.016 48.125 272.68 47.9688C272.344 47.8125 271.945 47.7344 271.484 47.7344C271.039 47.7344 270.652 47.8359 270.324 48.0391C270.004 48.2344 269.734 48.5039 269.516 48.8477C269.305 49.1914 269.145 49.5977 269.035 50.0664C268.926 50.5273 268.871 51.0273 268.871 51.5664ZM285.547 58.2344C284.562 58.2344 283.68 58.0781 282.898 57.7656C282.117 57.4453 281.453 57.0039 280.906 56.4414C280.367 55.8789 279.953 55.2266 279.664 54.4844C279.375 53.7344 279.23 52.9375 279.23 52.0938V51.625C279.23 50.6641 279.367 49.7852 279.641 48.9883C279.914 48.1914 280.305 47.5 280.812 46.9141C281.328 46.3281 281.953 45.8789 282.688 45.5664C283.422 45.2461 284.25 45.0859 285.172 45.0859C286.07 45.0859 286.867 45.2344 287.562 45.5312C288.258 45.8281 288.84 46.25 289.309 46.7969C289.785 47.3438 290.145 48 290.387 48.7656C290.629 49.5234 290.75 50.3672 290.75 51.2969V52.7031H280.672V50.4531H287.434V50.1953C287.434 49.7266 287.348 49.3086 287.176 48.9414C287.012 48.5664 286.762 48.2695 286.426 48.0508C286.09 47.832 285.66 47.7227 285.137 47.7227C284.691 47.7227 284.309 47.8203 283.988 48.0156C283.668 48.2109 283.406 48.4844 283.203 48.8359C283.008 49.1875 282.859 49.6016 282.758 50.0781C282.664 50.5469 282.617 51.0625 282.617 51.625V52.0938C282.617 52.6016 282.688 53.0703 282.828 53.5C282.977 53.9297 283.184 54.3008 283.449 54.6133C283.723 54.9258 284.051 55.168 284.434 55.3398C284.824 55.5117 285.266 55.5977 285.758 55.5977C286.367 55.5977 286.934 55.4805 287.457 55.2461C287.988 55.0039 288.445 54.6406 288.828 54.1562L290.469 55.9375C290.203 56.3203 289.84 56.6875 289.379 57.0391C288.926 57.3906 288.379 57.6797 287.738 57.9062C287.098 58.125 286.367 58.2344 285.547 58.2344Z" fill="#888888"/>
<path d="M102.635 86.0078V118H94.9443V86.0078H102.635ZM115.181 99.2573V118H107.776V94.2256H114.72L115.181 99.2573ZM114.28 105.3L112.588 105.344C112.588 103.674 112.786 102.136 113.182 100.729C113.577 99.3232 114.163 98.1001 114.939 97.0601C115.716 96.02 116.668 95.2144 117.796 94.6431C118.938 94.0718 120.257 93.7861 121.751 93.7861C122.791 93.7861 123.736 93.9473 124.585 94.2695C125.435 94.5771 126.167 95.0679 126.783 95.7417C127.398 96.4009 127.867 97.2651 128.189 98.3345C128.526 99.3892 128.694 100.656 128.694 102.136V118H121.29V103.081C121.29 102.07 121.172 101.308 120.938 100.795C120.718 100.283 120.396 99.9385 119.971 99.7627C119.546 99.5869 119.026 99.499 118.411 99.499C117.767 99.499 117.188 99.6455 116.675 99.9385C116.163 100.231 115.723 100.642 115.357 101.169C115.005 101.682 114.734 102.29 114.544 102.993C114.368 103.696 114.28 104.465 114.28 105.3ZM127.859 105.3L125.794 105.344C125.794 103.674 125.977 102.136 126.343 100.729C126.724 99.3232 127.288 98.1001 128.035 97.0601C128.797 96.02 129.742 95.2144 130.87 94.6431C131.998 94.0718 133.309 93.7861 134.803 93.7861C135.887 93.7861 136.883 93.9473 137.791 94.2695C138.699 94.5918 139.483 95.1118 140.142 95.8296C140.801 96.5474 141.314 97.4995 141.68 98.686C142.046 99.8579 142.229 101.308 142.229 103.037V118H134.803V103.037C134.803 102.055 134.686 101.315 134.451 100.817C134.231 100.305 133.909 99.9604 133.484 99.7847C133.06 99.5942 132.554 99.499 131.968 99.499C131.265 99.499 130.657 99.6455 130.145 99.9385C129.632 100.231 129.2 100.642 128.848 101.169C128.511 101.682 128.262 102.29 128.101 102.993C127.94 103.696 127.859 104.465 127.859 105.3ZM153.941 98.7959V127.141H146.536V94.2256H153.436L153.941 98.7959ZM168.531 105.827V106.289C168.531 108.017 168.333 109.621 167.938 111.101C167.542 112.58 166.956 113.869 166.18 114.968C165.403 116.066 164.437 116.923 163.279 117.539C162.137 118.139 160.811 118.439 159.302 118.439C157.881 118.439 156.658 118.125 155.633 117.495C154.607 116.865 153.75 115.993 153.062 114.88C152.374 113.767 151.817 112.492 151.392 111.057C150.967 109.621 150.63 108.105 150.381 106.508V105.915C150.63 104.201 150.967 102.612 151.392 101.147C151.817 99.6675 152.374 98.3784 153.062 97.2798C153.75 96.1812 154.6 95.3242 155.611 94.709C156.636 94.0938 157.859 93.7861 159.28 93.7861C160.789 93.7861 162.115 94.0718 163.257 94.6431C164.415 95.2144 165.381 96.0347 166.158 97.104C166.949 98.1587 167.542 99.4258 167.938 100.905C168.333 102.385 168.531 104.025 168.531 105.827ZM161.126 106.289V105.827C161.126 104.904 161.06 104.062 160.928 103.3C160.796 102.524 160.584 101.85 160.291 101.279C160.013 100.708 159.639 100.268 159.17 99.9604C158.702 99.6528 158.123 99.499 157.435 99.499C156.644 99.499 155.977 99.6235 155.435 99.8726C154.908 100.107 154.483 100.473 154.161 100.971C153.853 101.455 153.633 102.062 153.501 102.795C153.384 103.513 153.333 104.355 153.348 105.322V107.124C153.318 108.237 153.428 109.218 153.677 110.068C153.926 110.903 154.358 111.555 154.974 112.023C155.589 112.492 156.424 112.727 157.479 112.727C158.182 112.727 158.768 112.565 159.236 112.243C159.705 111.906 160.079 111.445 160.357 110.859C160.635 110.258 160.833 109.57 160.95 108.793C161.067 108.017 161.126 107.182 161.126 106.289ZM179.649 84.25V118H172.222V84.25H179.649ZM195.733 118.439C193.799 118.439 192.071 118.139 190.547 117.539C189.024 116.923 187.735 116.081 186.68 115.012C185.64 113.942 184.842 112.712 184.285 111.32C183.743 109.929 183.472 108.457 183.472 106.904V106.069C183.472 104.326 183.714 102.714 184.197 101.235C184.681 99.7407 185.398 98.437 186.351 97.3237C187.303 96.2104 188.497 95.3462 189.932 94.731C191.368 94.1011 193.038 93.7861 194.942 93.7861C196.626 93.7861 198.135 94.0571 199.468 94.5991C200.801 95.1411 201.929 95.9175 202.852 96.9282C203.79 97.939 204.5 99.1621 204.983 100.598C205.481 102.033 205.73 103.645 205.73 105.432V108.442H186.307V103.806H198.501V103.234C198.516 102.443 198.377 101.77 198.084 101.213C197.806 100.656 197.396 100.231 196.854 99.9385C196.312 99.6455 195.652 99.499 194.876 99.499C194.07 99.499 193.404 99.6748 192.876 100.026C192.364 100.378 191.961 100.861 191.668 101.477C191.39 102.077 191.192 102.773 191.075 103.564C190.958 104.355 190.899 105.19 190.899 106.069V106.904C190.899 107.783 191.016 108.581 191.25 109.299C191.5 110.017 191.851 110.632 192.305 111.145C192.774 111.643 193.331 112.031 193.975 112.309C194.634 112.587 195.381 112.727 196.216 112.727C197.227 112.727 198.223 112.536 199.205 112.155C200.186 111.774 201.028 111.145 201.731 110.266L205.093 114.265C204.61 114.953 203.921 115.62 203.028 116.264C202.149 116.909 201.094 117.436 199.864 117.846C198.633 118.242 197.256 118.439 195.733 118.439ZM216.211 99.2573V118H208.807V94.2256H215.75L216.211 99.2573ZM215.311 105.3L213.619 105.344C213.619 103.674 213.816 102.136 214.212 100.729C214.607 99.3232 215.193 98.1001 215.97 97.0601C216.746 96.02 217.698 95.2144 218.826 94.6431C219.969 94.0718 221.287 93.7861 222.781 93.7861C223.821 93.7861 224.766 93.9473 225.616 94.2695C226.465 94.5771 227.198 95.0679 227.813 95.7417C228.428 96.4009 228.897 97.2651 229.219 98.3345C229.556 99.3892 229.725 100.656 229.725 102.136V118H222.32V103.081C222.32 102.07 222.203 101.308 221.968 100.795C221.749 100.283 221.426 99.9385 221.001 99.7627C220.577 99.5869 220.057 99.499 219.441 99.499C218.797 99.499 218.218 99.6455 217.706 99.9385C217.193 100.231 216.753 100.642 216.387 101.169C216.036 101.682 215.765 102.29 215.574 102.993C215.398 103.696 215.311 104.465 215.311 105.3ZM228.89 105.3L226.824 105.344C226.824 103.674 227.007 102.136 227.374 100.729C227.754 99.3232 228.318 98.1001 229.065 97.0601C229.827 96.02 230.772 95.2144 231.9 94.6431C233.028 94.0718 234.339 93.7861 235.833 93.7861C236.917 93.7861 237.913 93.9473 238.821 94.2695C239.729 94.5918 240.513 95.1118 241.172 95.8296C241.832 96.5474 242.344 97.4995 242.71 98.686C243.077 99.8579 243.26 101.308 243.26 103.037V118H235.833V103.037C235.833 102.055 235.716 101.315 235.481 100.817C235.262 100.305 234.939 99.9604 234.515 99.7847C234.09 99.5942 233.584 99.499 232.999 99.499C232.295 99.499 231.688 99.6455 231.175 99.9385C230.662 100.231 230.23 100.642 229.878 101.169C229.542 101.682 229.292 102.29 229.131 102.993C228.97 103.696 228.89 104.465 228.89 105.3ZM259.014 118.439C257.081 118.439 255.352 118.139 253.829 117.539C252.305 116.923 251.016 116.081 249.961 115.012C248.921 113.942 248.123 112.712 247.566 111.32C247.024 109.929 246.753 108.457 246.753 106.904V106.069C246.753 104.326 246.995 102.714 247.479 101.235C247.962 99.7407 248.68 98.437 249.632 97.3237C250.584 96.2104 251.778 95.3462 253.213 94.731C254.649 94.1011 256.319 93.7861 258.223 93.7861C259.908 93.7861 261.417 94.0571 262.75 94.5991C264.083 95.1411 265.21 95.9175 266.133 96.9282C267.071 97.939 267.781 99.1621 268.265 100.598C268.763 102.033 269.012 103.645 269.012 105.432V108.442H249.588V103.806H261.783V103.234C261.797 102.443 261.658 101.77 261.365 101.213C261.087 100.656 260.677 100.231 260.135 99.9385C259.593 99.6455 258.934 99.499 258.157 99.499C257.352 99.499 256.685 99.6748 256.158 100.026C255.645 100.378 255.242 100.861 254.949 101.477C254.671 102.077 254.473 102.773 254.356 103.564C254.239 104.355 254.18 105.19 254.18 106.069V106.904C254.18 107.783 254.297 108.581 254.532 109.299C254.781 110.017 255.132 110.632 255.586 111.145C256.055 111.643 256.612 112.031 257.256 112.309C257.916 112.587 258.663 112.727 259.498 112.727C260.508 112.727 261.504 112.536 262.486 112.155C263.467 111.774 264.31 111.145 265.013 110.266L268.375 114.265C267.891 114.953 267.203 115.62 266.309 116.264C265.43 116.909 264.375 117.436 263.145 117.846C261.915 118.242 260.538 118.439 259.014 118.439ZM279.295 99.3013V118H271.89V94.2256H278.833L279.295 99.3013ZM278.416 105.3L276.68 105.344C276.68 103.527 276.9 101.909 277.339 100.488C277.779 99.0522 278.401 97.8364 279.207 96.8403C280.013 95.8442 280.972 95.0898 282.085 94.5771C283.213 94.0498 284.466 93.7861 285.843 93.7861C286.941 93.7861 287.945 93.9473 288.853 94.2695C289.776 94.5918 290.567 95.1118 291.226 95.8296C291.9 96.5474 292.413 97.4995 292.764 98.686C293.13 99.8579 293.313 101.308 293.313 103.037V118H285.865V103.015C285.865 102.062 285.733 101.337 285.469 100.839C285.206 100.327 284.825 99.9751 284.327 99.7847C283.829 99.5942 283.221 99.499 282.503 99.499C281.741 99.499 281.097 99.6455 280.569 99.9385C280.042 100.231 279.617 100.642 279.295 101.169C278.987 101.682 278.76 102.29 278.614 102.993C278.482 103.696 278.416 104.465 278.416 105.3ZM309.947 94.2256V99.3672H295.621V94.2256H309.947ZM298.631 88.3149H306.036V110.244C306.036 110.874 306.109 111.364 306.255 111.716C306.402 112.053 306.651 112.294 307.002 112.441C307.369 112.573 307.852 112.639 308.453 112.639C308.877 112.639 309.229 112.631 309.507 112.617C309.786 112.587 310.049 112.551 310.298 112.507V117.802C309.668 118.007 309.009 118.161 308.321 118.264C307.632 118.381 306.9 118.439 306.124 118.439C304.542 118.439 303.187 118.19 302.059 117.692C300.945 117.194 300.096 116.411 299.51 115.341C298.924 114.272 298.631 112.88 298.631 111.167V88.3149ZM325.24 112.023V102.224C325.24 101.55 325.145 100.971 324.954 100.488C324.764 100.004 324.463 99.6309 324.053 99.3672C323.643 99.0889 323.094 98.9497 322.405 98.9497C321.849 98.9497 321.373 99.0449 320.977 99.2354C320.582 99.4258 320.281 99.7114 320.076 100.092C319.871 100.473 319.769 100.957 319.769 101.542H312.364C312.364 100.444 312.605 99.4258 313.089 98.4883C313.587 97.5361 314.29 96.7085 315.198 96.0054C316.121 95.3022 317.22 94.7603 318.494 94.3794C319.783 93.9839 321.219 93.7861 322.801 93.7861C324.69 93.7861 326.375 94.1011 327.854 94.731C329.349 95.3608 330.528 96.3057 331.392 97.5654C332.256 98.8105 332.688 100.378 332.688 102.268V112.001C332.688 113.554 332.776 114.733 332.952 115.539C333.128 116.33 333.377 117.026 333.699 117.626V118H326.272C325.921 117.268 325.657 116.374 325.481 115.319C325.32 114.25 325.24 113.151 325.24 112.023ZM326.141 103.476L326.185 107.431H322.911C322.222 107.431 321.636 107.526 321.153 107.717C320.684 107.907 320.303 108.171 320.01 108.508C319.732 108.83 319.527 109.196 319.395 109.606C319.278 110.017 319.219 110.449 319.219 110.903C319.219 111.342 319.322 111.738 319.527 112.089C319.747 112.426 320.04 112.69 320.406 112.88C320.772 113.071 321.182 113.166 321.636 113.166C322.457 113.166 323.152 113.012 323.724 112.705C324.31 112.382 324.756 111.994 325.064 111.54C325.372 111.086 325.525 110.661 325.525 110.266L327.151 113.298C326.858 113.884 326.521 114.477 326.141 115.078C325.774 115.678 325.313 116.235 324.756 116.748C324.214 117.246 323.548 117.656 322.757 117.978C321.966 118.286 321.006 118.439 319.878 118.439C318.414 118.439 317.066 118.139 315.835 117.539C314.62 116.938 313.646 116.103 312.913 115.034C312.181 113.95 311.814 112.705 311.814 111.298C311.814 110.068 312.034 108.969 312.474 108.002C312.928 107.036 313.609 106.215 314.517 105.542C315.425 104.868 316.583 104.355 317.989 104.003C319.395 103.652 321.05 103.476 322.955 103.476H326.141ZM349.322 94.2256V99.3672H334.996V94.2256H349.322ZM338.006 88.3149H345.411V110.244C345.411 110.874 345.484 111.364 345.63 111.716C345.777 112.053 346.026 112.294 346.377 112.441C346.744 112.573 347.227 112.639 347.828 112.639C348.252 112.639 348.604 112.631 348.882 112.617C349.161 112.587 349.424 112.551 349.673 112.507V117.802C349.043 118.007 348.384 118.161 347.696 118.264C347.007 118.381 346.275 118.439 345.499 118.439C343.917 118.439 342.562 118.19 341.434 117.692C340.32 117.194 339.471 116.411 338.885 115.341C338.299 114.272 338.006 112.88 338.006 111.167V88.3149ZM360.088 94.2256V118H352.662V94.2256H360.088ZM352.222 88.0952C352.222 87.0405 352.603 86.1763 353.365 85.5024C354.126 84.8286 355.115 84.4917 356.331 84.4917C357.547 84.4917 358.536 84.8286 359.297 85.5024C360.059 86.1763 360.44 87.0405 360.44 88.0952C360.44 89.1499 360.059 90.0142 359.297 90.688C358.536 91.3618 357.547 91.6987 356.331 91.6987C355.115 91.6987 354.126 91.3618 353.365 90.688C352.603 90.0142 352.222 89.1499 352.222 88.0952ZM363.736 106.354V105.893C363.736 104.15 363.985 102.546 364.483 101.081C364.981 99.6016 365.713 98.3198 366.68 97.2358C367.647 96.1519 368.841 95.3096 370.262 94.709C371.683 94.0938 373.323 93.7861 375.184 93.7861C377.059 93.7861 378.707 94.0938 380.127 94.709C381.563 95.3096 382.764 96.1519 383.731 97.2358C384.698 98.3198 385.43 99.6016 385.928 101.081C386.426 102.546 386.675 104.15 386.675 105.893V106.354C386.675 108.083 386.426 109.687 385.928 111.167C385.43 112.631 384.698 113.913 383.731 115.012C382.764 116.096 381.57 116.938 380.149 117.539C378.729 118.139 377.088 118.439 375.228 118.439C373.367 118.439 371.719 118.139 370.284 117.539C368.848 116.938 367.647 116.096 366.68 115.012C365.713 113.913 364.981 112.631 364.483 111.167C363.985 109.687 363.736 108.083 363.736 106.354ZM371.141 105.893V106.354C371.141 107.248 371.207 108.083 371.338 108.859C371.47 109.636 371.69 110.317 371.998 110.903C372.305 111.474 372.723 111.921 373.25 112.243C373.777 112.565 374.437 112.727 375.228 112.727C376.004 112.727 376.648 112.565 377.161 112.243C377.688 111.921 378.106 111.474 378.414 110.903C378.721 110.317 378.941 109.636 379.073 108.859C379.205 108.083 379.271 107.248 379.271 106.354V105.893C379.271 105.029 379.205 104.216 379.073 103.454C378.941 102.678 378.721 101.997 378.414 101.411C378.106 100.81 377.688 100.341 377.161 100.004C376.634 99.6675 375.975 99.499 375.184 99.499C374.407 99.499 373.755 99.6675 373.228 100.004C372.715 100.341 372.305 100.81 371.998 101.411C371.69 101.997 371.47 102.678 371.338 103.454C371.207 104.216 371.141 105.029 371.141 105.893ZM397.244 99.3013V118H389.839V94.2256H396.783L397.244 99.3013ZM396.365 105.3L394.629 105.344C394.629 103.527 394.849 101.909 395.289 100.488C395.728 99.0522 396.351 97.8364 397.156 96.8403C397.962 95.8442 398.921 95.0898 400.035 94.5771C401.163 94.0498 402.415 93.7861 403.792 93.7861C404.891 93.7861 405.894 93.9473 406.802 94.2695C407.725 94.5918 408.516 95.1118 409.175 95.8296C409.849 96.5474 410.362 97.4995 410.713 98.686C411.08 99.8579 411.263 101.308 411.263 103.037V118H403.814V103.015C403.814 102.062 403.682 101.337 403.418 100.839C403.155 100.327 402.774 99.9751 402.276 99.7847C401.778 99.5942 401.17 99.499 400.452 99.499C399.69 99.499 399.046 99.6455 398.519 99.9385C397.991 100.231 397.566 100.642 397.244 101.169C396.937 101.682 396.709 102.29 396.563 102.993C396.431 103.696 396.365 104.465 396.365 105.3Z" fill="#424241"/>
<path d="M1363 15C1363 6.71573 1356.28 0 1348 0H1134V167H1348C1356.28 167 1363 160.284 1363 152V15Z" fill="#5F96EC"/>
<path d="M1281.5 49H1216.5L1214 51.5V116.5L1216.5 119H1281.5L1284 116.5V51.5L1281.5 49ZM1279 114H1234V104H1245.5C1247 107 1250.5 109 1254 109C1259.5 109 1264 104.5 1264 99C1264 93.5 1259.5 89 1254 89C1248.5 89 1244 93.5 1244 99H1229V114H1219V54H1229V65.5C1226 67 1224 70.5 1224 74C1224 79.5 1228.5 84 1234 84C1239.5 84 1244 79.5 1244 74H1254C1254 79.5 1258.5 84 1264 84C1269.5 84 1274 79.5 1274 74C1274 68.5 1269.5 64 1264 64C1260.5 64 1257 66 1255.5 69H1242.5C1241 66 1237.5 64 1234 64V54H1279V114ZM1249 99C1249 96 1251 94 1254 94C1257 94 1259 96 1259 99C1259 102 1257 104 1254 104C1251 104 1249 102 1249 99ZM1234 69C1237 69 1239 71 1239 74C1239 77 1237 79 1234 79C1231 79 1229 77 1229 74C1229 71 1231 69 1234 69ZM1264 69C1267 69 1269 71 1269 74C1269 77 1267 79 1264 79C1261 79 1259 77 1259 74C1259 71 1261 69 1264 69Z" fill="white"/>
</svg>
