<svg width="1363" height="167" viewBox="0 0 1363 167" fill="none" xmlns="http://www.w3.org/2000/svg">
<rect width="1363" height="167" rx="15" fill="#F0F0F0"/>
<path d="M0 15C0 6.71573 6.71573 0 15 0H37V167H15C6.71573 167 0 160.284 0 152V15Z" fill="#424241"/>
<path d="M100.906 50.9219L93.3945 48.2383V45.0859L103.602 49.375V51.6367L100.906 50.9219ZM93.3945 53.1719L100.918 50.4297L103.602 49.7852V52.0352L93.3945 56.3242V53.1719ZM121.789 52.3398H125.293C125.223 53.4883 124.906 54.5078 124.344 55.3984C123.789 56.2891 123.012 56.9844 122.012 57.4844C121.02 57.9844 119.824 58.2344 118.426 58.2344C117.332 58.2344 116.352 58.0469 115.484 57.6719C114.617 57.2891 113.875 56.7422 113.258 56.0312C112.648 55.3203 112.184 54.4609 111.863 53.4531C111.543 52.4453 111.383 51.3164 111.383 50.0664V48.8828C111.383 47.6328 111.547 46.5039 111.875 45.4961C112.211 44.4805 112.688 43.6172 113.305 42.9062C113.93 42.1953 114.676 41.6484 115.543 41.2656C116.41 40.8828 117.379 40.6914 118.449 40.6914C119.871 40.6914 121.07 40.9492 122.047 41.4648C123.031 41.9805 123.793 42.6914 124.332 43.5977C124.879 44.5039 125.207 45.5352 125.316 46.6914H121.801C121.762 46.0039 121.625 45.4219 121.391 44.9453C121.156 44.4609 120.801 44.0977 120.324 43.8555C119.855 43.6055 119.23 43.4805 118.449 43.4805C117.863 43.4805 117.352 43.5898 116.914 43.8086C116.477 44.0273 116.109 44.3594 115.812 44.8047C115.516 45.25 115.293 45.8125 115.145 46.4922C115.004 47.1641 114.934 47.9531 114.934 48.8594V50.0664C114.934 50.9492 115 51.7266 115.133 52.3984C115.266 53.0625 115.469 53.625 115.742 54.0859C116.023 54.5391 116.383 54.8828 116.82 55.1172C117.266 55.3438 117.801 55.457 118.426 55.457C119.16 55.457 119.766 55.3398 120.242 55.1055C120.719 54.8711 121.082 54.5234 121.332 54.0625C121.59 53.6016 121.742 53.0273 121.789 52.3398ZM127.602 40.9375H133.965C135.27 40.9375 136.391 41.1328 137.328 41.5234C138.273 41.9141 139 42.4922 139.508 43.2578C140.016 44.0234 140.27 44.9648 140.27 46.082C140.27 46.9961 140.113 47.7812 139.801 48.4375C139.496 49.0859 139.062 49.6289 138.5 50.0664C137.945 50.4961 137.293 50.8398 136.543 51.0977L135.43 51.6836H129.898L129.875 48.9414H133.988C134.605 48.9414 135.117 48.832 135.523 48.6133C135.93 48.3945 136.234 48.0898 136.438 47.6992C136.648 47.3086 136.754 46.8555 136.754 46.3398C136.754 45.793 136.652 45.3203 136.449 44.9219C136.246 44.5234 135.938 44.2188 135.523 44.0078C135.109 43.7969 134.59 43.6914 133.965 43.6914H131.117V58H127.602V40.9375ZM137.141 58L133.25 50.3945L136.965 50.3711L140.902 57.8359V58H137.141ZM152.398 40.9375H155.902V52.2109C155.902 53.5234 155.621 54.6289 155.059 55.5273C154.504 56.4258 153.734 57.1016 152.75 57.5547C151.773 58.0078 150.648 58.2344 149.375 58.2344C148.102 58.2344 146.969 58.0078 145.977 57.5547C144.992 57.1016 144.219 56.4258 143.656 55.5273C143.102 54.6289 142.824 53.5234 142.824 52.2109V40.9375H146.34V52.2109C146.34 52.9766 146.461 53.6016 146.703 54.0859C146.945 54.5703 147.293 54.9258 147.746 55.1523C148.207 55.3789 148.75 55.4922 149.375 55.4922C150.016 55.4922 150.559 55.3789 151.004 55.1523C151.457 54.9258 151.801 54.5703 152.035 54.0859C152.277 53.6016 152.398 52.9766 152.398 52.2109V40.9375ZM164.035 58H160.32L160.344 55.2578H164.035C164.957 55.2578 165.734 55.0508 166.367 54.6367C167 54.2148 167.477 53.6016 167.797 52.7969C168.125 51.9922 168.289 51.0195 168.289 49.8789V49.0469C168.289 48.1719 168.195 47.4023 168.008 46.7383C167.828 46.0742 167.559 45.5156 167.199 45.0625C166.84 44.6094 166.398 44.2695 165.875 44.043C165.352 43.8086 164.75 43.6914 164.07 43.6914H160.25V40.9375H164.07C165.211 40.9375 166.254 41.1328 167.199 41.5234C168.152 41.9062 168.977 42.457 169.672 43.1758C170.367 43.8945 170.902 44.7539 171.277 45.7539C171.66 46.7461 171.852 47.8516 171.852 49.0703V49.8789C171.852 51.0898 171.66 52.1953 171.277 53.1953C170.902 54.1953 170.367 55.0547 169.672 55.7734C168.984 56.4844 168.16 57.0352 167.199 57.4258C166.246 57.8086 165.191 58 164.035 58ZM162.312 40.9375V58H158.797V40.9375H162.312ZM183.535 58V60.5664H172.895V58H183.535ZM194.984 52.3398H198.488C198.418 53.4883 198.102 54.5078 197.539 55.3984C196.984 56.2891 196.207 56.9844 195.207 57.4844C194.215 57.9844 193.02 58.2344 191.621 58.2344C190.527 58.2344 189.547 58.0469 188.68 57.6719C187.812 57.2891 187.07 56.7422 186.453 56.0312C185.844 55.3203 185.379 54.4609 185.059 53.4531C184.738 52.4453 184.578 51.3164 184.578 50.0664V48.8828C184.578 47.6328 184.742 46.5039 185.07 45.4961C185.406 44.4805 185.883 43.6172 186.5 42.9062C187.125 42.1953 187.871 41.6484 188.738 41.2656C189.605 40.8828 190.574 40.6914 191.645 40.6914C193.066 40.6914 194.266 40.9492 195.242 41.4648C196.227 41.9805 196.988 42.6914 197.527 43.5977C198.074 44.5039 198.402 45.5352 198.512 46.6914H194.996C194.957 46.0039 194.82 45.4219 194.586 44.9453C194.352 44.4609 193.996 44.0977 193.52 43.8555C193.051 43.6055 192.426 43.4805 191.645 43.4805C191.059 43.4805 190.547 43.5898 190.109 43.8086C189.672 44.0273 189.305 44.3594 189.008 44.8047C188.711 45.25 188.488 45.8125 188.34 46.4922C188.199 47.1641 188.129 47.9531 188.129 48.8594V50.0664C188.129 50.9492 188.195 51.7266 188.328 52.3984C188.461 53.0625 188.664 53.625 188.938 54.0859C189.219 54.5391 189.578 54.8828 190.016 55.1172C190.461 55.3438 190.996 55.457 191.621 55.457C192.355 55.457 192.961 55.3398 193.438 55.1055C193.914 54.8711 194.277 54.5234 194.527 54.0625C194.785 53.6016 194.938 53.0273 194.984 52.3398ZM203.879 40V58H200.504V40H203.879ZM203.398 51.2148H202.473C202.48 50.332 202.598 49.5195 202.824 48.7773C203.051 48.0273 203.375 47.3789 203.797 46.832C204.219 46.2773 204.723 45.8477 205.309 45.543C205.902 45.2383 206.559 45.0859 207.277 45.0859C207.902 45.0859 208.469 45.1758 208.977 45.3555C209.492 45.5273 209.934 45.8086 210.301 46.1992C210.676 46.582 210.965 47.0859 211.168 47.7109C211.371 48.3359 211.473 49.0938 211.473 49.9844V58H208.074V49.9609C208.074 49.3984 207.992 48.957 207.828 48.6367C207.672 48.3086 207.441 48.0781 207.137 47.9453C206.84 47.8047 206.473 47.7344 206.035 47.7344C205.551 47.7344 205.137 47.8242 204.793 48.0039C204.457 48.1836 204.188 48.4336 203.984 48.7539C203.781 49.0664 203.633 49.4336 203.539 49.8555C203.445 50.2773 203.398 50.7305 203.398 51.2148ZM220.883 55.1406V49.4922C220.883 49.0859 220.816 48.7383 220.684 48.4492C220.551 48.1523 220.344 47.9219 220.062 47.7578C219.789 47.5938 219.434 47.5117 218.996 47.5117C218.621 47.5117 218.297 47.5781 218.023 47.7109C217.75 47.8359 217.539 48.0195 217.391 48.2617C217.242 48.4961 217.168 48.7734 217.168 49.0938H213.793C213.793 48.5547 213.918 48.043 214.168 47.5586C214.418 47.0742 214.781 46.6484 215.258 46.2812C215.734 45.9062 216.301 45.6133 216.957 45.4023C217.621 45.1914 218.363 45.0859 219.184 45.0859C220.168 45.0859 221.043 45.25 221.809 45.5781C222.574 45.9062 223.176 46.3984 223.613 47.0547C224.059 47.7109 224.281 48.5312 224.281 49.5156V54.9414C224.281 55.6367 224.324 56.207 224.41 56.6523C224.496 57.0898 224.621 57.4727 224.785 57.8008V58H221.375C221.211 57.6562 221.086 57.2266 221 56.7109C220.922 56.1875 220.883 55.6641 220.883 55.1406ZM221.328 50.2773L221.352 52.1875H219.465C219.02 52.1875 218.633 52.2383 218.305 52.3398C217.977 52.4414 217.707 52.5859 217.496 52.7734C217.285 52.9531 217.129 53.1641 217.027 53.4062C216.934 53.6484 216.887 53.9141 216.887 54.2031C216.887 54.4922 216.953 54.7539 217.086 54.9883C217.219 55.2148 217.41 55.3945 217.66 55.5273C217.91 55.6523 218.203 55.7148 218.539 55.7148C219.047 55.7148 219.488 55.6133 219.863 55.4102C220.238 55.207 220.527 54.957 220.73 54.6602C220.941 54.3633 221.051 54.082 221.059 53.8164L221.949 55.2461C221.824 55.5664 221.652 55.8984 221.434 56.2422C221.223 56.5859 220.953 56.9102 220.625 57.2148C220.297 57.5117 219.902 57.7578 219.441 57.9531C218.98 58.1406 218.434 58.2344 217.801 58.2344C216.996 58.2344 216.266 58.0742 215.609 57.7539C214.961 57.4258 214.445 56.9766 214.062 56.4062C213.688 55.8281 213.5 55.1719 213.5 54.4375C213.5 53.7734 213.625 53.1836 213.875 52.668C214.125 52.1523 214.492 51.7188 214.977 51.3672C215.469 51.0078 216.082 50.7383 216.816 50.5586C217.551 50.3711 218.402 50.2773 219.371 50.2773H221.328ZM230.445 40V58H227.059V40H230.445ZM236.797 40V58H233.41V40H236.797ZM245.422 58.2344C244.438 58.2344 243.555 58.0781 242.773 57.7656C241.992 57.4453 241.328 57.0039 240.781 56.4414C240.242 55.8789 239.828 55.2266 239.539 54.4844C239.25 53.7344 239.105 52.9375 239.105 52.0938V51.625C239.105 50.6641 239.242 49.7852 239.516 48.9883C239.789 48.1914 240.18 47.5 240.688 46.9141C241.203 46.3281 241.828 45.8789 242.562 45.5664C243.297 45.2461 244.125 45.0859 245.047 45.0859C245.945 45.0859 246.742 45.2344 247.438 45.5312C248.133 45.8281 248.715 46.25 249.184 46.7969C249.66 47.3438 250.02 48 250.262 48.7656C250.504 49.5234 250.625 50.3672 250.625 51.2969V52.7031H240.547V50.4531H247.309V50.1953C247.309 49.7266 247.223 49.3086 247.051 48.9414C246.887 48.5664 246.637 48.2695 246.301 48.0508C245.965 47.832 245.535 47.7227 245.012 47.7227C244.566 47.7227 244.184 47.8203 243.863 48.0156C243.543 48.2109 243.281 48.4844 243.078 48.8359C242.883 49.1875 242.734 49.6016 242.633 50.0781C242.539 50.5469 242.492 51.0625 242.492 51.625V52.0938C242.492 52.6016 242.562 53.0703 242.703 53.5C242.852 53.9297 243.059 54.3008 243.324 54.6133C243.598 54.9258 243.926 55.168 244.309 55.3398C244.699 55.5117 245.141 55.5977 245.633 55.5977C246.242 55.5977 246.809 55.4805 247.332 55.2461C247.863 55.0039 248.32 54.6406 248.703 54.1562L250.344 55.9375C250.078 56.3203 249.715 56.6875 249.254 57.0391C248.801 57.3906 248.254 57.6797 247.613 57.9062C246.973 58.125 246.242 58.2344 245.422 58.2344ZM255.852 48.0273V58H252.477V45.3203H255.641L255.852 48.0273ZM255.359 51.2148H254.445C254.445 50.2773 254.566 49.4336 254.809 48.6836C255.051 47.9258 255.391 47.2812 255.828 46.75C256.266 46.2109 256.785 45.8008 257.387 45.5195C257.996 45.2305 258.676 45.0859 259.426 45.0859C260.02 45.0859 260.562 45.1719 261.055 45.3438C261.547 45.5156 261.969 45.7891 262.32 46.1641C262.68 46.5391 262.953 47.0352 263.141 47.6523C263.336 48.2695 263.434 49.0234 263.434 49.9141V58H260.035V49.9023C260.035 49.3398 259.957 48.9023 259.801 48.5898C259.645 48.2773 259.414 48.0586 259.109 47.9336C258.812 47.8008 258.445 47.7344 258.008 47.7344C257.555 47.7344 257.16 47.8242 256.824 48.0039C256.496 48.1836 256.223 48.4336 256.004 48.7539C255.793 49.0664 255.633 49.4336 255.523 49.8555C255.414 50.2773 255.359 50.7305 255.359 51.2148ZM274.027 45.3203H277.086V57.5781C277.086 58.7344 276.828 59.7148 276.312 60.5195C275.805 61.332 275.094 61.9453 274.18 62.3594C273.266 62.7812 272.203 62.9922 270.992 62.9922C270.461 62.9922 269.898 62.9219 269.305 62.7812C268.719 62.6406 268.156 62.4219 267.617 62.125C267.086 61.8281 266.641 61.4531 266.281 61L267.77 59.0078C268.16 59.4609 268.613 59.8125 269.129 60.0625C269.645 60.3203 270.215 60.4492 270.84 60.4492C271.449 60.4492 271.965 60.3359 272.387 60.1094C272.809 59.8906 273.133 59.5664 273.359 59.1367C273.586 58.7148 273.699 58.2031 273.699 57.6016V48.25L274.027 45.3203ZM265.496 51.8125V51.5664C265.496 50.5977 265.613 49.7188 265.848 48.9297C266.09 48.1328 266.43 47.4492 266.867 46.8789C267.312 46.3086 267.852 45.8672 268.484 45.5547C269.117 45.2422 269.832 45.0859 270.629 45.0859C271.473 45.0859 272.18 45.2422 272.75 45.5547C273.32 45.8672 273.789 46.3125 274.156 46.8906C274.523 47.4609 274.809 48.1367 275.012 48.918C275.223 49.6914 275.387 50.5391 275.504 51.4609V52C275.387 52.8828 275.211 53.7031 274.977 54.4609C274.742 55.2188 274.434 55.8828 274.051 56.4531C273.668 57.0156 273.191 57.4531 272.621 57.7656C272.059 58.0781 271.387 58.2344 270.605 58.2344C269.824 58.2344 269.117 58.0742 268.484 57.7539C267.859 57.4336 267.324 56.9844 266.879 56.4062C266.434 55.8281 266.09 55.1484 265.848 54.3672C265.613 53.5859 265.496 52.7344 265.496 51.8125ZM268.871 51.5664V51.8125C268.871 52.3359 268.922 52.8242 269.023 53.2773C269.125 53.7305 269.281 54.1328 269.492 54.4844C269.711 54.8281 269.98 55.0977 270.301 55.293C270.629 55.4805 271.016 55.5742 271.461 55.5742C272.078 55.5742 272.582 55.4453 272.973 55.1875C273.363 54.9219 273.656 54.5586 273.852 54.0977C274.047 53.6367 274.16 53.1055 274.191 52.5039V50.9688C274.176 50.4766 274.109 50.0352 273.992 49.6445C273.875 49.2461 273.711 48.9062 273.5 48.625C273.289 48.3438 273.016 48.125 272.68 47.9688C272.344 47.8125 271.945 47.7344 271.484 47.7344C271.039 47.7344 270.652 47.8359 270.324 48.0391C270.004 48.2344 269.734 48.5039 269.516 48.8477C269.305 49.1914 269.145 49.5977 269.035 50.0664C268.926 50.5273 268.871 51.0273 268.871 51.5664ZM285.547 58.2344C284.562 58.2344 283.68 58.0781 282.898 57.7656C282.117 57.4453 281.453 57.0039 280.906 56.4414C280.367 55.8789 279.953 55.2266 279.664 54.4844C279.375 53.7344 279.23 52.9375 279.23 52.0938V51.625C279.23 50.6641 279.367 49.7852 279.641 48.9883C279.914 48.1914 280.305 47.5 280.812 46.9141C281.328 46.3281 281.953 45.8789 282.688 45.5664C283.422 45.2461 284.25 45.0859 285.172 45.0859C286.07 45.0859 286.867 45.2344 287.562 45.5312C288.258 45.8281 288.84 46.25 289.309 46.7969C289.785 47.3438 290.145 48 290.387 48.7656C290.629 49.5234 290.75 50.3672 290.75 51.2969V52.7031H280.672V50.4531H287.434V50.1953C287.434 49.7266 287.348 49.3086 287.176 48.9414C287.012 48.5664 286.762 48.2695 286.426 48.0508C286.09 47.832 285.66 47.7227 285.137 47.7227C284.691 47.7227 284.309 47.8203 283.988 48.0156C283.668 48.2109 283.406 48.4844 283.203 48.8359C283.008 49.1875 282.859 49.6016 282.758 50.0781C282.664 50.5469 282.617 51.0625 282.617 51.625V52.0938C282.617 52.6016 282.688 53.0703 282.828 53.5C282.977 53.9297 283.184 54.3008 283.449 54.6133C283.723 54.9258 284.051 55.168 284.434 55.3398C284.824 55.5117 285.266 55.5977 285.758 55.5977C286.367 55.5977 286.934 55.4805 287.457 55.2461C287.988 55.0039 288.445 54.6406 288.828 54.1562L290.469 55.9375C290.203 56.3203 289.84 56.6875 289.379 57.0391C288.926 57.3906 288.379 57.6797 287.738 57.9062C287.098 58.125 286.367 58.2344 285.547 58.2344Z" fill="#888888"/>
<path d="M115.994 98.708V104.641H99.5806V98.708H115.994ZM102.151 86.0078V118H94.439V86.0078H102.151ZM121.18 86.0078V118H113.489V86.0078H121.18ZM124.805 106.354V105.893C124.805 104.15 125.054 102.546 125.552 101.081C126.05 99.6016 126.783 98.3198 127.75 97.2358C128.716 96.1519 129.91 95.3096 131.331 94.709C132.752 94.0938 134.393 93.7861 136.253 93.7861C138.128 93.7861 139.776 94.0938 141.197 94.709C142.632 95.3096 143.833 96.1519 144.8 97.2358C145.767 98.3198 146.5 99.6016 146.998 101.081C147.496 102.546 147.745 104.15 147.745 105.893V106.354C147.745 108.083 147.496 109.687 146.998 111.167C146.5 112.631 145.767 113.913 144.8 115.012C143.833 116.096 142.64 116.938 141.219 117.539C139.798 118.139 138.157 118.439 136.297 118.439C134.437 118.439 132.789 118.139 131.353 117.539C129.917 116.938 128.716 116.096 127.75 115.012C126.783 113.913 126.05 112.631 125.552 111.167C125.054 109.687 124.805 108.083 124.805 106.354ZM132.21 105.893V106.354C132.21 107.248 132.276 108.083 132.408 108.859C132.54 109.636 132.759 110.317 133.067 110.903C133.375 111.474 133.792 111.921 134.319 112.243C134.847 112.565 135.506 112.727 136.297 112.727C137.073 112.727 137.718 112.565 138.23 112.243C138.758 111.921 139.175 111.474 139.483 110.903C139.791 110.317 140.01 109.636 140.142 108.859C140.274 108.083 140.34 107.248 140.34 106.354V105.893C140.34 105.029 140.274 104.216 140.142 103.454C140.01 102.678 139.791 101.997 139.483 101.411C139.175 100.81 138.758 100.341 138.23 100.004C137.703 99.6675 137.044 99.499 136.253 99.499C135.477 99.499 134.825 99.6675 134.297 100.004C133.785 100.341 133.375 100.81 133.067 101.411C132.759 101.997 132.54 102.678 132.408 103.454C132.276 104.216 132.21 105.029 132.21 105.893ZM158.27 110.925L162.664 94.2256H167.3L165.652 102.597L161.302 118H157.588L158.27 110.925ZM156.534 94.2256L159.258 110.793L159.566 118H155.062L149.437 94.2256H156.534ZM171.211 110.441L173.958 94.2256H181.055L175.474 118H170.97L171.211 110.441ZM167.828 94.2256L172.266 110.881L172.947 118H169.19L164.927 102.641L163.345 94.2256H167.828ZM209.466 86.0078V118H201.753V86.0078H209.466ZM219.09 86.0078V91.9624H192.349V86.0078H219.09ZM216.475 106.354V105.893C216.475 104.15 216.724 102.546 217.222 101.081C217.72 99.6016 218.453 98.3198 219.419 97.2358C220.386 96.1519 221.58 95.3096 223.001 94.709C224.422 94.0938 226.062 93.7861 227.923 93.7861C229.798 93.7861 231.446 94.0938 232.867 94.709C234.302 95.3096 235.503 96.1519 236.47 97.2358C237.437 98.3198 238.169 99.6016 238.667 101.081C239.166 102.546 239.415 104.15 239.415 105.893V106.354C239.415 108.083 239.166 109.687 238.667 111.167C238.169 112.631 237.437 113.913 236.47 115.012C235.503 116.096 234.31 116.938 232.889 117.539C231.468 118.139 229.827 118.439 227.967 118.439C226.106 118.439 224.458 118.139 223.023 117.539C221.587 116.938 220.386 116.096 219.419 115.012C218.453 113.913 217.72 112.631 217.222 111.167C216.724 109.687 216.475 108.083 216.475 106.354ZM223.88 105.893V106.354C223.88 107.248 223.946 108.083 224.078 108.859C224.209 109.636 224.429 110.317 224.737 110.903C225.044 111.474 225.462 111.921 225.989 112.243C226.517 112.565 227.176 112.727 227.967 112.727C228.743 112.727 229.388 112.565 229.9 112.243C230.428 111.921 230.845 111.474 231.153 110.903C231.46 110.317 231.68 109.636 231.812 108.859C231.944 108.083 232.01 107.248 232.01 106.354V105.893C232.01 105.029 231.944 104.216 231.812 103.454C231.68 102.678 231.46 101.997 231.153 101.411C230.845 100.81 230.428 100.341 229.9 100.004C229.373 99.6675 228.714 99.499 227.923 99.499C227.146 99.499 226.495 99.6675 225.967 100.004C225.455 100.341 225.044 100.81 224.737 101.411C224.429 101.997 224.209 102.678 224.078 103.454C223.946 104.216 223.88 105.029 223.88 105.893ZM254.268 86.0078H266.858C269.319 86.0078 271.458 86.374 273.274 87.1064C275.091 87.8389 276.49 88.9229 277.471 90.3584C278.467 91.7939 278.965 93.5664 278.965 95.6758C278.965 97.5068 278.68 99.0376 278.108 100.268C277.537 101.499 276.739 102.517 275.713 103.322C274.703 104.113 273.523 104.765 272.176 105.278L269.649 106.706H259.08L259.036 100.751H266.858C267.84 100.751 268.653 100.576 269.297 100.224C269.942 99.8726 270.425 99.3745 270.748 98.73C271.084 98.0708 271.253 97.2871 271.253 96.3789C271.253 95.4561 271.084 94.665 270.748 94.0059C270.411 93.3467 269.913 92.8413 269.253 92.4897C268.609 92.1382 267.811 91.9624 266.858 91.9624H261.98V118H254.268V86.0078ZM271.78 118L264.705 103.85L272.879 103.806L280.042 117.67V118H271.78ZM297.159 112.221V94.2256H304.585V118H297.642L297.159 112.221ZM297.862 107.387L299.795 107.343C299.795 108.94 299.605 110.419 299.224 111.782C298.843 113.129 298.279 114.301 297.532 115.297C296.8 116.293 295.892 117.07 294.808 117.626C293.738 118.168 292.5 118.439 291.094 118.439C289.922 118.439 288.846 118.278 287.864 117.956C286.897 117.619 286.062 117.099 285.359 116.396C284.656 115.678 284.107 114.763 283.711 113.649C283.331 112.521 283.14 111.174 283.14 109.606V94.2256H290.545V109.65C290.545 110.178 290.611 110.632 290.743 111.013C290.875 111.394 291.065 111.716 291.314 111.979C291.563 112.229 291.871 112.419 292.237 112.551C292.618 112.668 293.05 112.727 293.533 112.727C294.646 112.727 295.518 112.492 296.148 112.023C296.778 111.555 297.217 110.917 297.466 110.112C297.73 109.306 297.862 108.398 297.862 107.387ZM315.945 99.3013V118H308.541V94.2256H315.484L315.945 99.3013ZM315.066 105.3L313.331 105.344C313.331 103.527 313.55 101.909 313.99 100.488C314.429 99.0522 315.052 97.8364 315.857 96.8403C316.663 95.8442 317.623 95.0898 318.736 94.5771C319.864 94.0498 321.116 93.7861 322.493 93.7861C323.592 93.7861 324.595 93.9473 325.503 94.2695C326.426 94.5918 327.217 95.1118 327.876 95.8296C328.55 96.5474 329.063 97.4995 329.415 98.686C329.781 99.8579 329.964 101.308 329.964 103.037V118H322.515V103.015C322.515 102.062 322.383 101.337 322.12 100.839C321.856 100.327 321.475 99.9751 320.977 99.7847C320.479 99.5942 319.871 99.499 319.153 99.499C318.392 99.499 317.747 99.6455 317.22 99.9385C316.692 100.231 316.268 100.642 315.945 101.169C315.638 101.682 315.411 102.29 315.264 102.993C315.132 103.696 315.066 104.465 315.066 105.3ZM345.85 107.871H339.544C339.544 106.582 339.632 105.446 339.808 104.465C339.998 103.469 340.32 102.575 340.774 101.784C341.229 100.993 341.844 100.261 342.62 99.5869C343.309 99.0156 343.902 98.4663 344.4 97.939C344.898 97.4116 345.279 96.877 345.542 96.335C345.806 95.793 345.938 95.2144 345.938 94.5991C345.938 93.8374 345.828 93.2148 345.608 92.7314C345.403 92.248 345.088 91.8892 344.664 91.6548C344.253 91.4058 343.733 91.2812 343.104 91.2812C342.591 91.2812 342.107 91.4058 341.653 91.6548C341.214 91.9038 340.855 92.292 340.577 92.8193C340.298 93.332 340.145 94.0132 340.115 94.8628H332.667C332.71 92.6802 333.194 90.9077 334.117 89.5454C335.054 88.1685 336.299 87.165 337.852 86.5352C339.419 85.8906 341.17 85.5684 343.104 85.5684C345.242 85.5684 347.081 85.8979 348.619 86.5571C350.157 87.2163 351.336 88.1978 352.156 89.5015C352.977 90.7905 353.387 92.3799 353.387 94.2695C353.387 95.5293 353.145 96.6279 352.662 97.5654C352.193 98.4883 351.556 99.3525 350.75 100.158C349.959 100.949 349.073 101.799 348.091 102.707C347.242 103.454 346.663 104.216 346.355 104.992C346.048 105.754 345.879 106.713 345.85 107.871ZM338.643 114.55C338.643 113.496 339.024 112.617 339.786 111.914C340.547 111.196 341.536 110.837 342.752 110.837C343.968 110.837 344.957 111.196 345.718 111.914C346.48 112.617 346.861 113.496 346.861 114.55C346.861 115.605 346.48 116.491 345.718 117.209C344.957 117.912 343.968 118.264 342.752 118.264C341.536 118.264 340.547 117.912 339.786 117.209C339.024 116.491 338.643 115.605 338.643 114.55Z" fill="#424241"/>
<path d="M1363 15C1363 6.71573 1356.28 0 1348 0H1134V167H1348C1356.28 167 1363 160.284 1363 152V15Z" fill="#5F96EC"/>
<path d="M1260.77 81.3079C1263.96 81.3079 1267.09 82.2553 1269.74 84.0303C1272.4 85.8053 1274.47 88.3282 1275.69 91.2799C1276.92 94.2316 1277.24 97.4796 1276.61 100.613C1275.99 103.747 1274.45 106.625 1272.19 108.884C1269.93 111.143 1267.05 112.682 1263.92 113.305C1260.79 113.928 1257.54 113.608 1254.59 112.386C1251.64 111.163 1249.11 109.093 1247.34 106.436C1245.56 103.78 1244.62 100.657 1244.62 97.4617C1244.62 93.1774 1246.32 89.0686 1249.35 86.0392C1252.38 83.0098 1256.49 81.3079 1260.77 81.3079ZM1260.77 75.9233C1256.51 75.9233 1252.35 77.1865 1248.8 79.5532C1245.26 81.9198 1242.5 85.2837 1240.87 89.2193C1239.24 93.1549 1238.81 97.4856 1239.64 101.664C1240.48 105.842 1242.53 109.679 1245.54 112.692C1248.55 115.704 1252.39 117.755 1256.57 118.586C1260.75 119.417 1265.08 118.991 1269.01 117.361C1272.95 115.73 1276.31 112.97 1278.68 109.428C1281.04 105.886 1282.31 101.722 1282.31 97.4617C1282.31 91.7493 1280.04 86.271 1276 82.2317C1271.96 78.1925 1266.48 75.9233 1260.77 75.9233Z" fill="white"/>
<path d="M1274.23 49H1220.38C1218.96 49 1217.59 49.5673 1216.58 50.5771C1215.57 51.5869 1215 52.9565 1215 54.3846V108.231C1215 109.659 1215.57 111.028 1216.58 112.038C1217.59 113.048 1218.96 113.615 1220.38 113.615H1231.15V108.231H1220.38V70.5384H1279.62V54.3846C1279.62 52.9565 1279.05 51.5869 1278.04 50.5771C1277.03 49.5673 1275.66 49 1274.23 49ZM1220.38 65.1538V54.3846H1274.23V65.1538H1220.38Z" fill="white"/>
<path d="M1255.38 89.3849V105.539L1268.85 97.4618L1255.38 89.3849Z" fill="white"/>
</svg>
