<svg width="1363" height="167" viewBox="0 0 1363 167" fill="none" xmlns="http://www.w3.org/2000/svg">
<rect width="1363" height="167" rx="15" fill="#F0F0F0"/>
<path d="M0 15C0 6.71573 6.71573 0 15 0H37V167H15C6.71573 167 0 160.284 0 152V15Z" fill="#424241"/>
<path d="M100.906 50.9219L93.3945 48.2383V45.0859L103.602 49.375V51.6367L100.906 50.9219ZM93.3945 53.1719L100.918 50.4297L103.602 49.7852V52.0352L93.3945 56.3242V53.1719ZM121.789 52.3398H125.293C125.223 53.4883 124.906 54.5078 124.344 55.3984C123.789 56.2891 123.012 56.9844 122.012 57.4844C121.02 57.9844 119.824 58.2344 118.426 58.2344C117.332 58.2344 116.352 58.0469 115.484 57.6719C114.617 57.2891 113.875 56.7422 113.258 56.0312C112.648 55.3203 112.184 54.4609 111.863 53.4531C111.543 52.4453 111.383 51.3164 111.383 50.0664V48.8828C111.383 47.6328 111.547 46.5039 111.875 45.4961C112.211 44.4805 112.688 43.6172 113.305 42.9062C113.93 42.1953 114.676 41.6484 115.543 41.2656C116.41 40.8828 117.379 40.6914 118.449 40.6914C119.871 40.6914 121.07 40.9492 122.047 41.4648C123.031 41.9805 123.793 42.6914 124.332 43.5977C124.879 44.5039 125.207 45.5352 125.316 46.6914H121.801C121.762 46.0039 121.625 45.4219 121.391 44.9453C121.156 44.4609 120.801 44.0977 120.324 43.8555C119.855 43.6055 119.23 43.4805 118.449 43.4805C117.863 43.4805 117.352 43.5898 116.914 43.8086C116.477 44.0273 116.109 44.3594 115.812 44.8047C115.516 45.25 115.293 45.8125 115.145 46.4922C115.004 47.1641 114.934 47.9531 114.934 48.8594V50.0664C114.934 50.9492 115 51.7266 115.133 52.3984C115.266 53.0625 115.469 53.625 115.742 54.0859C116.023 54.5391 116.383 54.8828 116.82 55.1172C117.266 55.3438 117.801 55.457 118.426 55.457C119.16 55.457 119.766 55.3398 120.242 55.1055C120.719 54.8711 121.082 54.5234 121.332 54.0625C121.59 53.6016 121.742 53.0273 121.789 52.3398ZM127.602 40.9375H133.965C135.27 40.9375 136.391 41.1328 137.328 41.5234C138.273 41.9141 139 42.4922 139.508 43.2578C140.016 44.0234 140.27 44.9648 140.27 46.082C140.27 46.9961 140.113 47.7812 139.801 48.4375C139.496 49.0859 139.062 49.6289 138.5 50.0664C137.945 50.4961 137.293 50.8398 136.543 51.0977L135.43 51.6836H129.898L129.875 48.9414H133.988C134.605 48.9414 135.117 48.832 135.523 48.6133C135.93 48.3945 136.234 48.0898 136.438 47.6992C136.648 47.3086 136.754 46.8555 136.754 46.3398C136.754 45.793 136.652 45.3203 136.449 44.9219C136.246 44.5234 135.938 44.2188 135.523 44.0078C135.109 43.7969 134.59 43.6914 133.965 43.6914H131.117V58H127.602V40.9375ZM137.141 58L133.25 50.3945L136.965 50.3711L140.902 57.8359V58H137.141ZM152.398 40.9375H155.902V52.2109C155.902 53.5234 155.621 54.6289 155.059 55.5273C154.504 56.4258 153.734 57.1016 152.75 57.5547C151.773 58.0078 150.648 58.2344 149.375 58.2344C148.102 58.2344 146.969 58.0078 145.977 57.5547C144.992 57.1016 144.219 56.4258 143.656 55.5273C143.102 54.6289 142.824 53.5234 142.824 52.2109V40.9375H146.34V52.2109C146.34 52.9766 146.461 53.6016 146.703 54.0859C146.945 54.5703 147.293 54.9258 147.746 55.1523C148.207 55.3789 148.75 55.4922 149.375 55.4922C150.016 55.4922 150.559 55.3789 151.004 55.1523C151.457 54.9258 151.801 54.5703 152.035 54.0859C152.277 53.6016 152.398 52.9766 152.398 52.2109V40.9375ZM164.035 58H160.32L160.344 55.2578H164.035C164.957 55.2578 165.734 55.0508 166.367 54.6367C167 54.2148 167.477 53.6016 167.797 52.7969C168.125 51.9922 168.289 51.0195 168.289 49.8789V49.0469C168.289 48.1719 168.195 47.4023 168.008 46.7383C167.828 46.0742 167.559 45.5156 167.199 45.0625C166.84 44.6094 166.398 44.2695 165.875 44.043C165.352 43.8086 164.75 43.6914 164.07 43.6914H160.25V40.9375H164.07C165.211 40.9375 166.254 41.1328 167.199 41.5234C168.152 41.9062 168.977 42.457 169.672 43.1758C170.367 43.8945 170.902 44.7539 171.277 45.7539C171.66 46.7461 171.852 47.8516 171.852 49.0703V49.8789C171.852 51.0898 171.66 52.1953 171.277 53.1953C170.902 54.1953 170.367 55.0547 169.672 55.7734C168.984 56.4844 168.16 57.0352 167.199 57.4258C166.246 57.8086 165.191 58 164.035 58ZM162.312 40.9375V58H158.797V40.9375H162.312ZM183.535 58V60.5664H172.895V58H183.535ZM194.984 52.3398H198.488C198.418 53.4883 198.102 54.5078 197.539 55.3984C196.984 56.2891 196.207 56.9844 195.207 57.4844C194.215 57.9844 193.02 58.2344 191.621 58.2344C190.527 58.2344 189.547 58.0469 188.68 57.6719C187.812 57.2891 187.07 56.7422 186.453 56.0312C185.844 55.3203 185.379 54.4609 185.059 53.4531C184.738 52.4453 184.578 51.3164 184.578 50.0664V48.8828C184.578 47.6328 184.742 46.5039 185.07 45.4961C185.406 44.4805 185.883 43.6172 186.5 42.9062C187.125 42.1953 187.871 41.6484 188.738 41.2656C189.605 40.8828 190.574 40.6914 191.645 40.6914C193.066 40.6914 194.266 40.9492 195.242 41.4648C196.227 41.9805 196.988 42.6914 197.527 43.5977C198.074 44.5039 198.402 45.5352 198.512 46.6914H194.996C194.957 46.0039 194.82 45.4219 194.586 44.9453C194.352 44.4609 193.996 44.0977 193.52 43.8555C193.051 43.6055 192.426 43.4805 191.645 43.4805C191.059 43.4805 190.547 43.5898 190.109 43.8086C189.672 44.0273 189.305 44.3594 189.008 44.8047C188.711 45.25 188.488 45.8125 188.34 46.4922C188.199 47.1641 188.129 47.9531 188.129 48.8594V50.0664C188.129 50.9492 188.195 51.7266 188.328 52.3984C188.461 53.0625 188.664 53.625 188.938 54.0859C189.219 54.5391 189.578 54.8828 190.016 55.1172C190.461 55.3438 190.996 55.457 191.621 55.457C192.355 55.457 192.961 55.3398 193.438 55.1055C193.914 54.8711 194.277 54.5234 194.527 54.0625C194.785 53.6016 194.938 53.0273 194.984 52.3398ZM203.879 40V58H200.504V40H203.879ZM203.398 51.2148H202.473C202.48 50.332 202.598 49.5195 202.824 48.7773C203.051 48.0273 203.375 47.3789 203.797 46.832C204.219 46.2773 204.723 45.8477 205.309 45.543C205.902 45.2383 206.559 45.0859 207.277 45.0859C207.902 45.0859 208.469 45.1758 208.977 45.3555C209.492 45.5273 209.934 45.8086 210.301 46.1992C210.676 46.582 210.965 47.0859 211.168 47.7109C211.371 48.3359 211.473 49.0938 211.473 49.9844V58H208.074V49.9609C208.074 49.3984 207.992 48.957 207.828 48.6367C207.672 48.3086 207.441 48.0781 207.137 47.9453C206.84 47.8047 206.473 47.7344 206.035 47.7344C205.551 47.7344 205.137 47.8242 204.793 48.0039C204.457 48.1836 204.188 48.4336 203.984 48.7539C203.781 49.0664 203.633 49.4336 203.539 49.8555C203.445 50.2773 203.398 50.7305 203.398 51.2148ZM220.883 55.1406V49.4922C220.883 49.0859 220.816 48.7383 220.684 48.4492C220.551 48.1523 220.344 47.9219 220.062 47.7578C219.789 47.5938 219.434 47.5117 218.996 47.5117C218.621 47.5117 218.297 47.5781 218.023 47.7109C217.75 47.8359 217.539 48.0195 217.391 48.2617C217.242 48.4961 217.168 48.7734 217.168 49.0938H213.793C213.793 48.5547 213.918 48.043 214.168 47.5586C214.418 47.0742 214.781 46.6484 215.258 46.2812C215.734 45.9062 216.301 45.6133 216.957 45.4023C217.621 45.1914 218.363 45.0859 219.184 45.0859C220.168 45.0859 221.043 45.25 221.809 45.5781C222.574 45.9062 223.176 46.3984 223.613 47.0547C224.059 47.7109 224.281 48.5312 224.281 49.5156V54.9414C224.281 55.6367 224.324 56.207 224.41 56.6523C224.496 57.0898 224.621 57.4727 224.785 57.8008V58H221.375C221.211 57.6562 221.086 57.2266 221 56.7109C220.922 56.1875 220.883 55.6641 220.883 55.1406ZM221.328 50.2773L221.352 52.1875H219.465C219.02 52.1875 218.633 52.2383 218.305 52.3398C217.977 52.4414 217.707 52.5859 217.496 52.7734C217.285 52.9531 217.129 53.1641 217.027 53.4062C216.934 53.6484 216.887 53.9141 216.887 54.2031C216.887 54.4922 216.953 54.7539 217.086 54.9883C217.219 55.2148 217.41 55.3945 217.66 55.5273C217.91 55.6523 218.203 55.7148 218.539 55.7148C219.047 55.7148 219.488 55.6133 219.863 55.4102C220.238 55.207 220.527 54.957 220.73 54.6602C220.941 54.3633 221.051 54.082 221.059 53.8164L221.949 55.2461C221.824 55.5664 221.652 55.8984 221.434 56.2422C221.223 56.5859 220.953 56.9102 220.625 57.2148C220.297 57.5117 219.902 57.7578 219.441 57.9531C218.98 58.1406 218.434 58.2344 217.801 58.2344C216.996 58.2344 216.266 58.0742 215.609 57.7539C214.961 57.4258 214.445 56.9766 214.062 56.4062C213.688 55.8281 213.5 55.1719 213.5 54.4375C213.5 53.7734 213.625 53.1836 213.875 52.668C214.125 52.1523 214.492 51.7188 214.977 51.3672C215.469 51.0078 216.082 50.7383 216.816 50.5586C217.551 50.3711 218.402 50.2773 219.371 50.2773H221.328ZM230.445 40V58H227.059V40H230.445ZM236.797 40V58H233.41V40H236.797ZM245.422 58.2344C244.438 58.2344 243.555 58.0781 242.773 57.7656C241.992 57.4453 241.328 57.0039 240.781 56.4414C240.242 55.8789 239.828 55.2266 239.539 54.4844C239.25 53.7344 239.105 52.9375 239.105 52.0938V51.625C239.105 50.6641 239.242 49.7852 239.516 48.9883C239.789 48.1914 240.18 47.5 240.688 46.9141C241.203 46.3281 241.828 45.8789 242.562 45.5664C243.297 45.2461 244.125 45.0859 245.047 45.0859C245.945 45.0859 246.742 45.2344 247.438 45.5312C248.133 45.8281 248.715 46.25 249.184 46.7969C249.66 47.3438 250.02 48 250.262 48.7656C250.504 49.5234 250.625 50.3672 250.625 51.2969V52.7031H240.547V50.4531H247.309V50.1953C247.309 49.7266 247.223 49.3086 247.051 48.9414C246.887 48.5664 246.637 48.2695 246.301 48.0508C245.965 47.832 245.535 47.7227 245.012 47.7227C244.566 47.7227 244.184 47.8203 243.863 48.0156C243.543 48.2109 243.281 48.4844 243.078 48.8359C242.883 49.1875 242.734 49.6016 242.633 50.0781C242.539 50.5469 242.492 51.0625 242.492 51.625V52.0938C242.492 52.6016 242.562 53.0703 242.703 53.5C242.852 53.9297 243.059 54.3008 243.324 54.6133C243.598 54.9258 243.926 55.168 244.309 55.3398C244.699 55.5117 245.141 55.5977 245.633 55.5977C246.242 55.5977 246.809 55.4805 247.332 55.2461C247.863 55.0039 248.32 54.6406 248.703 54.1562L250.344 55.9375C250.078 56.3203 249.715 56.6875 249.254 57.0391C248.801 57.3906 248.254 57.6797 247.613 57.9062C246.973 58.125 246.242 58.2344 245.422 58.2344ZM255.852 48.0273V58H252.477V45.3203H255.641L255.852 48.0273ZM255.359 51.2148H254.445C254.445 50.2773 254.566 49.4336 254.809 48.6836C255.051 47.9258 255.391 47.2812 255.828 46.75C256.266 46.2109 256.785 45.8008 257.387 45.5195C257.996 45.2305 258.676 45.0859 259.426 45.0859C260.02 45.0859 260.562 45.1719 261.055 45.3438C261.547 45.5156 261.969 45.7891 262.32 46.1641C262.68 46.5391 262.953 47.0352 263.141 47.6523C263.336 48.2695 263.434 49.0234 263.434 49.9141V58H260.035V49.9023C260.035 49.3398 259.957 48.9023 259.801 48.5898C259.645 48.2773 259.414 48.0586 259.109 47.9336C258.812 47.8008 258.445 47.7344 258.008 47.7344C257.555 47.7344 257.16 47.8242 256.824 48.0039C256.496 48.1836 256.223 48.4336 256.004 48.7539C255.793 49.0664 255.633 49.4336 255.523 49.8555C255.414 50.2773 255.359 50.7305 255.359 51.2148ZM274.027 45.3203H277.086V57.5781C277.086 58.7344 276.828 59.7148 276.312 60.5195C275.805 61.332 275.094 61.9453 274.18 62.3594C273.266 62.7812 272.203 62.9922 270.992 62.9922C270.461 62.9922 269.898 62.9219 269.305 62.7812C268.719 62.6406 268.156 62.4219 267.617 62.125C267.086 61.8281 266.641 61.4531 266.281 61L267.77 59.0078C268.16 59.4609 268.613 59.8125 269.129 60.0625C269.645 60.3203 270.215 60.4492 270.84 60.4492C271.449 60.4492 271.965 60.3359 272.387 60.1094C272.809 59.8906 273.133 59.5664 273.359 59.1367C273.586 58.7148 273.699 58.2031 273.699 57.6016V48.25L274.027 45.3203ZM265.496 51.8125V51.5664C265.496 50.5977 265.613 49.7188 265.848 48.9297C266.09 48.1328 266.43 47.4492 266.867 46.8789C267.312 46.3086 267.852 45.8672 268.484 45.5547C269.117 45.2422 269.832 45.0859 270.629 45.0859C271.473 45.0859 272.18 45.2422 272.75 45.5547C273.32 45.8672 273.789 46.3125 274.156 46.8906C274.523 47.4609 274.809 48.1367 275.012 48.918C275.223 49.6914 275.387 50.5391 275.504 51.4609V52C275.387 52.8828 275.211 53.7031 274.977 54.4609C274.742 55.2188 274.434 55.8828 274.051 56.4531C273.668 57.0156 273.191 57.4531 272.621 57.7656C272.059 58.0781 271.387 58.2344 270.605 58.2344C269.824 58.2344 269.117 58.0742 268.484 57.7539C267.859 57.4336 267.324 56.9844 266.879 56.4062C266.434 55.8281 266.09 55.1484 265.848 54.3672C265.613 53.5859 265.496 52.7344 265.496 51.8125ZM268.871 51.5664V51.8125C268.871 52.3359 268.922 52.8242 269.023 53.2773C269.125 53.7305 269.281 54.1328 269.492 54.4844C269.711 54.8281 269.98 55.0977 270.301 55.293C270.629 55.4805 271.016 55.5742 271.461 55.5742C272.078 55.5742 272.582 55.4453 272.973 55.1875C273.363 54.9219 273.656 54.5586 273.852 54.0977C274.047 53.6367 274.16 53.1055 274.191 52.5039V50.9688C274.176 50.4766 274.109 50.0352 273.992 49.6445C273.875 49.2461 273.711 48.9062 273.5 48.625C273.289 48.3438 273.016 48.125 272.68 47.9688C272.344 47.8125 271.945 47.7344 271.484 47.7344C271.039 47.7344 270.652 47.8359 270.324 48.0391C270.004 48.2344 269.734 48.5039 269.516 48.8477C269.305 49.1914 269.145 49.5977 269.035 50.0664C268.926 50.5273 268.871 51.0273 268.871 51.5664ZM285.547 58.2344C284.562 58.2344 283.68 58.0781 282.898 57.7656C282.117 57.4453 281.453 57.0039 280.906 56.4414C280.367 55.8789 279.953 55.2266 279.664 54.4844C279.375 53.7344 279.23 52.9375 279.23 52.0938V51.625C279.23 50.6641 279.367 49.7852 279.641 48.9883C279.914 48.1914 280.305 47.5 280.812 46.9141C281.328 46.3281 281.953 45.8789 282.688 45.5664C283.422 45.2461 284.25 45.0859 285.172 45.0859C286.07 45.0859 286.867 45.2344 287.562 45.5312C288.258 45.8281 288.84 46.25 289.309 46.7969C289.785 47.3438 290.145 48 290.387 48.7656C290.629 49.5234 290.75 50.3672 290.75 51.2969V52.7031H280.672V50.4531H287.434V50.1953C287.434 49.7266 287.348 49.3086 287.176 48.9414C287.012 48.5664 286.762 48.2695 286.426 48.0508C286.09 47.832 285.66 47.7227 285.137 47.7227C284.691 47.7227 284.309 47.8203 283.988 48.0156C283.668 48.2109 283.406 48.4844 283.203 48.8359C283.008 49.1875 282.859 49.6016 282.758 50.0781C282.664 50.5469 282.617 51.0625 282.617 51.625V52.0938C282.617 52.6016 282.688 53.0703 282.828 53.5C282.977 53.9297 283.184 54.3008 283.449 54.6133C283.723 54.9258 284.051 55.168 284.434 55.3398C284.824 55.5117 285.266 55.5977 285.758 55.5977C286.367 55.5977 286.934 55.4805 287.457 55.2461C287.988 55.0039 288.445 54.6406 288.828 54.1562L290.469 55.9375C290.203 56.3203 289.84 56.6875 289.379 57.0391C288.926 57.3906 288.379 57.6797 287.738 57.9062C287.098 58.125 286.367 58.2344 285.547 58.2344Z" fill="#888888"/>
<path d="M107.205 107.146H99.251V101.191H107.205C108.289 101.191 109.168 101.008 109.842 100.642C110.516 100.275 111.006 99.77 111.314 99.1255C111.636 98.4663 111.797 97.7266 111.797 96.9062C111.797 96.0273 111.636 95.2144 111.314 94.4673C111.006 93.7202 110.516 93.1196 109.842 92.6655C109.168 92.1968 108.289 91.9624 107.205 91.9624H102.151V118H94.439V86.0078H107.205C109.769 86.0078 111.973 86.4766 113.819 87.4141C115.679 88.3516 117.107 89.6406 118.104 91.2812C119.1 92.9072 119.598 94.7676 119.598 96.8623C119.598 98.9277 119.1 100.729 118.104 102.268C117.107 103.806 115.679 105.007 113.819 105.871C111.973 106.721 109.769 107.146 107.205 107.146ZM130.87 100.114V118H123.465V94.2256H130.386L130.87 100.114ZM137.901 94.0498L137.769 100.927C137.476 100.898 137.081 100.861 136.583 100.817C136.084 100.773 135.667 100.751 135.33 100.751C134.466 100.751 133.719 100.854 133.089 101.059C132.474 101.25 131.961 101.542 131.551 101.938C131.155 102.319 130.862 102.802 130.672 103.388C130.496 103.974 130.416 104.655 130.43 105.432L129.09 104.553C129.09 102.956 129.244 101.506 129.551 100.202C129.874 98.8838 130.328 97.7485 130.914 96.7964C131.5 95.8296 132.21 95.0898 133.045 94.5771C133.88 94.0498 134.817 93.7861 135.857 93.7861C136.224 93.7861 136.583 93.8081 136.934 93.8521C137.3 93.896 137.623 93.9619 137.901 94.0498ZM138.736 106.354V105.893C138.736 104.15 138.985 102.546 139.483 101.081C139.981 99.6016 140.713 98.3198 141.68 97.2358C142.647 96.1519 143.841 95.3096 145.262 94.709C146.683 94.0938 148.323 93.7861 150.184 93.7861C152.059 93.7861 153.707 94.0938 155.127 94.709C156.563 95.3096 157.764 96.1519 158.731 97.2358C159.698 98.3198 160.43 99.6016 160.928 101.081C161.426 102.546 161.675 104.15 161.675 105.893V106.354C161.675 108.083 161.426 109.687 160.928 111.167C160.43 112.631 159.698 113.913 158.731 115.012C157.764 116.096 156.57 116.938 155.149 117.539C153.729 118.139 152.088 118.439 150.228 118.439C148.367 118.439 146.719 118.139 145.284 117.539C143.848 116.938 142.647 116.096 141.68 115.012C140.713 113.913 139.981 112.631 139.483 111.167C138.985 109.687 138.736 108.083 138.736 106.354ZM146.141 105.893V106.354C146.141 107.248 146.207 108.083 146.338 108.859C146.47 109.636 146.69 110.317 146.998 110.903C147.305 111.474 147.723 111.921 148.25 112.243C148.777 112.565 149.437 112.727 150.228 112.727C151.004 112.727 151.648 112.565 152.161 112.243C152.688 111.921 153.106 111.474 153.414 110.903C153.721 110.317 153.941 109.636 154.073 108.859C154.205 108.083 154.271 107.248 154.271 106.354V105.893C154.271 105.029 154.205 104.216 154.073 103.454C153.941 102.678 153.721 101.997 153.414 101.411C153.106 100.81 152.688 100.341 152.161 100.004C151.634 99.6675 150.975 99.499 150.184 99.499C149.407 99.499 148.755 99.6675 148.228 100.004C147.715 100.341 147.305 100.81 146.998 101.411C146.69 101.997 146.47 102.678 146.338 103.454C146.207 104.216 146.141 105.029 146.141 105.893ZM165.521 94.2256H172.947V118.769C172.947 120.673 172.581 122.277 171.849 123.581C171.116 124.899 170.069 125.896 168.707 126.569C167.344 127.258 165.718 127.602 163.829 127.602C163.199 127.602 162.62 127.573 162.093 127.514C161.551 127.47 160.958 127.375 160.313 127.229V121.625C160.694 121.684 161.045 121.728 161.368 121.757C161.69 121.801 162.042 121.823 162.422 121.823C163.096 121.823 163.66 121.713 164.114 121.494C164.568 121.274 164.913 120.937 165.147 120.483C165.396 120.029 165.521 119.458 165.521 118.769V94.2256ZM164.971 88.0952C164.971 87.0405 165.352 86.1763 166.114 85.5024C166.875 84.8286 167.864 84.4917 169.08 84.4917C170.296 84.4917 171.285 84.8286 172.046 85.5024C172.808 86.1763 173.189 87.0405 173.189 88.0952C173.189 89.1499 172.808 90.0142 172.046 90.688C171.285 91.3618 170.296 91.6987 169.08 91.6987C167.864 91.6987 166.875 91.3618 166.114 90.688C165.352 90.0142 164.971 89.1499 164.971 88.0952ZM188.658 118.439C186.724 118.439 184.996 118.139 183.472 117.539C181.949 116.923 180.66 116.081 179.605 115.012C178.565 113.942 177.767 112.712 177.21 111.32C176.668 109.929 176.397 108.457 176.397 106.904V106.069C176.397 104.326 176.639 102.714 177.122 101.235C177.605 99.7407 178.323 98.437 179.275 97.3237C180.228 96.2104 181.421 95.3462 182.857 94.731C184.292 94.1011 185.962 93.7861 187.867 93.7861C189.551 93.7861 191.06 94.0571 192.393 94.5991C193.726 95.1411 194.854 95.9175 195.777 96.9282C196.714 97.939 197.425 99.1621 197.908 100.598C198.406 102.033 198.655 103.645 198.655 105.432V108.442H179.231V103.806H191.426V103.234C191.441 102.443 191.302 101.77 191.009 101.213C190.73 100.656 190.32 100.231 189.778 99.9385C189.236 99.6455 188.577 99.499 187.801 99.499C186.995 99.499 186.329 99.6748 185.801 100.026C185.289 100.378 184.886 100.861 184.593 101.477C184.314 102.077 184.117 102.773 184 103.564C183.882 104.355 183.824 105.19 183.824 106.069V106.904C183.824 107.783 183.941 108.581 184.175 109.299C184.424 110.017 184.776 110.632 185.23 111.145C185.699 111.643 186.255 112.031 186.9 112.309C187.559 112.587 188.306 112.727 189.141 112.727C190.152 112.727 191.148 112.536 192.129 112.155C193.111 111.774 193.953 111.145 194.656 110.266L198.018 114.265C197.535 114.953 196.846 115.62 195.953 116.264C195.074 116.909 194.019 117.436 192.789 117.846C191.558 118.242 190.181 118.439 188.658 118.439ZM211.707 112.727C212.396 112.727 212.981 112.602 213.465 112.353C213.963 112.089 214.336 111.723 214.585 111.254C214.849 110.771 214.974 110.192 214.959 109.519H221.924C221.939 111.306 221.5 112.873 220.606 114.221C219.727 115.554 218.526 116.594 217.002 117.341C215.494 118.073 213.787 118.439 211.883 118.439C210.022 118.439 208.396 118.139 207.005 117.539C205.613 116.923 204.449 116.074 203.511 114.99C202.588 113.891 201.893 112.609 201.424 111.145C200.97 109.68 200.743 108.09 200.743 106.376V105.871C200.743 104.157 200.97 102.568 201.424 101.103C201.893 99.6235 202.588 98.3418 203.511 97.2578C204.449 96.1592 205.606 95.3096 206.983 94.709C208.375 94.0938 209.993 93.7861 211.839 93.7861C213.816 93.7861 215.56 94.1597 217.068 94.9067C218.592 95.6538 219.786 96.7378 220.65 98.1587C221.514 99.5796 221.939 101.301 221.924 103.322H214.959C214.974 102.604 214.864 101.96 214.629 101.389C214.395 100.817 214.029 100.363 213.531 100.026C213.047 99.6748 212.425 99.499 211.663 99.499C210.901 99.499 210.286 99.6675 209.817 100.004C209.349 100.341 208.99 100.81 208.741 101.411C208.506 101.997 208.345 102.67 208.257 103.432C208.184 104.194 208.147 105.007 208.147 105.871V106.376C208.147 107.255 208.184 108.083 208.257 108.859C208.345 109.621 208.514 110.295 208.763 110.881C209.012 111.452 209.371 111.906 209.839 112.243C210.308 112.565 210.931 112.727 211.707 112.727ZM237.613 94.2256V99.3672H223.287V94.2256H237.613ZM226.297 88.3149H233.702V110.244C233.702 110.874 233.775 111.364 233.921 111.716C234.068 112.053 234.317 112.294 234.668 112.441C235.035 112.573 235.518 112.639 236.119 112.639C236.543 112.639 236.895 112.631 237.173 112.617C237.452 112.587 237.715 112.551 237.964 112.507V117.802C237.334 118.007 236.675 118.161 235.987 118.264C235.298 118.381 234.566 118.439 233.79 118.439C232.208 118.439 230.853 118.19 229.725 117.692C228.611 117.194 227.762 116.411 227.176 115.341C226.59 114.272 226.297 112.88 226.297 111.167V88.3149ZM264.881 107.146H256.927V101.191H264.881C265.965 101.191 266.844 101.008 267.518 100.642C268.191 100.275 268.682 99.77 268.99 99.1255C269.312 98.4663 269.473 97.7266 269.473 96.9062C269.473 96.0273 269.312 95.2144 268.99 94.4673C268.682 93.7202 268.191 93.1196 267.518 92.6655C266.844 92.1968 265.965 91.9624 264.881 91.9624H259.827V118H252.115V86.0078H264.881C267.444 86.0078 269.649 86.4766 271.495 87.4141C273.355 88.3516 274.783 89.6406 275.779 91.2812C276.775 92.9072 277.273 94.7676 277.273 96.8623C277.273 98.9277 276.775 100.729 275.779 102.268C274.783 103.806 273.355 105.007 271.495 105.871C269.649 106.721 267.444 107.146 264.881 107.146ZM288.326 84.25V118H280.921V84.25H288.326ZM287.447 105.3L285.711 105.344C285.711 103.674 285.916 102.136 286.326 100.729C286.736 99.3232 287.322 98.1001 288.084 97.0601C288.846 96.02 289.761 95.2144 290.831 94.6431C291.9 94.0718 293.086 93.7861 294.39 93.7861C295.562 93.7861 296.631 93.9546 297.598 94.2915C298.58 94.6284 299.422 95.1704 300.125 95.9175C300.843 96.6646 301.392 97.6387 301.773 98.8398C302.168 100.041 302.366 101.506 302.366 103.234V118H294.917V103.19C294.917 102.224 294.778 101.477 294.5 100.949C294.236 100.407 293.855 100.034 293.357 99.8286C292.859 99.6089 292.251 99.499 291.534 99.499C290.669 99.499 289.966 99.6455 289.424 99.9385C288.882 100.231 288.465 100.642 288.172 101.169C287.894 101.682 287.703 102.29 287.601 102.993C287.498 103.696 287.447 104.465 287.447 105.3ZM314.297 94.2256V118H306.871V94.2256H314.297ZM306.431 88.0952C306.431 87.0405 306.812 86.1763 307.574 85.5024C308.335 84.8286 309.324 84.4917 310.54 84.4917C311.756 84.4917 312.745 84.8286 313.506 85.5024C314.268 86.1763 314.649 87.0405 314.649 88.0952C314.649 89.1499 314.268 90.0142 313.506 90.688C312.745 91.3618 311.756 91.6987 310.54 91.6987C309.324 91.6987 308.335 91.3618 307.574 90.688C306.812 90.0142 306.431 89.1499 306.431 88.0952ZM326.69 84.25V118H319.263V84.25H326.69ZM330.337 106.354V105.893C330.337 104.15 330.586 102.546 331.084 101.081C331.583 99.6016 332.315 98.3198 333.282 97.2358C334.249 96.1519 335.442 95.3096 336.863 94.709C338.284 94.0938 339.925 93.7861 341.785 93.7861C343.66 93.7861 345.308 94.0938 346.729 94.709C348.165 95.3096 349.366 96.1519 350.333 97.2358C351.299 98.3198 352.032 99.6016 352.53 101.081C353.028 102.546 353.277 104.15 353.277 105.893V106.354C353.277 108.083 353.028 109.687 352.53 111.167C352.032 112.631 351.299 113.913 350.333 115.012C349.366 116.096 348.172 116.938 346.751 117.539C345.33 118.139 343.689 118.439 341.829 118.439C339.969 118.439 338.321 118.139 336.885 117.539C335.45 116.938 334.249 116.096 333.282 115.012C332.315 113.913 331.583 112.631 331.084 111.167C330.586 109.687 330.337 108.083 330.337 106.354ZM337.742 105.893V106.354C337.742 107.248 337.808 108.083 337.94 108.859C338.072 109.636 338.292 110.317 338.599 110.903C338.907 111.474 339.324 111.921 339.852 112.243C340.379 112.565 341.038 112.727 341.829 112.727C342.605 112.727 343.25 112.565 343.763 112.243C344.29 111.921 344.708 111.474 345.015 110.903C345.323 110.317 345.542 109.636 345.674 108.859C345.806 108.083 345.872 107.248 345.872 106.354V105.893C345.872 105.029 345.806 104.216 345.674 103.454C345.542 102.678 345.323 101.997 345.015 101.411C344.708 100.81 344.29 100.341 343.763 100.004C343.235 99.6675 342.576 99.499 341.785 99.499C341.009 99.499 340.357 99.6675 339.83 100.004C339.317 100.341 338.907 100.81 338.599 101.411C338.292 101.997 338.072 102.678 337.94 103.454C337.808 104.216 337.742 105.029 337.742 105.893ZM369.031 111.32C369.031 110.91 368.892 110.559 368.614 110.266C368.35 109.958 367.881 109.68 367.208 109.431C366.534 109.167 365.589 108.903 364.373 108.64C363.216 108.391 362.125 108.061 361.099 107.651C360.088 107.241 359.202 106.743 358.44 106.157C357.679 105.571 357.078 104.875 356.639 104.069C356.214 103.264 356.001 102.341 356.001 101.301C356.001 100.29 356.214 99.3379 356.639 98.4443C357.078 97.5361 357.715 96.7378 358.55 96.0493C359.4 95.3462 360.433 94.7969 361.648 94.4014C362.864 93.9912 364.249 93.7861 365.801 93.7861C367.94 93.7861 369.786 94.1157 371.338 94.7749C372.891 95.4194 374.085 96.3276 374.92 97.4995C375.77 98.6567 376.194 99.9971 376.194 101.521H368.79C368.79 100.92 368.687 100.407 368.482 99.9824C368.292 99.5576 367.977 99.2354 367.537 99.0156C367.098 98.7812 366.512 98.6641 365.779 98.6641C365.267 98.6641 364.798 98.7593 364.373 98.9497C363.963 99.1401 363.633 99.4038 363.384 99.7407C363.135 100.078 363.011 100.473 363.011 100.927C363.011 101.25 363.084 101.542 363.23 101.806C363.392 102.055 363.633 102.29 363.956 102.509C364.278 102.714 364.688 102.905 365.186 103.081C365.684 103.242 366.285 103.388 366.988 103.52C368.584 103.813 370.079 104.23 371.47 104.772C372.862 105.314 373.99 106.083 374.854 107.08C375.733 108.076 376.172 109.416 376.172 111.101C376.172 112.155 375.931 113.129 375.447 114.023C374.964 114.902 374.268 115.678 373.36 116.352C372.452 117.011 371.36 117.524 370.086 117.89C368.812 118.256 367.376 118.439 365.779 118.439C363.509 118.439 361.59 118.037 360.022 117.231C358.455 116.411 357.269 115.385 356.463 114.155C355.672 112.91 355.276 111.65 355.276 110.375H362.176C362.205 111.108 362.381 111.708 362.703 112.177C363.04 112.646 363.487 112.99 364.043 113.21C364.6 113.43 365.245 113.54 365.977 113.54C366.651 113.54 367.208 113.444 367.647 113.254C368.101 113.063 368.445 112.807 368.68 112.485C368.914 112.148 369.031 111.76 369.031 111.32ZM378.721 106.354V105.893C378.721 104.15 378.97 102.546 379.468 101.081C379.966 99.6016 380.699 98.3198 381.666 97.2358C382.632 96.1519 383.826 95.3096 385.247 94.709C386.668 94.0938 388.309 93.7861 390.169 93.7861C392.044 93.7861 393.692 94.0938 395.113 94.709C396.548 95.3096 397.75 96.1519 398.716 97.2358C399.683 98.3198 400.416 99.6016 400.914 101.081C401.412 102.546 401.661 104.15 401.661 105.893V106.354C401.661 108.083 401.412 109.687 400.914 111.167C400.416 112.631 399.683 113.913 398.716 115.012C397.75 116.096 396.556 116.938 395.135 117.539C393.714 118.139 392.073 118.439 390.213 118.439C388.353 118.439 386.705 118.139 385.269 117.539C383.833 116.938 382.632 116.096 381.666 115.012C380.699 113.913 379.966 112.631 379.468 111.167C378.97 109.687 378.721 108.083 378.721 106.354ZM386.126 105.893V106.354C386.126 107.248 386.192 108.083 386.324 108.859C386.456 109.636 386.675 110.317 386.983 110.903C387.291 111.474 387.708 111.921 388.235 112.243C388.763 112.565 389.422 112.727 390.213 112.727C390.989 112.727 391.634 112.565 392.146 112.243C392.674 111.921 393.091 111.474 393.399 110.903C393.707 110.317 393.926 109.636 394.058 108.859C394.19 108.083 394.256 107.248 394.256 106.354V105.893C394.256 105.029 394.19 104.216 394.058 103.454C393.926 102.678 393.707 101.997 393.399 101.411C393.091 100.81 392.674 100.341 392.146 100.004C391.619 99.6675 390.96 99.499 390.169 99.499C389.393 99.499 388.741 99.6675 388.213 100.004C387.701 100.341 387.291 100.81 386.983 101.411C386.675 101.997 386.456 102.678 386.324 103.454C386.192 104.216 386.126 105.029 386.126 105.893ZM412.427 98.7959V127.141H405.022V94.2256H411.922L412.427 98.7959ZM427.017 105.827V106.289C427.017 108.017 426.819 109.621 426.424 111.101C426.028 112.58 425.442 113.869 424.666 114.968C423.89 116.066 422.923 116.923 421.766 117.539C420.623 118.139 419.297 118.439 417.789 118.439C416.368 118.439 415.145 118.125 414.119 117.495C413.094 116.865 412.237 115.993 411.548 114.88C410.86 113.767 410.303 112.492 409.878 111.057C409.454 109.621 409.117 108.105 408.868 106.508V105.915C409.117 104.201 409.454 102.612 409.878 101.147C410.303 99.6675 410.86 98.3784 411.548 97.2798C412.237 96.1812 413.086 95.3242 414.097 94.709C415.123 94.0938 416.346 93.7861 417.767 93.7861C419.275 93.7861 420.601 94.0718 421.744 94.6431C422.901 95.2144 423.868 96.0347 424.644 97.104C425.435 98.1587 426.028 99.4258 426.424 100.905C426.819 102.385 427.017 104.025 427.017 105.827ZM419.612 106.289V105.827C419.612 104.904 419.546 104.062 419.415 103.3C419.283 102.524 419.07 101.85 418.777 101.279C418.499 100.708 418.125 100.268 417.657 99.9604C417.188 99.6528 416.609 99.499 415.921 99.499C415.13 99.499 414.463 99.6235 413.921 99.8726C413.394 100.107 412.969 100.473 412.647 100.971C412.339 101.455 412.12 102.062 411.988 102.795C411.871 103.513 411.819 104.355 411.834 105.322V107.124C411.805 108.237 411.915 109.218 412.164 110.068C412.413 110.903 412.845 111.555 413.46 112.023C414.075 112.492 414.91 112.727 415.965 112.727C416.668 112.727 417.254 112.565 417.723 112.243C418.191 111.906 418.565 111.445 418.843 110.859C419.122 110.258 419.319 109.57 419.437 108.793C419.554 108.017 419.612 107.182 419.612 106.289ZM437.564 84.25V118H430.159V84.25H437.564ZM436.685 105.3L434.949 105.344C434.949 103.674 435.154 102.136 435.564 100.729C435.975 99.3232 436.561 98.1001 437.322 97.0601C438.084 96.02 439 95.2144 440.069 94.6431C441.138 94.0718 442.325 93.7861 443.628 93.7861C444.8 93.7861 445.87 93.9546 446.836 94.2915C447.818 94.6284 448.66 95.1704 449.363 95.9175C450.081 96.6646 450.63 97.6387 451.011 98.8398C451.407 100.041 451.604 101.506 451.604 103.234V118H444.156V103.19C444.156 102.224 444.017 101.477 443.738 100.949C443.475 100.407 443.094 100.034 442.596 99.8286C442.098 99.6089 441.49 99.499 440.772 99.499C439.908 99.499 439.205 99.6455 438.663 99.9385C438.121 100.231 437.703 100.642 437.41 101.169C437.132 101.682 436.941 102.29 436.839 102.993C436.736 103.696 436.685 104.465 436.685 105.3ZM463.008 115.209L469.161 94.2256H477.115L467.557 121.538C467.352 122.138 467.081 122.783 466.744 123.471C466.407 124.174 465.945 124.841 465.359 125.471C464.773 126.101 464.019 126.613 463.096 127.009C462.188 127.404 461.06 127.602 459.712 127.602C458.995 127.602 458.467 127.565 458.13 127.492C457.808 127.434 457.31 127.324 456.636 127.163V121.867C456.827 121.867 456.988 121.867 457.12 121.867C457.266 121.867 457.427 121.867 457.603 121.867C458.394 121.867 459.024 121.787 459.493 121.625C459.976 121.464 460.342 121.23 460.591 120.922C460.855 120.615 461.06 120.241 461.207 119.802L463.008 115.209ZM461.448 94.2256L466.128 110.859L466.941 118.703H461.976L453.516 94.2256H461.448Z" fill="#424241"/>
<path d="M1363 15C1363 6.71573 1356.28 0 1348 0H1134V167H1348C1356.28 167 1363 160.284 1363 152V15Z" fill="#5F96EC"/>
<path d="M1234.26 106.286H1262.74V111.857H1234.26V106.286ZM1239.96 117.429H1257.04V123H1239.96V117.429ZM1248.5 45C1240.95 45 1233.71 47.9349 1228.37 53.1592C1223.03 58.3834 1220.03 65.469 1220.03 72.8571C1219.84 76.9057 1220.63 80.9412 1222.34 84.6315C1224.05 88.3219 1226.64 91.5616 1229.88 94.0843C1232.73 96.675 1234.26 98.1514 1234.26 100.714H1239.96C1239.96 95.5886 1236.8 92.7193 1233.72 89.9614C1231.06 87.9676 1228.94 85.3658 1227.55 82.3838C1226.15 79.4019 1225.53 76.1308 1225.72 72.8571C1225.72 66.9466 1228.12 61.2781 1232.39 57.0988C1236.67 52.9194 1242.46 50.5714 1248.5 50.5714C1254.54 50.5714 1260.33 52.9194 1264.61 57.0988C1268.88 61.2781 1271.28 66.9466 1271.28 72.8571C1271.47 76.1333 1270.84 79.4059 1269.44 82.388C1268.04 85.3701 1265.92 87.9706 1263.25 89.9614C1260.2 92.7471 1257.04 95.5329 1257.04 100.714H1262.74C1262.74 98.1514 1264.25 96.675 1267.12 94.0564C1270.36 91.5381 1272.94 88.3031 1274.66 84.6176C1276.37 80.9321 1277.16 76.9014 1276.97 72.8571C1276.97 69.1989 1276.24 65.5765 1274.81 62.1967C1273.37 58.8169 1271.28 55.7459 1268.63 53.1592C1265.99 50.5724 1262.85 48.5205 1259.4 47.1205C1255.94 45.7205 1252.24 45 1248.5 45Z" fill="white"/>
</svg>
